999
dxflib 3.12.2.0
  0
SECTION
  2
HEADER
  9
$ACADVER
  1
AC1015
  9
$HANDSEED
  5
FFFF
  9
$DIMADEC
 70
0
  9
$DIMASZ
 40
2.5
  9
$DIMAUNIT
 70
0
  9
$DIMAZIN
 70
2
  9
$DIMDEC
 70
4
  9
$DIMEXE
 40
1.25
  9
$DIMEXO
 40
0.625
  9
$DIMGAP
 40
0.625
  9
$DIMLUNIT
 70
2
  9
$DIMSCALE
 40
1.0
  9
$DIMTSZ
 40
0.0
  9
$DIMTXT
 40
2.5
  9
$DIMZIN
 70
8
  9
$DWGCODEPAGE
  3
ANSI_1252
  9
$INSUNITS
 70
4
  9
$LTSCALE
 40
1.0
  9
$MEASUREMENT
 70
1
  9
$PDMODE
 70
0
  9
$PDSIZE
 40
0
  0
ENDSEC
  0
SECTION
  2
TABLES
  0
TABLE
  2
VPORT
  5
8
100
AcDbSymbolTable
 70
1
  0
VPORT
  5
30
100
AcDbSymbolTableRecord
100
AcDbViewportTableRecord
  2
*Active
 70
0
 10
0.0
 20
0.0
 11
1.0
 21
1.0
 12
286.3055555555554861
 22
148.5
 13
0.0
 23
0.0
 14
10.0
 24
10.0
 15
10.0
 25
10.0
 16
0.0
 26
0.0
 36
1.0
 17
0.0
 27
0.0
 37
0.0
 40
297.0
 41
1.92798353909465
 42
50.0
 43
0.0
 44
0.0
 50
0.0
 51
0.0
 71
0
 72
100
 73
1
 74
3
 75
1
 76
1
 77
0
 78
0
281
0
 65
1
110
0.0
120
0.0
130
0.0
111
1.0
121
0.0
131
0.0
112
0.0
122
1.0
132
0.0
 79
0
146
0.0
  0
ENDTAB
  0
TABLE
  2
LTYPE
  5
5
100
AcDbSymbolTable
 70
54
  0
LTYPE
  5
16
100
AcDbSymbolTableRecord
100
AcDbLinetypeTableRecord
  2
Continuous
 70
0
  3
Solid line
 72
65
 73
0
 40
0.0
  0
LTYPE
  5
31
100
AcDbSymbolTableRecord
100
AcDbLinetypeTableRecord
  2
HOT_WATER_SUPPLY
 70
0
  3
Hot water supply ---- HW ---- HW ---- HW ----
 72
65
 73
3
 40
22.8599999999999994
 49
12.6999999999999993
 74
0
 49
-5.0800000000000001
 74
0
 49
-5.0800000000000001
 74
0
  0
LTYPE
  5
32
100
AcDbSymbolTableRecord
100
AcDbLinetypeTableRecord
  2
ACAD_ISO05W100
 70
0
  3
ISO long-dash double-dot ____ .. ____ .. ____ . 
 72
65
 73
6
 40
33.0
 49
24.0
 74
0
 49
-3.0
 74
0
 49
0.0
 74
0
 49
-3.0
 74
0
 49
0.0
 74
0
 49
-3.0
 74
0
  0
LTYPE
  5
33
100
AcDbSymbolTableRecord
100
AcDbLinetypeTableRecord
  2
DOT2
 70
0
  3
Dot (.5x) ........................................
 72
65
 73
2
 40
3.1749999999999998
 49
0.0
 74
0
 49
-3.1749999999999998
 74
0
  0
LTYPE
  5
34
100
AcDbSymbolTableRecord
100
AcDbLinetypeTableRecord
  2
ACAD_ISO12W100
 70
0
  3
ISO dash double-dot __ . . __ . . __ . . __ . . 
 72
65
 73
6
 40
21.0
 49
12.0
 74
0
 49
-3.0
 74
0
 49
0.0
 74
0
 49
-3.0
 74
0
 49
0.0
 74
0
 49
-3.0
 74
0
  0
LTYPE
  5
35
100
AcDbSymbolTableRecord
100
AcDbLinetypeTableRecord
  2
DASHDOT
 70
0
  3
Dash dot __ . __ . __ . __ . __ . __ . __ . __
 72
65
 73
4
 40
25.3999999999999986
 49
12.6999999999999993
 74
0
 49
-6.3499999999999996
 74
0
 49
0.0
 74
0
 49
-6.3499999999999996
 74
0
  0
LTYPE
  5
36
100
AcDbSymbolTableRecord
100
AcDbLinetypeTableRecord
  2
ACAD_ISO04W100
 70
0
  3
ISO long-dash dot ____ . ____ . ____ . ____ . _
 72
65
 73
4
 40
30.0
 49
24.0
 74
0
 49
-3.0
 74
0
 49
0.0
 74
0
 49
-3.0
 74
0
  0
LTYPE
  5
37
100
AcDbSymbolTableRecord
100
AcDbLinetypeTableRecord
  2
HIDDEN
 70
0
  3
Hidden __ __ __ __ __ __ __ __ __ __ __ __ __ __
 72
65
 73
2
 40
9.5249999999999986
 49
6.3499999999999996
 74
0
 49
-3.1749999999999998
 74
0
  0
LTYPE
  5
38
100
AcDbSymbolTableRecord
100
AcDbLinetypeTableRecord
  2
DASHDOT2
 70
0
  3
Dash dot (.5x) _._._._._._._._._._._._._._._.
 72
65
 73
4
 40
12.6999999999999993
 49
6.3499999999999996
 74
0
 49
-3.1749999999999998
 74
0
 49
0.0
 74
0
 49
-3.1749999999999998
 74
0
  0
LTYPE
  5
39
100
AcDbSymbolTableRecord
100
AcDbLinetypeTableRecord
  2
FENCELINE1
 70
0
  3
Fenceline circle ----0-----0----0-----0----0-----0--
 72
65
 73
4
 40
36.8299999999999983
 49
6.3499999999999996
 74
0
 49
-2.54
 74
0
 49
-2.54
 74
0
 49
25.3999999999999986
 74
0
  0
LTYPE
  5
3A
100
AcDbSymbolTableRecord
100
AcDbLinetypeTableRecord
  2
FENCELINE2
 70
0
  3
Fenceline square ----[]-----[]----[]-----[]----[]---
 72
65
 73
4
 40
36.8299999999999983
 49
6.3499999999999996
 74
0
 49
-2.54
 74
0
 49
-2.54
 74
0
 49
25.3999999999999986
 74
0
  0
LTYPE
  5
3B
100
AcDbSymbolTableRecord
100
AcDbLinetypeTableRecord
  2
ACAD_ISO11W100
 70
0
  3
ISO double-dash dot __ __ . __ __ . __ __ . __ _
 72
65
 73
6
 40
33.0
 49
12.0
 74
0
 49
-3.0
 74
0
 49
12.0
 74
0
 49
-3.0
 74
0
 49
0.0
 74
0
 49
-3.0
 74
0
  0
LTYPE
  5
3C
100
AcDbSymbolTableRecord
100
AcDbLinetypeTableRecord
  2
PHANTOM2
 70
0
  3
Phantom (.5x) ___ _ _ ___ _ _ ___ _ _ ___ _ _
 72
65
 73
6
 40
31.7500000000000036
 49
15.875
 74
0
 49
-3.1749999999999998
 74
0
 49
3.1749999999999998
 74
0
 49
-3.1749999999999998
 74
0
 49
3.1749999999999998
 74
0
 49
-3.1749999999999998
 74
0
  0
LTYPE
  5
3D
100
AcDbSymbolTableRecord
100
AcDbLinetypeTableRecord
  2
DASHDOTX2
 70
0
  3
Dash dot (2x) ____  .  ____  .  ____  .  ___
 72
65
 73
4
 40
50.7999999999999972
 49
25.3999999999999986
 74
0
 49
-12.6999999999999993
 74
0
 49
0.0
 74
0
 49
-12.6999999999999993
 74
0
  0
LTYPE
  5
3E
100
AcDbSymbolTableRecord
100
AcDbLinetypeTableRecord
  2
ACAD_ISO03W100
 70
0
  3
ISO dash space __    __    __    __    __    __
 72
65
 73
2
 40
30.0
 49
12.0
 74
0
 49
-18.0
 74
0
  0
LTYPE
  5
3F
100
AcDbSymbolTableRecord
100
AcDbLinetypeTableRecord
  2
PHANTOM
 70
0
  3
Phantom ______  __  __  ______  __  __  ______ 
 72
65
 73
6
 40
63.5000000000000071
 49
31.75
 74
0
 49
-6.3499999999999996
 74
0
 49
6.3499999999999996
 74
0
 49
-6.3499999999999996
 74
0
 49
6.3499999999999996
 74
0
 49
-6.3499999999999996
 74
0
  0
LTYPE
  5
40
100
AcDbSymbolTableRecord
100
AcDbLinetypeTableRecord
  2
ACAD_ISO10W100
 70
0
  3
ISO dash dot __ . __ . __ . __ . __ . __ . __ . 
 72
65
 73
4
 40
18.0
 49
12.0
 74
0
 49
-3.0
 74
0
 49
0.0
 74
0
 49
-3.0
 74
0
  0
LTYPE
  5
41
100
AcDbSymbolTableRecord
100
AcDbLinetypeTableRecord
  2
HIDDENX2
 70
0
  3
Hidden (2x) ____ ____ ____ ____ ____ ____ ____ 
 72
65
 73
2
 40
19.0499999999999972
 49
12.6999999999999993
 74
0
 49
-6.3499999999999996
 74
0
  0
LTYPE
  5
42
100
AcDbSymbolTableRecord
100
AcDbLinetypeTableRecord
  2
BORDER2
 70
0
  3
Border (.5x) __.__.__.__.__.__.__.__.__.__.__.
 72
65
 73
6
 40
22.2249999999999979
 49
6.3499999999999996
 74
0
 49
-3.1749999999999998
 74
0
 49
6.3499999999999996
 74
0
 49
-3.1749999999999998
 74
0
 49
0.0
 74
0
 49
-3.1749999999999998
 74
0
  0
LTYPE
  5
43
100
AcDbSymbolTableRecord
100
AcDbLinetypeTableRecord
  2
ACAD_ISO02W100
 70
0
  3
ISO dash __ __ __ __ __ __ __ __ __ __ __ __ __
 72
65
 73
2
 40
15.0
 49
12.0
 74
0
 49
-3.0
 74
0
  0
LTYPE
  5
44
100
AcDbSymbolTableRecord
100
AcDbLinetypeTableRecord
  2
DRAINAGE2
 70
0
  3
Drainage reversed----<----<----<----
 72
65
 73
2
 40
10.1600000000000001
 49
5.0800000000000001
 74
0
 49
5.0800000000000001
 74
0
  0
LTYPE
  5
45
100
AcDbSymbolTableRecord
100
AcDbLinetypeTableRecord
  2
CUTLEFT
 70
0
  3
G41 ----\----\----\----
 72
65
 73
2
 40
10.1600000000000001
 49
5.0800000000000001
 74
0
 49
5.0800000000000001
 74
0
  0
LTYPE
  5
46
100
AcDbSymbolTableRecord
100
AcDbLinetypeTableRecord
  2
ZIGZAG
 70
0
  3
Zig zag /\/\/\/\/\/\/\/\/\/\/\/\/\/\/\/\/\/\/\/\/\/\/\/
 72
65
 73
4
 40
20.32254
 49
0.00254
 74
0
 49
-5.0800000000000001
 74
0
 49
-10.1600000000000001
 74
0
 49
-5.0800000000000001
 74
0
  0
LTYPE
  5
47
100
AcDbSymbolTableRecord
100
AcDbLinetypeTableRecord
  2
DIVIDE2
 70
0
  3
Divide (.5x) __..__..__..__..__..__..__..__.._
 72
65
 73
6
 40
15.875
 49
6.3499999999999996
 74
0
 49
-3.1749999999999998
 74
0
 49
0.0
 74
0
 49
-3.1749999999999998
 74
0
 49
0.0
 74
0
 49
-3.1749999999999998
 74
0
  0
LTYPE
  5
48
100
AcDbSymbolTableRecord
100
AcDbLinetypeTableRecord
  2
DRAINAGE
 70
0
  3
Drainage ---->---->---->----
 72
65
 73
2
 40
10.1600000000000001
 49
5.0800000000000001
 74
0
 49
5.0800000000000001
 74
0
  0
LTYPE
  5
49
100
AcDbSymbolTableRecord
100
AcDbLinetypeTableRecord
  2
HIDDEN2
 70
0
  3
Hidden (.5x) _ _ _ _ _ _ _ _ _ _ _ _ _ _ _ _ _ 
 72
65
 73
2
 40
4.7624999999999993
 49
3.1749999999999998
 74
0
 49
-1.5874999999999999
 74
0
  0
LTYPE
  5
4A
100
AcDbSymbolTableRecord
100
AcDbLinetypeTableRecord
  2
CUTLEFT2
 70
0
  3
G41 reversed----/----/----/----
 72
65
 73
2
 40
10.1600000000000001
 49
5.0800000000000001
 74
0
 49
5.0800000000000001
 74
0
  0
LTYPE
  5
4B
100
AcDbSymbolTableRecord
100
AcDbLinetypeTableRecord
  2
DIVIDEX2
 70
0
  3
Divide (2x) ________  .  .  ________  .  .  _
 72
65
 73
6
 40
63.5
 49
25.3999999999999986
 74
0
 49
-12.6999999999999993
 74
0
 49
0.0
 74
0
 49
-12.6999999999999993
 74
0
 49
0.0
 74
0
 49
-12.6999999999999993
 74
0
  0
LTYPE
  5
4C
100
AcDbSymbolTableRecord
100
AcDbLinetypeTableRecord
  2
BATTING
 70
0
  3
Batting SSSSSSSSSSSSSSSSSSSSSSSSSSSSSSSSSSSSSSSSSSSSSSS
 72
65
 73
4
 40
10.1625399999999999
 49
0.00254
 74
0
 49
-2.54
 74
0
 49
-5.0800000000000001
 74
0
 49
-2.54
 74
0
  0
LTYPE
  5
4D
100
AcDbSymbolTableRecord
100
AcDbLinetypeTableRecord
  2
BORDERX2
 70
0
  3
Border (2x) ____  ____  .  ____  ____  .  ___
 72
65
 73
6
 40
88.8999999999999915
 49
25.3999999999999986
 74
0
 49
-12.6999999999999993
 74
0
 49
25.3999999999999986
 74
0
 49
-12.6999999999999993
 74
0
 49
0.0
 74
0
 49
-12.6999999999999993
 74
0
  0
LTYPE
  5
4E
100
AcDbSymbolTableRecord
100
AcDbLinetypeTableRecord
  2
ACAD_ISO09W100
 70
0
  3
ISO long-dash double-short-dash ____ __ __ ____
 72
65
 73
6
 40
45.0
 49
24.0
 74
0
 49
-3.0
 74
0
 49
6.0
 74
0
 49
-3.0
 74
0
 49
6.0
 74
0
 49
-3.0
 74
0
  0
LTYPE
  5
14
100
AcDbSymbolTableRecord
100
AcDbLinetypeTableRecord
  2
BYBLOCK
 70
0
  3

 72
65
 73
0
 40
0.0
  0
LTYPE
  5
4F
100
AcDbSymbolTableRecord
100
AcDbLinetypeTableRecord
  2
CUTRIGHT2
 70
0
  3
G42 reversed----\----\----\----
 72
65
 73
2
 40
10.1600000000000001
 49
5.0800000000000001
 74
0
 49
5.0800000000000001
 74
0
  0
LTYPE
  5
50
100
AcDbSymbolTableRecord
100
AcDbLinetypeTableRecord
  2
CUTRIGHT
 70
0
  3
G42 ----/----/-----/---
 72
65
 73
2
 40
10.1600000000000001
 49
5.0800000000000001
 74
0
 49
5.0800000000000001
 74
0
  0
LTYPE
  5
51
100
AcDbSymbolTableRecord
100
AcDbLinetypeTableRecord
  2
ACAD_ISO08W100
 70
0
  3
ISO long-dash short-dash ____ __ ____ __ ____ _
 72
65
 73
4
 40
36.0
 49
24.0
 74
0
 49
-3.0
 74
0
 49
6.0
 74
0
 49
-3.0
 74
0
  0
LTYPE
  5
52
100
AcDbSymbolTableRecord
100
AcDbLinetypeTableRecord
  2
DOT
 70
0
  3
Dot . . . . . . . . . . . . . . . . . . . . . . . .
 72
65
 73
2
 40
6.3499999999999996
 49
0.0
 74
0
 49
-6.3499999999999996
 74
0
  0
LTYPE
  5
53
100
AcDbSymbolTableRecord
100
AcDbLinetypeTableRecord
  2
CENTER
 70
0
  3
Center ____ _ ____ _ ____ _ ____ _ ____ _ ____
 72
65
 73
4
 40
50.8000000000000043
 49
31.75
 74
0
 49
-6.3499999999999996
 74
0
 49
6.3499999999999996
 74
0
 49
-6.3499999999999996
 74
0
  0
LTYPE
  5
54
100
AcDbSymbolTableRecord
100
AcDbLinetypeTableRecord
  2
DOTX2
 70
0
  3
Dot (2x) .  .  .  .  .  .  .  .  .  .  .  .  .  .
 72
65
 73
2
 40
12.6999999999999993
 49
0.0
 74
0
 49
-12.6999999999999993
 74
0
  0
LTYPE
  5
55
100
AcDbSymbolTableRecord
100
AcDbLinetypeTableRecord
  2
DIVIDE
 70
0
  3
Divide ____ . . ____ . . ____ . . ____ . . ____
 72
65
 73
6
 40
31.75
 49
12.6999999999999993
 74
0
 49
-6.3499999999999996
 74
0
 49
0.0
 74
0
 49
-6.3499999999999996
 74
0
 49
0.0
 74
0
 49
-6.3499999999999996
 74
0
  0
LTYPE
  5
56
100
AcDbSymbolTableRecord
100
AcDbLinetypeTableRecord
  2
ACAD_ISO15W100
 70
0
  3
ISO double-dash triple-dot __ __ . . . __ __ . .
 72
65
 73
10
 40
39.0
 49
12.0
 74
0
 49
-3.0
 74
0
 49
12.0
 74
0
 49
-3.0
 74
0
 49
0.0
 74
0
 49
-3.0
 74
0
 49
0.0
 74
0
 49
-3.0
 74
0
 49
0.0
 74
0
 49
-3.0
 74
0
  0
LTYPE
  5
57
100
AcDbSymbolTableRecord
100
AcDbLinetypeTableRecord
  2
DASHED
 70
0
  3
Dashed __ __ __ __ __ __ __ __ __ __ __ __ __ _
 72
65
 73
2
 40
19.0499999999999972
 49
12.6999999999999993
 74
0
 49
-6.3499999999999996
 74
0
  0
LTYPE
  5
58
100
AcDbSymbolTableRecord
100
AcDbLinetypeTableRecord
  2
ACAD_ISO07W100
 70
0
  3
ISO dot . . . . . . . . . . . . . . . . . . . . 
 72
65
 73
2
 40
3.0
 49
0.0
 74
0
 49
-3.0
 74
0
  0
LTYPE
  5
59
100
AcDbSymbolTableRecord
100
AcDbLinetypeTableRecord
  2
DASHED2
 70
0
  3
Dashed (.5x) _ _ _ _ _ _ _ _ _ _ _ _ _ _ _ _ _ 
 72
65
 73
2
 40
9.5249999999999986
 49
6.3499999999999996
 74
0
 49
-3.1749999999999998
 74
0
  0
LTYPE
  5
5A
100
AcDbSymbolTableRecord
100
AcDbLinetypeTableRecord
  2
DASHEDX2
 70
0
  3
Dashed (2x) ____  ____  ____  ____  ____  ___
 72
65
 73
2
 40
38.0999999999999943
 49
25.3999999999999986
 74
0
 49
-12.6999999999999993
 74
0
  0
LTYPE
  5
5B
100
AcDbSymbolTableRecord
100
AcDbLinetypeTableRecord
  2
PHANTOMX2
 70
0
  3
Phantom (2x) ____________    ____    ____   _
 72
65
 73
6
 40
127.0000000000000142
 49
63.5
 74
0
 49
-12.6999999999999993
 74
0
 49
12.6999999999999993
 74
0
 49
-12.6999999999999993
 74
0
 49
12.6999999999999993
 74
0
 49
-12.6999999999999993
 74
0
  0
LTYPE
  5
5C
100
AcDbSymbolTableRecord
100
AcDbLinetypeTableRecord
  2
ACAD_ISO14W100
 70
0
  3
ISO dash triple-dot __ . . . __ . . . __ . . . _
 72
65
 73
8
 40
24.0
 49
12.0
 74
0
 49
-3.0
 74
0
 49
0.0
 74
0
 49
-3.0
 74
0
 49
0.0
 74
0
 49
-3.0
 74
0
 49
0.0
 74
0
 49
-3.0
 74
0
  0
LTYPE
  5
5D
100
AcDbSymbolTableRecord
100
AcDbLinetypeTableRecord
  2
ACAD_ISO06W100
 70
0
  3
ISO long-dash triple-dot ____ ... ____ ... ____
 72
65
 73
8
 40
36.0
 49
24.0
 74
0
 49
-3.0
 74
0
 49
0.0
 74
0
 49
-3.0
 74
0
 49
0.0
 74
0
 49
-3.0
 74
0
 49
0.0
 74
0
 49
-3.0
 74
0
  0
LTYPE
  5
5E
100
AcDbSymbolTableRecord
100
AcDbLinetypeTableRecord
  2
TRACKS
 70
0
  3
Tracks -|-|-|-|-|-|-|-|-|-|-|-|-|-|-|-|-|-|-|-|-|-|-|-|-
 72
65
 73
2
 40
7.6200000000000001
 49
3.8100000000000001
 74
0
 49
3.8100000000000001
 74
0
  0
LTYPE
  5
5F
100
AcDbSymbolTableRecord
100
AcDbLinetypeTableRecord
  2
CENTERX2
 70
0
  3
Center (2x) ________  __  ________  __  _____
 72
65
 73
4
 40
101.6000000000000085
 49
63.5
 74
0
 49
-12.6999999999999993
 74
0
 49
12.6999999999999993
 74
0
 49
-12.6999999999999993
 74
0
  0
LTYPE
  5
15
100
AcDbSymbolTableRecord
100
AcDbLinetypeTableRecord
  2
BYLAYER
 70
0
  3

 72
65
 73
0
 40
0.0
  0
LTYPE
  5
60
100
AcDbSymbolTableRecord
100
AcDbLinetypeTableRecord
  2
CENTER2
 70
0
  3
Center (.5x) ___ _ ___ _ ___ _ ___ _ ___ _ ___
 72
65
 73
4
 40
28.5750000000000028
 49
19.0500000000000007
 74
0
 49
-3.1749999999999998
 74
0
 49
3.1749999999999998
 74
0
 49
-3.1749999999999998
 74
0
  0
LTYPE
  5
61
100
AcDbSymbolTableRecord
100
AcDbLinetypeTableRecord
  2
BORDER
 70
0
  3
Border __ __ . __ __ . __ __ . __ __ . __ __ .
 72
65
 73
6
 40
44.4499999999999957
 49
12.6999999999999993
 74
0
 49
-6.3499999999999996
 74
0
 49
12.6999999999999993
 74
0
 49
-6.3499999999999996
 74
0
 49
0.0
 74
0
 49
-6.3499999999999996
 74
0
  0
LTYPE
  5
62
100
AcDbSymbolTableRecord
100
AcDbLinetypeTableRecord
  2
GAS_LINE
 70
0
  3
Gas line ----GAS----GAS----GAS----GAS----GAS----GAS--
 72
65
 73
3
 40
24.1300000000000026
 49
12.6999999999999993
 74
0
 49
-5.0800000000000001
 74
0
 49
-6.3499999999999996
 74
0
  0
LTYPE
  5
63
100
AcDbSymbolTableRecord
100
AcDbLinetypeTableRecord
  2
ACAD_ISO13W100
 70
0
  3
ISO double-dash double-dot __ __ . . __ __ . . _
 72
65
 73
8
 40
36.0
 49
12.0
 74
0
 49
-3.0
 74
0
 49
12.0
 74
0
 49
-3.0
 74
0
 49
0.0
 74
0
 49
-3.0
 74
0
 49
0.0
 74
0
 49
-3.0
 74
0
  0
ENDTAB
  0
TABLE
  2
LAYER
  5
2
100
AcDbSymbolTable
 70
1
  0
LAYER
  5
10
100
AcDbSymbolTableRecord
100
AcDbLayerTableRecord
  2
0
 70
0
 62
7
420
16777215
  6
Continuous
370
25
390
F
  0
ENDTAB
  0
TABLE
  2
STYLE
  5
3
100
AcDbSymbolTable
 70
2
  0
STYLE
  5
64
100
AcDbSymbolTableRecord
100
AcDbTextStyleTableRecord
  2
Standard
 70
0
 40
0.0
 41
1.0
 50
0.0
 71
0
 42
2.5
  3

  4

1001
ACAD
1000
txt
1071
0
  0
STYLE
  5
65
100
AcDbSymbolTableRecord
100
AcDbTextStyleTableRecord
  2
textstyle0
 70
0
 40
0.0
 41
1.0
 50
0.0
 71
0
 42
1.0
  3

  4

1001
ACAD
1000
Arial
1071
0
  0
ENDTAB
  0
TABLE
  2
VIEW
  5
6
100
AcDbSymbolTable
 70
0
  0
ENDTAB
  0
TABLE
  2
UCS
  5
7
100
AcDbSymbolTable
 70
0
  0
ENDTAB
  0
TABLE
  2
APPID
  5
9
100
AcDbSymbolTable
 70
1
  0
APPID
  5
12
100
AcDbSymbolTableRecord
100
AcDbRegAppTableRecord
  2
ACAD
 70
0
  0
APPID
  5
66
100
AcDbSymbolTableRecord
100
AcDbRegAppTableRecord
  2
QCAD
 70
0
  0
ENDTAB
  0
TABLE
  2
DIMSTYLE
  5
A
100
AcDbSymbolTable
 70
1
100
AcDbDimStyleTable
 71
0
  0
DIMSTYLE
105
27
100
AcDbSymbolTableRecord
100
AcDbDimStyleTableRecord
  2
Standard
 41
2.5
 42
0.625
 43
3.75
 44
1.25
 70
0
 73
0
 74
0
 77
1
 78
8
140
2.5
141
2.5
143
0.03937007874016
147
0.625
171
3
172
1
271
2
272
2
274
3
278
44
283
0
284
8
340
64
  0
ENDTAB
  0
TABLE
  2
BLOCK_RECORD
  5
1
100
AcDbSymbolTable
 70
1
  0
BLOCK_RECORD
  5
1F
100
AcDbSymbolTableRecord
100
AcDbBlockTableRecord
  2
*Model_Space
340
22
  0
BLOCK_RECORD
  5
1B
100
AcDbSymbolTableRecord
100
AcDbBlockTableRecord
  2
*Paper_Space
340
1E
  0
BLOCK_RECORD
  5
23
100
AcDbSymbolTableRecord
100
AcDbBlockTableRecord
  2
*Paper_Space0
340
26
  0
ENDTAB
  0
ENDSEC
  0
SECTION
  2
BLOCKS
  0
BLOCK
  5
20
100
AcDbEntity
  8
0
100
AcDbBlockBegin
  2
*Model_Space
 70
0
 10
0.0
 20
0.0
 30
0.0
  3
*Model_Space
  1

  0
ENDBLK
  5
21
100
AcDbEntity
  8
0
100
AcDbBlockEnd
  0
BLOCK
  5
1C
100
AcDbEntity
 67
1
  8
0
100
AcDbBlockBegin
  2
*Paper_Space
 70
0
 10
0.0
 20
0.0
 30
0.0
  3
*Paper_Space
  1

  0
ENDBLK
  5
1D
100
AcDbEntity
 67
1
  8
0
100
AcDbBlockEnd
  0
BLOCK
  5
24
100
AcDbEntity
  8
0
100
AcDbBlockBegin
  2
*Paper_Space0
 70
0
 10
0.0
 20
0.0
 30
0.0
  3
*Paper_Space0
  1

  0
ENDBLK
  5
25
100
AcDbEntity
  8
0
100
AcDbBlockEnd
  0
ENDSEC
  0
SECTION
  2
ENTITIES
  0
LINE
  5
67
100
AcDbEntity
100
AcDbLine
  8
0
 62
256
370
-1
 48
1.0
  6
BYLAYER
 10
14.9999999999999929
 20
257.5000000000000568
 30
0.0
 11
14.9999999999999929
 21
162.5000000000000568
 31
0.0
  0
LINE
  5
68
100
AcDbEntity
100
AcDbLine
  8
0
 62
256
370
-1
 48
1.0
  6
BYLAYER
 10
145.0498895295011152
 20
130.1548238174194694
 30
0.0
 11
50.0498895295011081
 21
130.1548238174194694
 31
0.0
  0
LINE
  5
69
100
AcDbEntity
100
AcDbLine
  8
0
 62
256
370
-1
 48
1.0
  6
BYLAYER
 10
29.9999999999999929
 20
147.5
 30
0.0
 11
29.9999999999999929
 21
147.5
 31
0.0
  0
LINE
  5
6A
100
AcDbEntity
100
AcDbLine
  8
0
 62
256
370
-1
 48
1.0
  6
BYLAYER
 10
35.0498895295011081
 20
115.1548238174194694
 30
0.0
 11
35.0498895295011081
 21
115.1548238174194694
 31
0.0
  0
CIRCLE
  5
6B
100
AcDbEntity
100
AcDbCircle
  8
0
 62
256
370
-1
 48
1.0
  6
BYLAYER
 10
123.8765007216610456
 20
51.3109289767115655
 30
0.0
 40
1.375
  0
CIRCLE
  5
6C
100
AcDbEntity
100
AcDbCircle
  8
0
 62
256
370
-1
 48
1.0
  6
BYLAYER
 10
181.2361059676115929
 20
238.9788006270765379
 30
0.0
 40
1.375
  0
LINE
  5
6D
100
AcDbEntity
100
AcDbLine
  8
0
 62
256
370
-1
 48
1.0
  6
BYLAYER
 10
44.9999999999999929
 20
162.4999999999999716
 30
0.0
 11
45.0000000000001066
 21
257.5000000000001137
 31
0.0
  0
LINE
  5
6E
100
AcDbEntity
100
AcDbLine
  8
0
 62
256
370
-1
 48
1.0
  6
BYLAYER
 10
50.0498895295011081
 20
100.1548238174194694
 30
0.0
 11
145.0498895295011152
 21
100.1548238174194694
 31
0.0
  0
LINE
  5
6F
100
AcDbEntity
100
AcDbLine
  8
0
 62
256
370
-1
 48
1.0
  6
BYLAYER
 10
119.7124999999999773
 20
264.4250000000000114
 30
0.0
 11
119.7124999999999773
 21
264.4250000000000114
 31
0.0
  0
LINE
  5
70
100
AcDbEntity
100
AcDbLine
  8
0
 62
256
370
-1
 48
1.0
  6
BYLAYER
 10
129.5398460311075723
 20
162.0012874769905409
 30
0.0
 11
129.5398460311075723
 21
162.0012874769905409
 31
0.0
  0
CIRCLE
  5
71
100
AcDbEntity
100
AcDbCircle
  8
0
 62
256
370
-1
 48
1.0
  6
BYLAYER
 10
181.2361059676113655
 20
180.9788006270765379
 30
0.0
 40
1.375
  0
CIRCLE
  5
72
100
AcDbEntity
100
AcDbCircle
  8
0
 62
256
370
-1
 48
1.0
  6
BYLAYER
 10
65.8765007216610456
 20
51.3109289767115655
 30
0.0
 40
1.375
  0
LINE
  5
73
100
AcDbEntity
100
AcDbLine
  8
0
 62
256
370
-1
 48
1.0
  6
BYLAYER
 10
29.9999999999999929
 20
272.5
 30
0.0
 11
29.9999999999999929
 21
272.5
 31
0.0
  0
LINE
  5
74
100
AcDbEntity
100
AcDbLine
  8
0
 62
256
370
-1
 48
1.0
  6
BYLAYER
 10
160.0498895295011152
 20
115.1548238174194694
 30
0.0
 11
160.0498895295011152
 21
115.1548238174194694
 31
0.0
  0
CIRCLE
  5
75
100
AcDbEntity
100
AcDbCircle
  8
0
 62
256
370
-1
 48
1.0
  6
BYLAYER
 10
18.4999999999999929
 20
181.0
 30
0.0
 40
1.375
  0
CIRCLE
  5
76
100
AcDbEntity
100
AcDbCircle
  8
0
 62
256
370
-1
 48
1.0
  6
BYLAYER
 10
68.5498895295011152
 20
126.6548238174194694
 30
0.0
 40
1.375
  0
ARC
  5
77
100
AcDbEntity
  8
0
 62
256
370
-1
 48
1.0
  6
BYLAYER
100
AcDbCircle
 10
29.9947346536351844
 20
220.5000000000000568
 30
0.0
 40
1.0
100
AcDbArc
 50
270.0
 51
90.0
  0
ARC
  5
78
100
AcDbEntity
  8
0
 62
256
370
-1
 48
1.0
  6
BYLAYER
100
AcDbCircle
 10
28.2447346536351844
 20
220.5
 30
0.0
 40
1.0
100
AcDbArc
 50
90.0
 51
270.0
  0
ARC
  5
79
100
AcDbEntity
  8
0
 62
256
370
-1
 48
1.0
  6
BYLAYER
100
AcDbCircle
 10
118.0572346536350778
 20
240.125
 30
0.0
 40
1.0
100
AcDbArc
 50
90.0
 51
270.0
  0
ARC
  5
7A
100
AcDbEntity
  8
0
 62
256
370
-1
 48
1.0
  6
BYLAYER
100
AcDbCircle
 10
119.8072346536350778
 20
240.125
 30
0.0
 40
1.0
100
AcDbArc
 50
270.0
 51
90.0
  0
ARC
  5
7B
100
AcDbEntity
  8
0
 62
256
370
-1
 48
1.0
  6
BYLAYER
100
AcDbCircle
 10
108.0498895295011152
 20
115.1600891637843347
 30
0.0
 40
1.0
100
AcDbArc
 50
180.0
 51
0.0
  0
ARC
  5
7C
100
AcDbEntity
  8
0
 62
256
370
-1
 48
1.0
  6
BYLAYER
100
AcDbCircle
 10
108.0498895295011152
 20
116.9100891637842778
 30
0.0
 40
1.0
100
AcDbArc
 50
0.0
 51
180.0
  0
ARC
  5
7D
100
AcDbEntity
  8
0
 62
256
370
-1
 48
1.0
  6
BYLAYER
100
AcDbCircle
 10
63.9617900311076184
 20
242.7892101306254347
 30
0.0
 40
1.0
100
AcDbArc
 50
180.0
 51
0.0
  0
ARC
  5
7E
100
AcDbEntity
  8
0
 62
256
370
-1
 48
1.0
  6
BYLAYER
100
AcDbCircle
 10
63.9617900311076184
 20
244.5392101306254347
 30
0.0
 40
1.0
100
AcDbArc
 50
0.0
 51
180.0
  0
ARC
  5
7F
100
AcDbEntity
  8
0
 62
256
370
-1
 48
1.0
  6
BYLAYER
100
AcDbCircle
 10
105.2398460311076178
 20
161.9065528233553835
 30
0.0
 40
1.0
100
AcDbArc
 50
180.0
 51
0.0
  0
ARC
  5
80
100
AcDbEntity
  8
0
 62
256
370
-1
 48
1.0
  6
BYLAYER
100
AcDbCircle
 10
105.2398460311076178
 20
163.6565528233553266
 30
0.0
 40
1.0
100
AcDbArc
 50
0.0
 51
180.0
  0
ARC
  5
81
100
AcDbEntity
  8
0
 62
256
370
-1
 48
1.0
  6
BYLAYER
100
AcDbCircle
 10
45.2147708508130037
 20
13.6349847452014501
 30
0.0
 40
1.0
100
AcDbArc
 50
0.0
 51
180.0
  0
ARC
  5
82
100
AcDbEntity
  8
0
 62
256
370
-1
 48
1.0
  6
BYLAYER
100
AcDbCircle
 10
45.2147708508130037
 20
11.8849847452014501
 30
0.0
 40
1.0
100
AcDbArc
 50
180.0
 51
0.0
  0
ARC
  5
83
100
AcDbEntity
  8
0
 62
256
370
-1
 48
1.0
  6
BYLAYER
100
AcDbCircle
 10
80.4693913774723342
 20
197.2477074769903993
 30
0.0
 40
1.0
100
AcDbArc
 50
90.0
 51
270.0
  0
ARC
  5
84
100
AcDbEntity
  8
0
 62
256
370
-1
 48
1.0
  6
BYLAYER
100
AcDbCircle
 10
82.2193913774724479
 20
197.2477074769903993
 30
0.0
 40
1.0
100
AcDbArc
 50
270.0
 51
90.0
  0
CIRCLE
  5
85
100
AcDbEntity
100
AcDbCircle
  8
0
 62
256
370
-1
 48
1.0
  6
BYLAYER
 10
108.3125000000001137
 20
200.6250000000000568
 30
0.0
 40
1.375
  0
CIRCLE
  5
86
100
AcDbEntity
100
AcDbCircle
  8
0
 62
256
370
-1
 48
1.0
  6
BYLAYER
 10
65.7398460311076178
 20
173.4012874769905181
 30
0.0
 40
1.375
  0
CIRCLE
  5
87
100
AcDbEntity
100
AcDbCircle
  8
0
 62
256
370
-1
 48
1.0
  6
BYLAYER
 10
158.2361059676113655
 20
238.9788006270765379
 30
0.0
 40
1.375
  0
CIRCLE
  5
88
100
AcDbEntity
100
AcDbCircle
  8
0
 62
256
370
-1
 48
1.0
  6
BYLAYER
 10
123.8765007216610456
 20
74.3109289767116223
 30
0.0
 40
1.375
  0
CIRCLE
  5
89
100
AcDbEntity
100
AcDbCircle
  8
0
 62
256
370
-1
 48
1.0
  6
BYLAYER
 10
42.5000000000001066
 20
220.5000000000000568
 30
0.0
 40
1.0
  0
CIRCLE
  5
8A
100
AcDbEntity
100
AcDbCircle
  8
0
 62
256
370
-1
 48
1.0
  6
BYLAYER
 10
132.3125
 20
240.125
 30
0.0
 40
1.0
  0
CIRCLE
  5
8B
100
AcDbEntity
100
AcDbCircle
  8
0
 62
256
370
-1
 48
1.0
  6
BYLAYER
 10
108.0498895295011152
 20
102.6548238174194694
 30
0.0
 40
1.0
  0
CIRCLE
  5
8C
100
AcDbEntity
100
AcDbCircle
  8
0
 62
256
370
-1
 48
1.0
  6
BYLAYER
 10
67.9641260311076394
 20
197.2477074769903993
 30
0.0
 40
1.0
  0
CIRCLE
  5
8D
100
AcDbEntity
100
AcDbCircle
  8
0
 62
256
370
-1
 48
1.0
  6
BYLAYER
 10
105.2398460311076178
 20
149.4012874769905181
 30
0.0
 40
1.0
  0
CIRCLE
  5
8E
100
AcDbEntity
100
AcDbCircle
  8
0
 62
256
370
-1
 48
1.0
  6
BYLAYER
 10
63.9617900311076184
 20
257.0444754769903284
 30
0.0
 40
1.0
  0
CIRCLE
  5
8F
100
AcDbEntity
100
AcDbCircle
  8
0
 62
256
370
-1
 48
1.0
  6
BYLAYER
 10
67.9693913774723342
 20
197.2477074769903993
 30
0.0
 40
1.0
  0
CIRCLE
  5
90
100
AcDbEntity
100
AcDbCircle
  8
0
 62
256
370
-1
 48
1.0
  6
BYLAYER
 10
42.4947346536350707
 20
220.5
 30
0.0
 40
1.0
  0
CIRCLE
  5
91
100
AcDbEntity
100
AcDbCircle
  8
0
 62
256
370
-1
 48
1.0
  6
BYLAYER
 10
108.0498895295011152
 20
102.6600891637843347
 30
0.0
 40
1.0
  0
CIRCLE
  5
92
100
AcDbEntity
100
AcDbCircle
  8
0
 62
256
370
-1
 48
1.0
  6
BYLAYER
 10
105.2398460311076178
 20
149.4065528233553835
 30
0.0
 40
1.0
  0
CIRCLE
  5
93
100
AcDbEntity
100
AcDbCircle
  8
0
 62
256
370
-1
 48
1.0
  6
BYLAYER
 10
63.9617900311076184
 20
257.0392101306254062
 30
0.0
 40
1.0
  0
CIRCLE
  5
94
100
AcDbEntity
100
AcDbCircle
  8
0
 62
256
370
-1
 48
1.0
  6
BYLAYER
 10
132.3072346536351915
 20
240.125
 30
0.0
 40
1.0
  0
CIRCLE
  5
95
100
AcDbEntity
100
AcDbCircle
  8
0
 62
256
370
-1
 48
1.0
  6
BYLAYER
 10
45.2147708508130037
 20
26.1349847452014501
 30
0.0
 40
1.0
  0
CIRCLE
  5
96
100
AcDbEntity
100
AcDbCircle
  8
0
 62
256
370
-1
 48
1.0
  6
BYLAYER
 10
18.5000000000001066
 20
239.0000000000000568
 30
0.0
 40
1.375
  0
CIRCLE
  5
97
100
AcDbEntity
100
AcDbCircle
  8
0
 62
256
370
-1
 48
1.0
  6
BYLAYER
 10
126.5498895295011152
 20
126.6548238174194694
 30
0.0
 40
1.375
  0
CIRCLE
  5
98
100
AcDbEntity
100
AcDbCircle
  8
0
 62
256
370
-1
 48
1.0
  6
BYLAYER
 10
108.3125
 20
258.625
 30
0.0
 40
1.375
  0
CIRCLE
  5
99
100
AcDbEntity
100
AcDbCircle
  8
0
 62
256
370
-1
 48
1.0
  6
BYLAYER
 10
123.7398460311076178
 20
173.4012874769905181
 30
0.0
 40
1.375
  0
ARC
  5
9A
100
AcDbEntity
  8
0
 62
256
370
-1
 48
1.0
  6
BYLAYER
100
AcDbCircle
 10
28.2447346536351844
 20
199.5000000000000284
 30
0.0
 40
1.0
100
AcDbArc
 50
89.868757808235074
 51
270.0
  0
ARC
  5
9B
100
AcDbEntity
  8
0
 62
256
370
-1
 48
1.0
  6
BYLAYER
100
AcDbCircle
 10
119.8072346536351915
 20
219.125
 30
0.0
 40
1.0
100
AcDbArc
 50
270.0
 51
95.0006445975589457
  0
ARC
  5
9C
100
AcDbEntity
  8
0
 62
256
370
-1
 48
1.0
  6
BYLAYER
100
AcDbCircle
 10
118.0572346536350778
 20
219.125
 30
0.0
 40
1.0
100
AcDbArc
 50
89.868757808235074
 51
270.0
  0
ARC
  5
9D
100
AcDbEntity
  8
0
 62
256
370
-1
 48
1.0
  6
BYLAYER
100
AcDbCircle
 10
82.2193913774723342
 20
218.2477074769903993
 30
0.0
 40
1.0
100
AcDbArc
 50
269.8687578082351024
 51
90.0
  0
ARC
  5
9E
100
AcDbEntity
  8
0
 62
256
370
-1
 48
1.0
  6
BYLAYER
100
AcDbCircle
 10
87.0498895295011152
 20
115.1600891637843347
 30
0.0
 40
1.0
100
AcDbArc
 50
180.0
 51
5.0006445975589457
  0
ARC
  5
9F
100
AcDbEntity
  8
0
 62
256
370
-1
 48
1.0
  6
BYLAYER
100
AcDbCircle
 10
29.9947346536350707
 20
199.5
 30
0.0
 40
1.0
100
AcDbArc
 50
270.0
 51
95.0006445975589457
  0
ARC
  5
A0
100
AcDbEntity
  8
0
 62
256
370
-1
 48
1.0
  6
BYLAYER
100
AcDbCircle
 10
80.4693913774724479
 20
218.2477074769903993
 30
0.0
 40
1.0
100
AcDbArc
 50
90.0
 51
275.00064459755896
  0
ARC
  5
A1
100
AcDbEntity
  8
0
 62
256
370
-1
 48
1.0
  6
BYLAYER
100
AcDbCircle
 10
84.9617900311076255
 20
242.7892101306254347
 30
0.0
 40
1.0
100
AcDbArc
 50
179.868757808235074
 51
0.0
  0
ARC
  5
A2
100
AcDbEntity
  8
0
 62
256
370
-1
 48
1.0
  6
BYLAYER
100
AcDbCircle
 10
84.2398460311076178
 20
163.6565528233553835
 30
0.0
 40
1.0
100
AcDbArc
 50
359.8687578082351024
 51
180.0
  0
ARC
  5
A3
100
AcDbEntity
  8
0
 62
256
370
-1
 48
1.0
  6
BYLAYER
100
AcDbCircle
 10
87.0498895295011152
 20
116.9100891637843347
 30
0.0
 40
1.0
100
AcDbArc
 50
359.8687578082351024
 51
180.0
  0
ARC
  5
A4
100
AcDbEntity
  8
0
 62
256
370
-1
 48
1.0
  6
BYLAYER
100
AcDbCircle
 10
84.9617900311076255
 20
244.5392101306254347
 30
0.0
 40
1.0
100
AcDbArc
 50
0.0
 51
185.00064459755896
  0
ARC
  5
A5
100
AcDbEntity
  8
0
 62
256
370
-1
 48
1.0
  6
BYLAYER
100
AcDbCircle
 10
66.2147708508130108
 20
11.8849847452014501
 30
0.0
 40
1.0
100
AcDbArc
 50
179.868757808235074
 51
0.0
  0
ARC
  5
A6
100
AcDbEntity
  8
0
 62
256
370
-1
 48
1.0
  6
BYLAYER
100
AcDbCircle
 10
66.2147708508130108
 20
13.6349847452014501
 30
0.0
 40
1.0
100
AcDbArc
 50
0.0
 51
185.00064459755896
  0
ARC
  5
A7
100
AcDbEntity
  8
0
 62
256
370
-1
 48
1.0
  6
BYLAYER
100
AcDbCircle
 10
84.2398460311076178
 20
161.9065528233553835
 30
0.0
 40
1.0
100
AcDbArc
 50
180.0
 51
5.0006445975589457
  0
CIRCLE
  5
A8
100
AcDbEntity
100
AcDbCircle
  8
0
 62
256
370
-1
 48
1.0
  6
BYLAYER
 10
158.2361059676113655
 20
180.9788006270765379
 30
0.0
 40
1.375
  0
CIRCLE
  5
A9
100
AcDbEntity
100
AcDbCircle
  8
0
 62
256
370
-1
 48
1.0
  6
BYLAYER
 10
65.8765007216610456
 20
74.3109289767115655
 30
0.0
 40
1.375
  0
CIRCLE
  5
AA
100
AcDbEntity
100
AcDbCircle
  8
0
 62
256
370
-1
 48
1.0
  6
BYLAYER
 10
41.5000000000001066
 20
181.0000000000000284
 30
0.0
 40
1.375
  0
CIRCLE
  5
AB
100
AcDbEntity
100
AcDbCircle
  8
0
 62
256
370
-1
 48
1.0
  6
BYLAYER
 10
131.3125000000001137
 20
200.625
 30
0.0
 40
1.375
  0
CIRCLE
  5
AC
100
AcDbEntity
100
AcDbCircle
  8
0
 62
256
370
-1
 48
1.0
  6
BYLAYER
 10
68.5498895295011152
 20
103.6548238174194125
 30
0.0
 40
1.375
  0
CIRCLE
  5
AD
100
AcDbEntity
100
AcDbCircle
  8
0
 62
256
370
-1
 48
1.0
  6
BYLAYER
 10
65.7398460311076178
 20
150.4012874769904613
 30
0.0
 40
1.375
  0
CIRCLE
  5
AE
100
AcDbEntity
100
AcDbCircle
  8
0
 62
256
370
-1
 48
1.0
  6
BYLAYER
 10
42.4947346536351844
 20
199.5000000000000284
 30
0.0
 40
1.0
  0
CIRCLE
  5
AF
100
AcDbEntity
100
AcDbCircle
  8
0
 62
256
370
-1
 48
1.0
  6
BYLAYER
 10
132.3072346536351915
 20
219.125
 30
0.0
 40
1.0
  0
CIRCLE
  5
B0
100
AcDbEntity
100
AcDbCircle
  8
0
 62
256
370
-1
 48
1.0
  6
BYLAYER
 10
132.3072346536351915
 20
219.125
 30
0.0
 40
1.0
  0
CIRCLE
  5
B1
100
AcDbEntity
100
AcDbCircle
  8
0
 62
256
370
-1
 48
1.0
  6
BYLAYER
 10
84.2398460311076178
 20
149.4065528233553835
 30
0.0
 40
1.0
  0
CIRCLE
  5
B2
100
AcDbEntity
100
AcDbCircle
  8
0
 62
256
370
-1
 48
1.0
  6
BYLAYER
 10
87.0498895295011152
 20
102.6600891637843347
 30
0.0
 40
1.0
  0
CIRCLE
  5
B3
100
AcDbEntity
100
AcDbCircle
  8
0
 62
256
370
-1
 48
1.0
  6
BYLAYER
 10
42.4947346536351844
 20
199.5000000000000284
 30
0.0
 40
1.0
  0
CIRCLE
  5
B4
100
AcDbEntity
100
AcDbCircle
  8
0
 62
256
370
-1
 48
1.0
  6
BYLAYER
 10
67.9693913774724479
 20
218.2477074769903993
 30
0.0
 40
1.0
  0
CIRCLE
  5
B5
100
AcDbEntity
100
AcDbCircle
  8
0
 62
256
370
-1
 48
1.0
  6
BYLAYER
 10
84.9617900311076255
 20
257.0392101306254062
 30
0.0
 40
1.0
  0
CIRCLE
  5
B6
100
AcDbEntity
100
AcDbCircle
  8
0
 62
256
370
-1
 48
1.0
  6
BYLAYER
 10
84.2398460311076178
 20
149.4065528233553835
 30
0.0
 40
1.0
  0
CIRCLE
  5
B7
100
AcDbEntity
100
AcDbCircle
  8
0
 62
256
370
-1
 48
1.0
  6
BYLAYER
 10
87.0498895295011152
 20
102.6600891637843347
 30
0.0
 40
1.0
  0
CIRCLE
  5
B8
100
AcDbEntity
100
AcDbCircle
  8
0
 62
256
370
-1
 48
1.0
  6
BYLAYER
 10
66.2147708508130108
 20
26.1349847452014501
 30
0.0
 40
1.0
  0
CIRCLE
  5
B9
100
AcDbEntity
100
AcDbCircle
  8
0
 62
256
370
-1
 48
1.0
  6
BYLAYER
 10
41.4999999999999929
 20
239.0
 30
0.0
 40
1.375
  0
CIRCLE
  5
BA
100
AcDbEntity
100
AcDbCircle
  8
0
 62
256
370
-1
 48
1.0
  6
BYLAYER
 10
126.5498895295011152
 20
103.6548238174194694
 30
0.0
 40
1.375
  0
CIRCLE
  5
BB
100
AcDbEntity
100
AcDbCircle
  8
0
 62
256
370
-1
 48
1.0
  6
BYLAYER
 10
131.3125
 20
258.625
 30
0.0
 40
1.375
  0
CIRCLE
  5
BC
100
AcDbEntity
100
AcDbCircle
  8
0
 62
256
370
-1
 48
1.0
  6
BYLAYER
 10
123.7398460311076178
 20
150.4012874769905181
 30
0.0
 40
1.375
  0
CIRCLE
  5
BD
100
AcDbEntity
100
AcDbCircle
  8
0
 62
256
370
-1
 48
1.0
  6
BYLAYER
 10
87.0498895295011152
 20
102.6548238174194694
 30
0.0
 40
1.0
  0
CIRCLE
  5
BE
100
AcDbEntity
100
AcDbCircle
  8
0
 62
256
370
-1
 48
1.0
  6
BYLAYER
 10
87.0498895295011152
 20
102.6548238174194694
 30
0.0
 40
1.0
  0
CIRCLE
  5
BF
100
AcDbEntity
100
AcDbCircle
  8
0
 62
256
370
-1
 48
1.0
  6
BYLAYER
 10
132.3125000000001137
 20
219.125
 30
0.0
 40
1.0
  0
CIRCLE
  5
C0
100
AcDbEntity
100
AcDbCircle
  8
0
 62
256
370
-1
 48
1.0
  6
BYLAYER
 10
132.3125000000001137
 20
219.125
 30
0.0
 40
1.0
  0
CIRCLE
  5
C1
100
AcDbEntity
100
AcDbCircle
  8
0
 62
256
370
-1
 48
1.0
  6
BYLAYER
 10
84.2398460311076178
 20
149.4012874769905181
 30
0.0
 40
1.0
  0
CIRCLE
  5
C2
100
AcDbEntity
100
AcDbCircle
  8
0
 62
256
370
-1
 48
1.0
  6
BYLAYER
 10
84.9617900311076255
 20
257.0444754769903284
 30
0.0
 40
1.0
  0
CIRCLE
  5
C3
100
AcDbEntity
100
AcDbCircle
  8
0
 62
256
370
-1
 48
1.0
  6
BYLAYER
 10
42.4999999999999929
 20
199.5
 30
0.0
 40
1.0
  0
CIRCLE
  5
C4
100
AcDbEntity
100
AcDbCircle
  8
0
 62
256
370
-1
 48
1.0
  6
BYLAYER
 10
42.4999999999999929
 20
199.5
 30
0.0
 40
1.0
  0
CIRCLE
  5
C5
100
AcDbEntity
100
AcDbCircle
  8
0
 62
256
370
-1
 48
1.0
  6
BYLAYER
 10
67.9641260311075257
 20
218.2477074769903993
 30
0.0
 40
1.0
  0
CIRCLE
  5
C6
100
AcDbEntity
100
AcDbCircle
  8
0
 62
256
370
-1
 48
1.0
  6
BYLAYER
 10
84.2398460311076178
 20
149.4012874769905181
 30
0.0
 40
1.0
  0
LINE
  5
C7
100
AcDbEntity
100
AcDbLine
  8
0
 62
256
370
-1
 48
1.0
  6
BYLAYER
 10
89.9641260311076394
 20
195.2477074769903993
 30
0.0
 11
89.9641260311077531
 21
220.2477074769903993
 31
0.0
  0
LINE
  5
C8
100
AcDbEntity
100
AcDbLine
  8
0
 62
256
370
-1
 48
1.0
  6
BYLAYER
 10
61.9617900311076184
 20
235.0444754769903
 30
0.0
 11
86.9617900311076255
 21
235.0444754769903
 31
0.0
  0
LINE
  5
C9
100
AcDbEntity
100
AcDbLine
  8
0
 62
256
370
-1
 48
1.0
  6
BYLAYER
 10
85.9641260311075257
 20
224.2477074769903993
 30
0.0
 11
61.9641260311075186
 21
224.2477074769903993
 31
0.0
  0
LINE
  5
CA
100
AcDbEntity
100
AcDbLine
  8
0
 62
256
370
-1
 48
1.0
  6
BYLAYER
 10
90.9617900311076255
 20
239.0444754769903
 30
0.0
 11
90.9617900311076255
 21
263.0444754769903284
 31
0.0
  0
LINE
  5
CB
100
AcDbEntity
100
AcDbLine
  8
0
 62
256
370
-1
 48
1.0
  6
BYLAYER
 10
57.9641260311075186
 20
220.2477074769903993
 30
0.0
 11
57.9641260311075186
 21
195.2477074769903993
 31
0.0
  0
LINE
  5
CC
100
AcDbEntity
100
AcDbLine
  8
0
 62
256
370
-1
 48
1.0
  6
BYLAYER
 10
86.9617900311076255
 20
267.0444754769903284
 30
0.0
 11
61.9617900311076184
 21
267.0444754769903284
 31
0.0
  0
LINE
  5
CD
100
AcDbEntity
100
AcDbLine
  8
0
 62
256
370
-1
 48
1.0
  6
BYLAYER
 10
61.9641260311075186
 20
191.2477074769903993
 30
0.0
 11
85.9641260311076394
 21
191.2477074769903993
 31
0.0
  0
LINE
  5
CE
100
AcDbEntity
100
AcDbLine
  8
0
 62
256
370
-1
 48
1.0
  6
BYLAYER
 10
57.9617900311076184
 20
263.0444754769903284
 30
0.0
 11
57.9617900311076184
 21
239.0444754769903
 31
0.0
  0
LINE
  5
CF
100
AcDbEntity
100
AcDbLine
  8
0
 62
256
370
-1
 48
1.0
  6
BYLAYER
 10
84.9641260311075257
 20
203.2477074769903993
 30
0.0
 11
84.9641260311076394
 21
212.2477074769903993
 31
0.0
  0
LINE
  5
D0
100
AcDbEntity
100
AcDbLine
  8
0
 62
256
370
-1
 48
1.0
  6
BYLAYER
 10
115.3125
 20
234.1249999999999432
 30
0.0
 11
115.3125
 21
225.125
 31
0.0
  0
LINE
  5
D1
100
AcDbEntity
100
AcDbLine
  8
0
 62
256
370
-1
 48
1.0
  6
BYLAYER
 10
102.0498895295011152
 20
119.6548238174194694
 30
0.0
 11
93.0498895295011152
 21
119.6548238174194694
 31
0.0
  0
LINE
  5
D2
100
AcDbEntity
100
AcDbLine
  8
0
 62
256
370
-1
 48
1.0
  6
BYLAYER
 10
99.2398460311076178
 20
166.4012874769905181
 30
0.0
 11
90.2398460311076178
 21
166.4012874769905181
 31
0.0
  0
LINE
  5
D3
100
AcDbEntity
100
AcDbLine
  8
0
 62
256
370
-1
 48
1.0
  6
BYLAYER
 10
69.9617900311076255
 20
240.0444754769903
 30
0.0
 11
78.9617900311076255
 21
240.0444754769903
 31
0.0
  0
LINE
  5
D4
100
AcDbEntity
100
AcDbLine
  8
0
 62
256
370
-1
 48
1.0
  6
BYLAYER
 10
25.4999999999999929
 20
214.4999999999999716
 30
0.0
 11
25.4999999999999929
 21
205.5000000000000284
 31
0.0
  0
LINE
  5
D5
100
AcDbEntity
100
AcDbLine
  8
0
 62
256
370
-1
 48
1.0
  6
BYLAYER
 10
142.1355964508127272
 20
26.9352425767115733
 30
0.0
 11
133.1355964508127272
 21
26.9352425767115733
 31
0.0
  0
LINE
  5
D6
100
AcDbEntity
100
AcDbLine
  8
0
 62
256
370
-1
 48
1.0
  6
BYLAYER
 10
99.2398460311076178
 20
166.4012874769905181
 30
0.0
 11
90.2398460311076178
 21
166.4012874769905181
 31
0.0
  0
LINE
  5
D7
100
AcDbEntity
100
AcDbLine
  8
0
 62
256
370
-1
 48
1.0
  6
BYLAYER
 10
25.4999999999999929
 20
214.4999999999999716
 30
0.0
 11
25.4999999999999929
 21
205.5000000000000284
 31
0.0
  0
LINE
  5
D8
100
AcDbEntity
100
AcDbLine
  8
0
 62
256
370
-1
 48
1.0
  6
BYLAYER
 10
115.3125
 20
234.1249999999999432
 30
0.0
 11
115.3125
 21
225.125
 31
0.0
  0
LINE
  5
D9
100
AcDbEntity
100
AcDbLine
  8
0
 62
256
370
-1
 48
1.0
  6
BYLAYER
 10
84.9641260311075257
 20
203.2477074769903993
 30
0.0
 11
84.9641260311076394
 21
212.2477074769903993
 31
0.0
  0
LINE
  5
DA
100
AcDbEntity
100
AcDbLine
  8
0
 62
256
370
-1
 48
1.0
  6
BYLAYER
 10
102.0498895295011152
 20
119.6548238174194694
 30
0.0
 11
93.0498895295011152
 21
119.6548238174194694
 31
0.0
  0
LINE
  5
DB
100
AcDbEntity
100
AcDbLine
  8
0
 62
256
370
-1
 48
1.0
  6
BYLAYER
 10
69.9617900311076255
 20
240.0444754769903
 30
0.0
 11
78.9617900311076255
 21
240.0444754769903
 31
0.0
  0
LINE
  5
DC
100
AcDbEntity
100
AcDbLine
  8
0
 62
256
370
-1
 48
1.0
  6
BYLAYER
 10
142.1355964508127272
 20
26.9352425767115733
 30
0.0
 11
133.1355964508127272
 21
26.9352425767115733
 31
0.0
  0
LINE
  5
DD
100
AcDbEntity
100
AcDbLine
  8
0
 62
256
370
-1
 48
1.0
  6
BYLAYER
 10
115.3125
 20
225.125
 30
0.0
 11
124.3125
 21
225.125
 31
0.0
  0
LINE
  5
DE
100
AcDbEntity
100
AcDbLine
  8
0
 62
256
370
-1
 48
1.0
  6
BYLAYER
 10
78.9617900311076255
 20
240.0444754769903
 30
0.0
 11
78.9617900311076255
 21
249.0444754769903284
 31
0.0
  0
LINE
  5
DF
100
AcDbEntity
100
AcDbLine
  8
0
 62
256
370
-1
 48
1.0
  6
BYLAYER
 10
93.0498895295011152
 20
119.6548238174194694
 30
0.0
 11
93.0498895295011152
 21
110.6548238174194694
 31
0.0
  0
LINE
  5
E0
100
AcDbEntity
100
AcDbLine
  8
0
 62
256
370
-1
 48
1.0
  6
BYLAYER
 10
25.4999999999999929
 20
205.5000000000000284
 30
0.0
 11
34.4999999999999929
 21
205.5
 31
0.0
  0
LINE
  5
E1
100
AcDbEntity
100
AcDbLine
  8
0
 62
256
370
-1
 48
1.0
  6
BYLAYER
 10
90.2398460311076178
 20
166.4012874769905181
 30
0.0
 11
90.2398460311076178
 21
157.4012874769905181
 31
0.0
  0
LINE
  5
E2
100
AcDbEntity
100
AcDbLine
  8
0
 62
256
370
-1
 48
1.0
  6
BYLAYER
 10
84.9641260311076394
 20
212.2477074769903993
 30
0.0
 11
75.9641260311075257
 21
212.2477074769903993
 31
0.0
  0
LINE
  5
E3
100
AcDbEntity
100
AcDbLine
  8
0
 62
256
370
-1
 48
1.0
  6
BYLAYER
 10
133.1355964508127272
 20
26.9352425767115733
 30
0.0
 11
133.1355964508127272
 21
17.9352425767115733
 31
0.0
  0
LINE
  5
E4
100
AcDbEntity
100
AcDbLine
  8
0
 62
256
370
-1
 48
1.0
  6
BYLAYER
 10
115.3125
 20
225.125
 30
0.0
 11
124.3125
 21
225.0925576723450945
 31
0.0
  0
LINE
  5
E5
100
AcDbEntity
100
AcDbLine
  8
0
 62
256
370
-1
 48
1.0
  6
BYLAYER
 10
78.9617900311076255
 20
240.0444754769903
 30
0.0
 11
78.9942323587625879
 21
249.0444754769903284
 31
0.0
  0
LINE
  5
E6
100
AcDbEntity
100
AcDbLine
  8
0
 62
256
370
-1
 48
1.0
  6
BYLAYER
 10
25.4999999999999929
 20
205.5000000000000284
 30
0.0
 11
34.4999999999999929
 21
205.4675576723450945
 31
0.0
  0
LINE
  5
E7
100
AcDbEntity
100
AcDbLine
  8
0
 62
256
370
-1
 48
1.0
  6
BYLAYER
 10
93.0498895295011152
 20
119.6548238174194694
 30
0.0
 11
93.0174472018461529
 21
110.6548238174194694
 31
0.0
  0
LINE
  5
E8
100
AcDbEntity
100
AcDbLine
  8
0
 62
256
370
-1
 48
1.0
  6
BYLAYER
 10
90.2398460311076178
 20
166.4012874769905181
 30
0.0
 11
90.2074037034526555
 21
157.4012874769905181
 31
0.0
  0
LINE
  5
E9
100
AcDbEntity
100
AcDbLine
  8
0
 62
256
370
-1
 48
1.0
  6
BYLAYER
 10
133.1355964508127272
 20
26.9352425767115733
 30
0.0
 11
133.1031541231578785
 21
17.9352425767115733
 31
0.0
  0
LINE
  5
EA
100
AcDbEntity
100
AcDbLine
  8
0
 62
256
370
-1
 48
1.0
  6
BYLAYER
 10
84.9641260311076394
 20
212.2477074769903993
 30
0.0
 11
75.9641260311076394
 21
212.2801498046453048
 31
0.0
  0
LINE
  5
EB
100
AcDbEntity
100
AcDbLine
  8
0
 62
256
370
-1
 48
1.0
  6
BYLAYER
 10
75.9641260311075257
 20
203.2477074769903993
 30
0.0
 11
84.9641260311075257
 21
203.2477074769903993
 31
0.0
  0
LINE
  5
EC
100
AcDbEntity
100
AcDbLine
  8
0
 62
256
370
-1
 48
1.0
  6
BYLAYER
 10
124.3125
 20
234.1250000000000568
 30
0.0
 11
115.3125
 21
234.1249999999999432
 31
0.0
  0
LINE
  5
ED
100
AcDbEntity
100
AcDbLine
  8
0
 62
256
370
-1
 48
1.0
  6
BYLAYER
 10
102.0498895295011152
 20
110.6548238174194694
 30
0.0
 11
102.0498895295011152
 21
119.6548238174194694
 31
0.0
  0
LINE
  5
EE
100
AcDbEntity
100
AcDbLine
  8
0
 62
256
370
-1
 48
1.0
  6
BYLAYER
 10
99.2398460311076178
 20
157.4012874769905181
 30
0.0
 11
99.2398460311076178
 21
166.4012874769905181
 31
0.0
  0
LINE
  5
EF
100
AcDbEntity
100
AcDbLine
  8
0
 62
256
370
-1
 48
1.0
  6
BYLAYER
 10
69.9617900311076255
 20
249.0444754769903284
 30
0.0
 11
69.9617900311076255
 21
240.0444754769903
 31
0.0
  0
LINE
  5
F0
100
AcDbEntity
100
AcDbLine
  8
0
 62
256
370
-1
 48
1.0
  6
BYLAYER
 10
34.4999999999999929
 20
214.5000000000000568
 30
0.0
 11
25.4999999999999929
 21
214.4999999999999716
 31
0.0
  0
LINE
  5
F1
100
AcDbEntity
100
AcDbLine
  8
0
 62
256
370
-1
 48
1.0
  6
BYLAYER
 10
142.1355964508127272
 20
17.9352425767115733
 30
0.0
 11
142.1355964508127272
 21
26.9352425767115733
 31
0.0
  0
LINE
  5
F2
100
AcDbEntity
100
AcDbLine
  8
0
 62
256
370
-1
 48
1.0
  6
BYLAYER
 10
124.3125
 20
234.0925576723450945
 30
0.0
 11
115.3125
 21
234.1249999999999432
 31
0.0
  0
LINE
  5
F3
100
AcDbEntity
100
AcDbLine
  8
0
 62
256
370
-1
 48
1.0
  6
BYLAYER
 10
75.964126031107412
 20
203.2801498046453048
 30
0.0
 11
84.9641260311075257
 21
203.2477074769903993
 31
0.0
  0
LINE
  5
F4
100
AcDbEntity
100
AcDbLine
  8
0
 62
256
370
-1
 48
1.0
  6
BYLAYER
 10
102.0174472018461529
 20
110.6548238174194694
 30
0.0
 11
102.0498895295011152
 21
119.6548238174194694
 31
0.0
  0
LINE
  5
F5
100
AcDbEntity
100
AcDbLine
  8
0
 62
256
370
-1
 48
1.0
  6
BYLAYER
 10
69.9942323587625879
 20
249.0444754769903284
 30
0.0
 11
69.9617900311076255
 21
240.0444754769903
 31
0.0
  0
LINE
  5
F6
100
AcDbEntity
100
AcDbLine
  8
0
 62
256
370
-1
 48
1.0
  6
BYLAYER
 10
99.2074037034526555
 20
157.4012874769905181
 30
0.0
 11
99.2398460311076178
 21
166.4012874769905181
 31
0.0
  0
LINE
  5
F7
100
AcDbEntity
100
AcDbLine
  8
0
 62
256
370
-1
 48
1.0
  6
BYLAYER
 10
34.4999999999999929
 20
214.4675576723451229
 30
0.0
 11
25.4999999999999929
 21
214.4999999999999716
 31
0.0
  0
LINE
  5
F8
100
AcDbEntity
100
AcDbLine
  8
0
 62
256
370
-1
 48
1.0
  6
BYLAYER
 10
142.1031541231578785
 20
17.9352425767115733
 30
0.0
 11
142.1355964508127272
 21
26.9352425767115733
 31
0.0
  0
LINE
  5
F9
100
AcDbEntity
100
AcDbLine
  8
0
 62
256
370
-1
 48
1.0
  6
BYLAYER
 10
124.3125
 20
225.0925576723450376
 30
0.0
 11
124.3124999999998863
 21
224.1249999999999432
 31
0.0
  0
LINE
  5
FA
100
AcDbEntity
100
AcDbLine
  8
0
 62
256
370
-1
 48
1.0
  6
BYLAYER
 10
124.3125
 20
236.125
 30
0.0
 11
124.3125
 21
234.0925576723450945
 31
0.0
  0
LINE
  5
FB
100
AcDbEntity
100
AcDbLine
  8
0
 62
256
370
-1
 48
1.0
  6
BYLAYER
 10
34.4999999999999929
 20
216.5
 30
0.0
 11
34.4999999999999929
 21
214.4675576723451229
 31
0.0
  0
LINE
  5
FC
100
AcDbEntity
100
AcDbLine
  8
0
 62
256
370
-1
 48
1.0
  6
BYLAYER
 10
34.4999999999999929
 20
205.4675576723450376
 30
0.0
 11
34.4999999999999929
 21
204.5000000000000284
 31
0.0
  0
LINE
  5
FD
100
AcDbEntity
100
AcDbLine
  8
0
 62
256
370
-1
 48
1.0
  6
BYLAYER
 10
93.0174472018461529
 20
110.6548238174194694
 30
0.0
 11
92.0498895295011152
 21
110.6548238174194694
 31
0.0
  0
LINE
  5
FE
100
AcDbEntity
100
AcDbLine
  8
0
 62
256
370
-1
 48
1.0
  6
BYLAYER
 10
104.0498895295011152
 20
110.6548238174194694
 30
0.0
 11
102.0174472018461529
 21
110.6548238174194694
 31
0.0
  0
LINE
  5
FF
100
AcDbEntity
100
AcDbLine
  8
0
 62
256
370
-1
 48
1.0
  6
BYLAYER
 10
75.9641260311075257
 20
201.2477074769904561
 30
0.0
 11
75.964126031107412
 21
203.2801498046453048
 31
0.0
  0
LINE
  5
100
100
AcDbEntity
100
AcDbLine
  8
0
 62
256
370
-1
 48
1.0
  6
BYLAYER
 10
75.9641260311076394
 20
212.2801498046453617
 30
0.0
 11
75.9641260311075257
 21
213.2477074769903993
 31
0.0
  0
LINE
  5
101
100
AcDbEntity
100
AcDbLine
  8
0
 62
256
370
-1
 48
1.0
  6
BYLAYER
 10
101.2398460311076178
 20
157.4012874769905181
 30
0.0
 11
99.2074037034526555
 21
157.4012874769905181
 31
0.0
  0
LINE
  5
102
100
AcDbEntity
100
AcDbLine
  8
0
 62
256
370
-1
 48
1.0
  6
BYLAYER
 10
90.2074037034526555
 20
157.4012874769905181
 30
0.0
 11
89.2398460311076178
 21
157.4012874769905181
 31
0.0
  0
LINE
  5
103
100
AcDbEntity
100
AcDbLine
  8
0
 62
256
370
-1
 48
1.0
  6
BYLAYER
 10
78.9942323587625879
 20
249.0444754769903284
 30
0.0
 11
79.9617900311076255
 21
249.0444754769903284
 31
0.0
  0
LINE
  5
104
100
AcDbEntity
100
AcDbLine
  8
0
 62
256
370
-1
 48
1.0
  6
BYLAYER
 10
67.9617900311076255
 20
249.0444754769903284
 30
0.0
 11
69.9942323587625879
 21
249.0444754769903284
 31
0.0
  0
LINE
  5
105
100
AcDbEntity
100
AcDbLine
  8
0
 62
256
370
-1
 48
1.0
  6
BYLAYER
 10
144.1355964508127272
 20
17.9352425767115733
 30
0.0
 11
142.1031541231578785
 21
17.9352425767115733
 31
0.0
  0
LINE
  5
106
100
AcDbEntity
100
AcDbLine
  8
0
 62
256
370
-1
 48
1.0
  6
BYLAYER
 10
133.1031541231577648
 20
17.9352425767115733
 30
0.0
 11
132.1355964508127272
 21
17.9352425767115733
 31
0.0
  0
LINE
  5
107
100
AcDbEntity
100
AcDbLine
  8
0
 62
256
370
-1
 48
1.0
  6
BYLAYER
 10
124.3124999999998863
 20
224.1249999999999432
 30
0.0
 11
131.3125
 21
224.1250000000000568
 31
0.0
  0
LINE
  5
108
100
AcDbEntity
100
AcDbLine
  8
0
 62
256
370
-1
 48
1.0
  6
BYLAYER
 10
34.4999999999999929
 20
204.5000000000000284
 30
0.0
 11
41.4999999999999929
 21
204.5
 31
0.0
  0
LINE
  5
109
100
AcDbEntity
100
AcDbLine
  8
0
 62
256
370
-1
 48
1.0
  6
BYLAYER
 10
92.0498895295011152
 20
110.6548238174194694
 30
0.0
 11
92.0498895295011152
 21
103.6548238174194694
 31
0.0
  0
LINE
  5
10A
100
AcDbEntity
100
AcDbLine
  8
0
 62
256
370
-1
 48
1.0
  6
BYLAYER
 10
75.9641260311075257
 20
213.2477074769903993
 30
0.0
 11
68.9641260311075257
 21
213.2477074769903993
 31
0.0
  0
LINE
  5
10B
100
AcDbEntity
100
AcDbLine
  8
0
 62
256
370
-1
 48
1.0
  6
BYLAYER
 10
89.2398460311076178
 20
157.4012874769905181
 30
0.0
 11
89.2398460311076178
 21
150.4012874769905181
 31
0.0
  0
LINE
  5
10C
100
AcDbEntity
100
AcDbLine
  8
0
 62
256
370
-1
 48
1.0
  6
BYLAYER
 10
79.9617900311076255
 20
249.0444754769903284
 30
0.0
 11
79.9617900311076255
 21
256.0444754769903284
 31
0.0
  0
LINE
  5
10D
100
AcDbEntity
100
AcDbLine
  8
0
 62
256
370
-1
 48
1.0
  6
BYLAYER
 10
132.1355964508127272
 20
17.9352425767115733
 30
0.0
 11
132.1355964508127272
 21
10.9352425767115733
 31
0.0
  0
LINE
  5
10E
100
AcDbEntity
100
AcDbLine
  8
0
 62
256
370
-1
 48
1.0
  6
BYLAYER
 10
124.3124999999998863
 20
224.1249999999999432
 30
0.0
 11
131.3125
 21
224.1250000000000568
 31
0.0
  0
LINE
  5
10F
100
AcDbEntity
100
AcDbLine
  8
0
 62
256
370
-1
 48
1.0
  6
BYLAYER
 10
75.9641260311075257
 20
213.2477074769903993
 30
0.0
 11
68.9641260311075257
 21
213.2477074769903993
 31
0.0
  0
LINE
  5
110
100
AcDbEntity
100
AcDbLine
  8
0
 62
256
370
-1
 48
1.0
  6
BYLAYER
 10
92.0498895295011152
 20
110.6548238174194694
 30
0.0
 11
92.0498895295011152
 21
103.6548238174194694
 31
0.0
  0
LINE
  5
111
100
AcDbEntity
100
AcDbLine
  8
0
 62
256
370
-1
 48
1.0
  6
BYLAYER
 10
79.9617900311076255
 20
249.0444754769903284
 30
0.0
 11
79.9617900311076255
 21
256.0444754769903284
 31
0.0
  0
LINE
  5
112
100
AcDbEntity
100
AcDbLine
  8
0
 62
256
370
-1
 48
1.0
  6
BYLAYER
 10
89.2398460311076178
 20
157.4012874769905181
 30
0.0
 11
89.2398460311076178
 21
150.4012874769905181
 31
0.0
  0
LINE
  5
113
100
AcDbEntity
100
AcDbLine
  8
0
 62
256
370
-1
 48
1.0
  6
BYLAYER
 10
34.4999999999999929
 20
204.5000000000000284
 30
0.0
 11
41.4999999999999929
 21
204.5
 31
0.0
  0
LINE
  5
114
100
AcDbEntity
100
AcDbLine
  8
0
 62
256
370
-1
 48
1.0
  6
BYLAYER
 10
132.1355964508127272
 20
17.9352425767115733
 30
0.0
 11
132.1355964508127272
 21
10.9352425767115733
 31
0.0
  0
LINE
  5
115
100
AcDbEntity
100
AcDbLine
  8
0
 62
256
370
-1
 48
1.0
  6
BYLAYER
 10
89.2398460311076178
 20
150.4012874769905181
 30
0.0
 11
101.2398460311076178
 21
150.4012874769905181
 31
0.0
  0
LINE
  5
116
100
AcDbEntity
100
AcDbLine
  8
0
 62
256
370
-1
 48
1.0
  6
BYLAYER
 10
79.9617900311076255
 20
256.0444754769903284
 30
0.0
 11
67.9617900311076255
 21
256.0444754769903284
 31
0.0
  0
LINE
  5
117
100
AcDbEntity
100
AcDbLine
  8
0
 62
256
370
-1
 48
1.0
  6
BYLAYER
 10
131.3125
 20
224.1250000000000568
 30
0.0
 11
131.3125
 21
236.125
 31
0.0
  0
LINE
  5
118
100
AcDbEntity
100
AcDbLine
  8
0
 62
256
370
-1
 48
1.0
  6
BYLAYER
 10
41.4999999999999929
 20
204.5
 30
0.0
 11
41.4999999999999929
 21
216.5
 31
0.0
  0
LINE
  5
119
100
AcDbEntity
100
AcDbLine
  8
0
 62
256
370
-1
 48
1.0
  6
BYLAYER
 10
92.0498895295011152
 20
103.6548238174194694
 30
0.0
 11
104.0498895295011152
 21
103.6548238174194694
 31
0.0
  0
LINE
  5
11A
100
AcDbEntity
100
AcDbLine
  8
0
 62
256
370
-1
 48
1.0
  6
BYLAYER
 10
68.9641260311075257
 20
213.2477074769903993
 30
0.0
 11
68.9641260311075257
 21
201.2477074769904561
 31
0.0
  0
LINE
  5
11B
100
AcDbEntity
100
AcDbLine
  8
0
 62
256
370
-1
 48
1.0
  6
BYLAYER
 10
132.1355964508127272
 20
10.9352425767115733
 30
0.0
 11
144.1355964508127272
 21
10.9352425767115733
 31
0.0
  0
LINE
  5
11C
100
AcDbEntity
100
AcDbLine
  8
0
 62
256
370
-1
 48
1.0
  6
BYLAYER
 10
131.3125
 20
224.1250000000000568
 30
0.0
 11
131.3125
 21
236.125
 31
0.0
  0
LINE
  5
11D
100
AcDbEntity
100
AcDbLine
  8
0
 62
256
370
-1
 48
1.0
  6
BYLAYER
 10
79.9617900311076255
 20
256.0444754769903284
 30
0.0
 11
67.9617900311076255
 21
256.0444754769903284
 31
0.0
  0
LINE
  5
11E
100
AcDbEntity
100
AcDbLine
  8
0
 62
256
370
-1
 48
1.0
  6
BYLAYER
 10
41.4999999999999929
 20
204.5
 30
0.0
 11
41.4999999999999929
 21
216.5
 31
0.0
  0
LINE
  5
11F
100
AcDbEntity
100
AcDbLine
  8
0
 62
256
370
-1
 48
1.0
  6
BYLAYER
 10
92.0498895295011152
 20
103.6548238174194694
 30
0.0
 11
104.0498895295011152
 21
103.6548238174194694
 31
0.0
  0
LINE
  5
120
100
AcDbEntity
100
AcDbLine
  8
0
 62
256
370
-1
 48
1.0
  6
BYLAYER
 10
89.2398460311076178
 20
150.4012874769905181
 30
0.0
 11
101.2398460311076178
 21
150.4012874769905181
 31
0.0
  0
LINE
  5
121
100
AcDbEntity
100
AcDbLine
  8
0
 62
256
370
-1
 48
1.0
  6
BYLAYER
 10
132.1355964508127272
 20
10.9352425767115733
 30
0.0
 11
144.1355964508127272
 21
10.9352425767115733
 31
0.0
  0
LINE
  5
122
100
AcDbEntity
100
AcDbLine
  8
0
 62
256
370
-1
 48
1.0
  6
BYLAYER
 10
68.9641260311075257
 20
213.2477074769903993
 30
0.0
 11
68.9641260311075257
 21
201.2477074769904561
 31
0.0
  0
LINE
  5
123
100
AcDbEntity
100
AcDbLine
  8
0
 62
256
370
-1
 48
1.0
  6
BYLAYER
 10
68.9641260311075257
 20
201.2477074769904561
 30
0.0
 11
75.9641260311075257
 21
201.2477074769904561
 31
0.0
  0
LINE
  5
124
100
AcDbEntity
100
AcDbLine
  8
0
 62
256
370
-1
 48
1.0
  6
BYLAYER
 10
131.3125
 20
236.125
 30
0.0
 11
124.3125
 21
236.125
 31
0.0
  0
LINE
  5
125
100
AcDbEntity
100
AcDbLine
  8
0
 62
256
370
-1
 48
1.0
  6
BYLAYER
 10
104.0498895295011152
 20
103.6548238174194694
 30
0.0
 11
104.0498895295011152
 21
110.6548238174194694
 31
0.0
  0
LINE
  5
126
100
AcDbEntity
100
AcDbLine
  8
0
 62
256
370
-1
 48
1.0
  6
BYLAYER
 10
101.2398460311076178
 20
150.4012874769905181
 30
0.0
 11
101.2398460311076178
 21
157.4012874769905181
 31
0.0
  0
LINE
  5
127
100
AcDbEntity
100
AcDbLine
  8
0
 62
256
370
-1
 48
1.0
  6
BYLAYER
 10
67.9617900311076255
 20
256.0444754769903284
 30
0.0
 11
67.9617900311076255
 21
249.0444754769903284
 31
0.0
  0
LINE
  5
128
100
AcDbEntity
100
AcDbLine
  8
0
 62
256
370
-1
 48
1.0
  6
BYLAYER
 10
41.4999999999999929
 20
216.5
 30
0.0
 11
34.4999999999999929
 21
216.5
 31
0.0
  0
LINE
  5
129
100
AcDbEntity
100
AcDbLine
  8
0
 62
256
370
-1
 48
1.0
  6
BYLAYER
 10
144.1355964508127272
 20
10.9352425767115733
 30
0.0
 11
144.1355964508127272
 21
17.9352425767115733
 31
0.0
  0
LINE
  5
12A
100
AcDbEntity
100
AcDbLine
  8
0
 62
256
370
-1
 48
1.0
  6
BYLAYER
 10
104.0498895295011152
 20
103.6548238174194694
 30
0.0
 11
104.0498895295011152
 21
110.6548238174194694
 31
0.0
  0
LINE
  5
12B
100
AcDbEntity
100
AcDbLine
  8
0
 62
256
370
-1
 48
1.0
  6
BYLAYER
 10
68.9641260311075257
 20
201.2477074769904561
 30
0.0
 11
75.9641260311075257
 21
201.2477074769904561
 31
0.0
  0
LINE
  5
12C
100
AcDbEntity
100
AcDbLine
  8
0
 62
256
370
-1
 48
1.0
  6
BYLAYER
 10
101.2398460311076178
 20
150.4012874769905181
 30
0.0
 11
101.2398460311076178
 21
157.4012874769905181
 31
0.0
  0
LINE
  5
12D
100
AcDbEntity
100
AcDbLine
  8
0
 62
256
370
-1
 48
1.0
  6
BYLAYER
 10
67.9617900311076255
 20
256.0444754769903284
 30
0.0
 11
67.9617900311076255
 21
249.0444754769903284
 31
0.0
  0
LINE
  5
12E
100
AcDbEntity
100
AcDbLine
  8
0
 62
256
370
-1
 48
1.0
  6
BYLAYER
 10
144.1355964508127272
 20
10.9352425767115733
 30
0.0
 11
144.1355964508127272
 21
17.9352425767115733
 31
0.0
  0
LINE
  5
12F
100
AcDbEntity
100
AcDbLine
  8
0
 62
256
370
-1
 48
1.0
  6
BYLAYER
 10
131.3125
 20
236.125
 30
0.0
 11
124.3125
 21
236.125
 31
0.0
  0
LINE
  5
130
100
AcDbEntity
100
AcDbLine
  8
0
 62
256
370
-1
 48
1.0
  6
BYLAYER
 10
41.4999999999999929
 20
216.5
 30
0.0
 11
34.4999999999999929
 21
216.5
 31
0.0
  0
ARC
  5
131
100
AcDbEntity
  8
0
 62
256
370
-1
 48
1.0
  6
BYLAYER
100
AcDbCircle
 10
145.0498895295011152
 20
115.1548238174194694
 30
0.0
 40
15.0
100
AcDbArc
 50
270.0
 51
0.0
  0
ARC
  5
132
100
AcDbEntity
  8
0
 62
256
370
-1
 48
1.0
  6
BYLAYER
100
AcDbCircle
 10
29.9999999999999929
 20
257.5
 30
0.0
 40
15.0
100
AcDbArc
 50
0.0
 51
90.0
  0
ARC
  5
133
100
AcDbEntity
  8
0
 62
256
370
-1
 48
1.0
  6
BYLAYER
100
AcDbCircle
 10
145.0498895295011152
 20
115.1548238174194694
 30
0.0
 40
15.0
100
AcDbArc
 50
0.0
 51
90.0
  0
ARC
  5
134
100
AcDbEntity
  8
0
 62
256
370
-1
 48
1.0
  6
BYLAYER
100
AcDbCircle
 10
29.9999999999999929
 20
257.5
 30
0.0
 40
15.0
100
AcDbArc
 50
90.0
 51
180.0
  0
ARC
  5
135
100
AcDbEntity
  8
0
 62
256
370
-1
 48
1.0
  6
BYLAYER
100
AcDbCircle
 10
50.0498895295011081
 20
115.1548238174194694
 30
0.0
 40
15.0
100
AcDbArc
 50
180.0
 51
270.0
  0
ARC
  5
136
100
AcDbEntity
  8
0
 62
256
370
-1
 48
1.0
  6
BYLAYER
100
AcDbCircle
 10
29.9999999999999929
 20
162.5
 30
0.0
 40
15.0
100
AcDbArc
 50
270.0
 51
0.0
  0
ARC
  5
137
100
AcDbEntity
  8
0
 62
256
370
-1
 48
1.0
  6
BYLAYER
100
AcDbCircle
 10
50.0498895295011081
 20
115.1548238174194694
 30
0.0
 40
15.0
100
AcDbArc
 50
90.0
 51
180.0
  0
ARC
  5
138
100
AcDbEntity
  8
0
 62
256
370
-1
 48
1.0
  6
BYLAYER
100
AcDbCircle
 10
29.9999999999999929
 20
162.5
 30
0.0
 40
15.0
100
AcDbArc
 50
180.0
 51
270.0
  0
ARC
  5
139
100
AcDbEntity
  8
0
 62
256
370
-1
 48
1.0
  6
BYLAYER
100
AcDbCircle
 10
145.0498895295011152
 20
115.1548238174194694
 30
0.0
 40
1.875
100
AcDbArc
 50
148.5760935141523191
 51
31.4239064858445616
  0
ARC
  5
13A
100
AcDbEntity
  8
0
 62
256
370
-1
 48
1.0
  6
BYLAYER
100
AcDbCircle
 10
29.9999999999999929
 20
257.5
 30
0.0
 40
1.875
100
AcDbArc
 50
238.5760935141523191
 51
121.4239064858445687
  0
ARC
  5
13B
100
AcDbEntity
  8
0
 62
256
370
-1
 48
1.0
  6
BYLAYER
100
AcDbCircle
 10
50.0498895295011081
 20
115.1548238174194694
 30
0.0
 40
1.875
100
AcDbArc
 50
148.5760935141523191
 51
31.4239064858445616
  0
ARC
  5
13C
100
AcDbEntity
  8
0
 62
256
370
-1
 48
1.0
  6
BYLAYER
100
AcDbCircle
 10
29.9999999999999929
 20
162.5
 30
0.0
 40
1.875
100
AcDbArc
 50
238.5760935141523191
 51
121.4239064858445687
  0
ARC
  5
13D
100
AcDbEntity
  8
0
 62
256
370
-1
 48
1.0
  6
BYLAYER
100
AcDbCircle
 10
145.0498895295011152
 20
122.4048238174194694
 30
0.0
 40
3.7000000000000002
100
AcDbArc
 50
295.6220277472430666
 51
244.377972252758866
  0
ARC
  5
13E
100
AcDbEntity
  8
0
 62
256
370
-1
 48
1.0
  6
BYLAYER
100
AcDbCircle
 10
22.7499999999999929
 20
257.5
 30
0.0
 40
3.7000000000000002
100
AcDbArc
 50
25.6220277472430631
 51
334.377972252758866
  0
ARC
  5
13F
100
AcDbEntity
  8
0
 62
256
370
-1
 48
1.0
  6
BYLAYER
100
AcDbCircle
 10
50.0498895295011081
 20
122.4048238174194694
 30
0.0
 40
3.7000000000000002
100
AcDbArc
 50
295.622027747241134
 51
244.3779722527568765
  0
ARC
  5
140
100
AcDbEntity
  8
0
 62
256
370
-1
 48
1.0
  6
BYLAYER
100
AcDbCircle
 10
22.7499999999999929
 20
162.5000000000000568
 30
0.0
 40
3.7000000000000002
100
AcDbArc
 50
25.6220277472411304
 51
334.3779722527568765
  0
LINE
  5
141
100
AcDbEntity
100
AcDbLine
  8
0
 62
256
370
-1
 48
1.0
  6
BYLAYER
 10
146.649889529501138
 20
116.0548238174194466
 30
0.0
 11
146.6498895295012517
 21
119.1548238174194694
 31
0.0
  0
LINE
  5
142
100
AcDbEntity
100
AcDbLine
  8
0
 62
256
370
-1
 48
1.0
  6
BYLAYER
 10
29.1000000000000156
 20
259.1000000000000227
 30
0.0
 11
25.9999999999999929
 21
259.1000000000000796
 31
0.0
  0
LINE
  5
143
100
AcDbEntity
100
AcDbLine
  8
0
 62
256
370
-1
 48
1.0
  6
BYLAYER
 10
51.6498895295011309
 20
116.0548238174194466
 30
0.0
 11
51.6498895295011309
 21
119.1548238174194694
 31
0.0
  0
LINE
  5
144
100
AcDbEntity
100
AcDbLine
  8
0
 62
256
370
-1
 48
1.0
  6
BYLAYER
 10
29.1000000000001293
 20
164.1000000000000796
 30
0.0
 11
25.9999999999999929
 21
164.1000000000000512
 31
0.0
  0
LINE
  5
145
100
AcDbEntity
100
AcDbLine
  8
0
 62
256
370
-1
 48
1.0
  6
BYLAYER
 10
149.7361059676113655
 20
173.9788006270765379
 30
0.0
 11
149.7361059676113655
 21
245.9788006270765379
 31
0.0
  0
LINE
  5
146
100
AcDbEntity
100
AcDbLine
  8
0
 62
256
370
-1
 48
1.0
  6
BYLAYER
 10
58.8765007216610385
 20
82.8109289767116223
 30
0.0
 11
130.8765007216610456
 21
82.8109289767116223
 31
0.0
  0
LINE
  5
147
100
AcDbEntity
100
AcDbLine
  8
0
 62
256
370
-1
 48
1.0
  6
BYLAYER
 10
134.8765007216610456
 20
78.8109289767116223
 30
0.0
 11
134.8765007216610456
 21
46.8109289767115939
 31
0.0
  0
LINE
  5
148
100
AcDbEntity
100
AcDbLine
  8
0
 62
256
370
-1
 48
1.0
  6
BYLAYER
 10
153.7361059676111381
 20
249.9788006270765663
 30
0.0
 11
185.7361059676113655
 21
249.9788006270765663
 31
0.0
  0
LINE
  5
149
100
AcDbEntity
100
AcDbLine
  8
0
 62
256
370
-1
 48
1.0
  6
BYLAYER
 10
143.4498895295012062
 20
116.0548238174194466
 30
0.0
 11
143.4498895295012062
 21
119.1548238174194694
 31
0.0
  0
LINE
  5
14A
100
AcDbEntity
100
AcDbLine
  8
0
 62
256
370
-1
 48
1.0
  6
BYLAYER
 10
29.1000000000001293
 20
255.9000000000000909
 30
0.0
 11
26.0000000000001066
 21
255.9000000000000909
 31
0.0
  0
LINE
  5
14B
100
AcDbEntity
100
AcDbLine
  8
0
 62
256
370
-1
 48
1.0
  6
BYLAYER
 10
48.4498895295011991
 20
116.0548238174194466
 30
0.0
 11
48.4498895295010854
 21
119.1548238174194694
 31
0.0
  0
LINE
  5
14C
100
AcDbEntity
100
AcDbLine
  8
0
 62
256
370
-1
 48
1.0
  6
BYLAYER
 10
29.1000000000000156
 20
160.9000000000000341
 30
0.0
 11
25.9999999999999929
 21
160.8999999999999488
 31
0.0
  0
LINE
  5
14D
100
AcDbEntity
100
AcDbLine
  8
0
 62
256
370
-1
 48
1.0
  6
BYLAYER
 10
189.7361059676113655
 20
245.9788006270765379
 30
0.0
 11
189.7361059676109107
 21
173.9788006270765379
 31
0.0
  0
LINE
  5
14E
100
AcDbEntity
100
AcDbLine
  8
0
 62
256
370
-1
 48
1.0
  6
BYLAYER
 10
130.8765007216610456
 20
42.8109289767115939
 30
0.0
 11
58.8765007216610385
 21
42.8109289767115939
 31
0.0
  0
LINE
  5
14F
100
AcDbEntity
100
AcDbLine
  8
0
 62
256
370
-1
 48
1.0
  6
BYLAYER
 10
103.3125
 20
265.0
 30
0.0
 11
103.3125
 21
195.0000000000000568
 31
0.0
  0
LINE
  5
150
100
AcDbEntity
100
AcDbLine
  8
0
 62
256
370
-1
 48
1.0
  6
BYLAYER
 10
130.1148460311076178
 20
178.4012874769905181
 30
0.0
 11
60.1148460311076107
 21
178.4012874769905181
 31
0.0
  0
LINE
  5
151
100
AcDbEntity
100
AcDbLine
  8
0
 62
256
370
-1
 48
1.0
  6
BYLAYER
 10
108.3125
 20
190.0
 30
0.0
 11
131.6875
 21
190.0
 31
0.0
  0
LINE
  5
152
100
AcDbEntity
100
AcDbLine
  8
0
 62
256
370
-1
 48
1.0
  6
BYLAYER
 10
55.1148460311076107
 20
173.4012874769905181
 30
0.0
 11
55.1148460311076107
 21
150.0262874769905181
 31
0.0
  0
LINE
  5
153
100
AcDbEntity
100
AcDbLine
  8
0
 62
256
370
-1
 48
1.0
  6
BYLAYER
 10
189.7361059676113655
 20
169.9788006270765379
 30
0.0
 11
149.7361059676113655
 21
169.9788006270765379
 31
0.0
  0
LINE
  5
154
100
AcDbEntity
100
AcDbLine
  8
0
 62
256
370
-1
 48
1.0
  6
BYLAYER
 10
54.8765007216610385
 20
42.8109289767115939
 30
0.0
 11
54.8765007216610385
 21
82.8109289767116223
 31
0.0
  0
LINE
  5
155
100
AcDbEntity
100
AcDbLine
  8
0
 62
256
370
-1
 48
1.0
  6
BYLAYER
 10
136.6875
 20
195.0
 30
0.0
 11
136.6875
 21
265.0
 31
0.0
  0
LINE
  5
156
100
AcDbEntity
100
AcDbLine
  8
0
 62
256
370
-1
 48
1.0
  6
BYLAYER
 10
60.1148460311076107
 20
145.0262874769905181
 30
0.0
 11
130.1148460311076178
 21
145.0262874769905181
 31
0.0
  0
LINE
  5
157
100
AcDbEntity
100
AcDbLine
  8
0
 62
256
370
-1
 48
1.0
  6
BYLAYER
 10
131.6875000000001137
 20
270.0
 30
0.0
 11
108.3125
 21
270.0
 31
0.0
  0
LINE
  5
158
100
AcDbEntity
100
AcDbLine
  8
0
 62
256
370
-1
 48
1.0
  6
BYLAYER
 10
135.1148460311076178
 20
150.0262874769905181
 30
0.0
 11
135.1148460311076178
 21
173.4012874769905181
 31
0.0
  0
LINE
  5
159
100
AcDbEntity
100
AcDbLine
  8
0
 62
256
370
-1
 48
1.0
  6
BYLAYER
 10
149.7361059676111381
 20
249.9788006270765663
 30
0.0
 11
149.7361059676113655
 21
169.9788006270765379
 31
0.0
  0
LINE
  5
15A
100
AcDbEntity
100
AcDbLine
  8
0
 62
256
370
-1
 48
1.0
  6
BYLAYER
 10
134.8765007216610456
 20
82.8109289767116223
 30
0.0
 11
54.8765007216610385
 21
82.8109289767116223
 31
0.0
  0
ARC
  5
15B
100
AcDbEntity
  8
0
 62
256
370
-1
 48
1.0
  6
BYLAYER
100
AcDbCircle
 10
131.6875
 20
265.0
 30
0.0
 40
5.0
100
AcDbArc
 50
0.0
 51
90.0
  0
ARC
  5
15C
100
AcDbEntity
  8
0
 62
256
370
-1
 48
1.0
  6
BYLAYER
100
AcDbCircle
 10
130.1148460311076178
 20
150.0262874769905181
 30
0.0
 40
5.0
100
AcDbArc
 50
270.0
 51
0.0
  0
ARC
  5
15D
100
AcDbEntity
  8
0
 62
256
370
-1
 48
1.0
  6
BYLAYER
100
AcDbCircle
 10
108.3125
 20
265.0
 30
0.0
 40
5.0
100
AcDbArc
 50
90.0
 51
180.0
  0
ARC
  5
15E
100
AcDbEntity
  8
0
 62
256
370
-1
 48
1.0
  6
BYLAYER
100
AcDbCircle
 10
130.1148460311076178
 20
173.4012874769905181
 30
0.0
 40
5.0
100
AcDbArc
 50
0.0
 51
90.0
  0
ARC
  5
15F
100
AcDbEntity
  8
0
 62
256
370
-1
 48
1.0
  6
BYLAYER
100
AcDbCircle
 10
108.3125
 20
195.0
 30
0.0
 40
5.0
100
AcDbArc
 50
180.0
 51
270.0
  0
ARC
  5
160
100
AcDbEntity
  8
0
 62
256
370
-1
 48
1.0
  6
BYLAYER
100
AcDbCircle
 10
61.9617900311076184
 20
263.0444754769903284
 30
0.0
 40
4.0
100
AcDbArc
 50
90.0
 51
180.0
  0
ARC
  5
161
100
AcDbEntity
  8
0
 62
256
370
-1
 48
1.0
  6
BYLAYER
100
AcDbCircle
 10
61.9641260311075186
 20
195.2477074769904561
 30
0.0
 40
4.0
100
AcDbArc
 50
180.0
 51
270.0
  0
ARC
  5
162
100
AcDbEntity
  8
0
 62
256
370
-1
 48
1.0
  6
BYLAYER
100
AcDbCircle
 10
60.1148460311076107
 20
173.4012874769905181
 30
0.0
 40
5.0
100
AcDbArc
 50
90.0
 51
180.0
  0
ARC
  5
163
100
AcDbEntity
  8
0
 62
256
370
-1
 48
1.0
  6
BYLAYER
100
AcDbCircle
 10
86.9617900311076255
 20
263.0444754769903284
 30
0.0
 40
4.0
100
AcDbArc
 50
0.0
 51
90.0
  0
ARC
  5
164
100
AcDbEntity
  8
0
 62
256
370
-1
 48
1.0
  6
BYLAYER
100
AcDbCircle
 10
61.9641260311075186
 20
220.2477074769903993
 30
0.0
 40
4.0
100
AcDbArc
 50
90.0
 51
180.0
  0
LINE
  5
165
100
AcDbEntity
100
AcDbLine
  8
0
 62
256
370
-1
 48
1.0
  6
BYLAYER
 10
38.8765007216610385
 20
37.8109289767115939
 30
0.0
 11
150.8765007216610456
 21
37.8109289767115939
 31
0.0
  0
LINE
  5
166
100
AcDbEntity
100
AcDbLine
  8
0
 62
256
370
-1
 48
1.0
  6
BYLAYER
 10
194.7361059676109107
 20
153.9788006270765379
 30
0.0
 11
194.7361059676102286
 21
265.9788006270765663
 31
0.0
  0
ARC
  5
167
100
AcDbEntity
  8
0
 62
256
370
-1
 48
1.0
  6
BYLAYER
100
AcDbCircle
 10
131.6875
 20
195.0000000000000568
 30
0.0
 40
5.0
100
AcDbArc
 50
270.0
 51
0.0
  0
ARC
  5
168
100
AcDbEntity
  8
0
 62
256
370
-1
 48
1.0
  6
BYLAYER
100
AcDbCircle
 10
60.1148460311076107
 20
150.0262874769905181
 30
0.0
 40
5.0
100
AcDbArc
 50
180.0
 51
270.0
  0
ARC
  5
169
100
AcDbEntity
  8
0
 62
256
370
-1
 48
1.0
  6
BYLAYER
100
AcDbCircle
 10
61.9617900311076184
 20
239.0444754769903
 30
0.0
 40
4.0
100
AcDbArc
 50
180.0
 51
270.0
  0
ARC
  5
16A
100
AcDbEntity
  8
0
 62
256
370
-1
 48
1.0
  6
BYLAYER
100
AcDbCircle
 10
85.9641260311075257
 20
195.2477074769903993
 30
0.0
 40
4.0
100
AcDbArc
 50
270.0
 51
0.0
  0
ARC
  5
16B
100
AcDbEntity
  8
0
 62
256
370
-1
 48
1.0
  6
BYLAYER
100
AcDbCircle
 10
86.9617900311076255
 20
239.0444754769903
 30
0.0
 40
4.0
100
AcDbArc
 50
270.0
 51
0.0
  0
ARC
  5
16C
100
AcDbEntity
  8
0
 62
256
370
-1
 48
1.0
  6
BYLAYER
100
AcDbCircle
 10
85.9641260311076394
 20
220.2477074769903993
 30
0.0
 40
4.0
100
AcDbArc
 50
0.0
 51
90.0
  0
LINE
  5
16D
100
AcDbEntity
100
AcDbLine
  8
0
 62
256
370
-1
 48
1.0
  6
BYLAYER
 10
188.2361059676106834
 20
279.9788006270765663
 30
0.0
 11
151.2361059676111381
 21
279.9788006270765663
 31
0.0
  0
LINE
  5
16E
100
AcDbEntity
100
AcDbLine
  8
0
 62
256
370
-1
 48
1.0
  6
BYLAYER
 10
164.8765007216610456
 20
44.3109289767115939
 30
0.0
 11
164.8765007216610456
 21
81.3109289767116223
 31
0.0
  0
LINE
  5
16F
100
AcDbEntity
100
AcDbLine
  8
0
 62
256
370
-1
 48
1.0
  6
BYLAYER
 10
150.8765007216610456
 20
87.8109289767116223
 30
0.0
 11
38.8765007216610385
 21
87.8109289767116223
 31
0.0
  0
LINE
  5
170
100
AcDbEntity
100
AcDbLine
  8
0
 62
256
370
-1
 48
1.0
  6
BYLAYER
 10
144.7361059676113655
 20
265.9788006270765663
 30
0.0
 11
144.7361059676113655
 21
153.9788006270765379
 31
0.0
  0
LINE
  5
171
100
AcDbEntity
100
AcDbLine
  8
0
 62
256
370
-1
 48
1.0
  6
BYLAYER
 10
151.2361059676113655
 20
139.9788006270765379
 30
0.0
 11
188.2361059676115929
 21
139.9788006270765379
 31
0.0
  0
LINE
  5
172
100
AcDbEntity
100
AcDbLine
  8
0
 62
256
370
-1
 48
1.0
  6
BYLAYER
 10
24.8765007216610385
 20
81.3109289767115655
 30
0.0
 11
24.8765007216610385
 21
44.3109289767115939
 31
0.0
  0
LINE
  5
173
100
AcDbEntity
100
AcDbLine
  8
0
 62
256
370
-1
 48
1.0
  6
BYLAYER
 10
62.9617900311076184
 20
244.5392101306254347
 30
0.0
 11
62.9617900311076184
 21
242.7892101306254347
 31
0.0
  0
LINE
  5
174
100
AcDbEntity
100
AcDbLine
  8
0
 62
256
370
-1
 48
1.0
  6
BYLAYER
 10
109.0498895295011152
 20
115.1600891637843347
 30
0.0
 11
109.0498895295011152
 21
116.9100891637843347
 31
0.0
  0
LINE
  5
175
100
AcDbEntity
100
AcDbLine
  8
0
 62
256
370
-1
 48
1.0
  6
BYLAYER
 10
29.9947346536350707
 20
221.5
 30
0.0
 11
28.2447346536351844
 21
221.5000000000000568
 31
0.0
  0
LINE
  5
176
100
AcDbEntity
100
AcDbLine
  8
0
 62
256
370
-1
 48
1.0
  6
BYLAYER
 10
80.4693913774723342
 20
196.2477074769903993
 30
0.0
 11
82.2193913774723342
 21
196.2477074769903993
 31
0.0
  0
LINE
  5
177
100
AcDbEntity
100
AcDbLine
  8
0
 62
256
370
-1
 48
1.0
  6
BYLAYER
 10
106.2398460311076178
 20
161.9065528233553835
 30
0.0
 11
106.2398460311076178
 21
163.6565528233553835
 31
0.0
  0
LINE
  5
178
100
AcDbEntity
100
AcDbLine
  8
0
 62
256
370
-1
 48
1.0
  6
BYLAYER
 10
119.8072346536353052
 20
241.125
 30
0.0
 11
118.0572346536350778
 21
241.125
 31
0.0
  0
LINE
  5
179
100
AcDbEntity
100
AcDbLine
  8
0
 62
256
370
-1
 48
1.0
  6
BYLAYER
 10
44.2147708508130037
 20
13.6349847452014501
 30
0.0
 11
44.2147708508130037
 21
11.8849847452014501
 31
0.0
  0
LINE
  5
17A
100
AcDbEntity
100
AcDbLine
  8
0
 62
256
370
-1
 48
1.0
  6
BYLAYER
 10
107.0498895295011152
 20
115.1600891637843347
 30
0.0
 11
107.0498895295011152
 21
116.9100891637843347
 31
0.0
  0
LINE
  5
17B
100
AcDbEntity
100
AcDbLine
  8
0
 62
256
370
-1
 48
1.0
  6
BYLAYER
 10
64.9617900311076255
 20
244.5392101306254347
 30
0.0
 11
64.9617900311076255
 21
242.7892101306254347
 31
0.0
  0
LINE
  5
17C
100
AcDbEntity
100
AcDbLine
  8
0
 62
256
370
-1
 48
1.0
  6
BYLAYER
 10
80.4693913774723342
 20
198.2477074769903993
 30
0.0
 11
82.2193913774724479
 21
198.2477074769903993
 31
0.0
  0
LINE
  5
17D
100
AcDbEntity
100
AcDbLine
  8
0
 62
256
370
-1
 48
1.0
  6
BYLAYER
 10
104.2398460311076178
 20
161.9065528233553835
 30
0.0
 11
104.2398460311076178
 21
163.6565528233553835
 31
0.0
  0
LINE
  5
17E
100
AcDbEntity
100
AcDbLine
  8
0
 62
256
370
-1
 48
1.0
  6
BYLAYER
 10
46.2147708508130037
 20
13.6349847452014501
 30
0.0
 11
46.2147708508130037
 21
11.8849847452014501
 31
0.0
  0
LINE
  5
17F
100
AcDbEntity
100
AcDbLine
  8
0
 62
256
370
-1
 48
1.0
  6
BYLAYER
 10
119.8072346536351915
 20
239.125
 30
0.0
 11
118.0572346536351915
 21
239.1250000000000568
 31
0.0
  0
LINE
  5
180
100
AcDbEntity
100
AcDbLine
  8
0
 62
256
370
-1
 48
1.0
  6
BYLAYER
 10
29.9947346536351844
 20
219.5
 30
0.0
 11
28.2447346536350707
 21
219.5
 31
0.0
  0
LINE
  5
181
100
AcDbEntity
100
AcDbLine
  8
0
 62
256
370
-1
 48
1.0
  6
BYLAYER
 10
88.0460832469972274
 20
115.2472561140652374
 30
0.0
 11
88.0498869060588731
 21
116.9077985574235754
 31
0.0
  0
LINE
  5
182
100
AcDbEntity
100
AcDbLine
  8
0
 62
256
370
-1
 48
1.0
  6
BYLAYER
 10
85.23603974860373
 20
161.9937197736362862
 30
0.0
 11
85.2398434076653757
 21
163.6542622169946242
 31
0.0
  0
LINE
  5
183
100
AcDbEntity
100
AcDbLine
  8
0
 62
256
370
-1
 48
1.0
  6
BYLAYER
 10
29.9075677033542817
 20
200.4961937174961406
 30
0.0
 11
28.2470252599958869
 21
200.4999973765578147
 31
0.0
  0
LINE
  5
184
100
AcDbEntity
100
AcDbLine
  8
0
 62
256
370
-1
 48
1.0
  6
BYLAYER
 10
119.7200677033542888
 20
220.1211937174961122
 30
0.0
 11
118.059525259995894
 21
220.1249973765578716
 31
0.0
  0
LINE
  5
185
100
AcDbEntity
100
AcDbLine
  8
0
 62
256
370
-1
 48
1.0
  6
BYLAYER
 10
80.5565583277532369
 20
217.2515137594942871
 30
0.0
 11
82.2171007711116317
 21
217.2477101004325846
 31
0.0
  0
LINE
  5
186
100
AcDbEntity
100
AcDbLine
  8
0
 62
256
370
-1
 48
1.0
  6
BYLAYER
 10
83.9655963136115133
 20
244.4520431803445319
 30
0.0
 11
83.9617926545498676
 21
242.7915007369861939
 31
0.0
  0
LINE
  5
187
100
AcDbEntity
100
AcDbLine
  8
0
 62
256
370
-1
 48
1.0
  6
BYLAYER
 10
65.218577133316785
 20
13.547817794920519
 30
0.0
 11
65.2147734742551393
 21
11.887275351562181
 31
0.0
  0
LINE
  5
188
100
AcDbEntity
100
AcDbLine
  8
0
 62
256
370
-1
 48
1.0
  6
BYLAYER
 10
86.0498895295011152
 20
115.1600891637843347
 30
0.0
 11
86.0498895295011152
 21
116.9100891637843347
 31
0.0
  0
LINE
  5
189
100
AcDbEntity
100
AcDbLine
  8
0
 62
256
370
-1
 48
1.0
  6
BYLAYER
 10
119.8072346536350778
 20
218.125
 30
0.0
 11
118.0572346536351915
 21
218.1250000000000568
 31
0.0
  0
LINE
  5
18A
100
AcDbEntity
100
AcDbLine
  8
0
 62
256
370
-1
 48
1.0
  6
BYLAYER
 10
29.9947346536350707
 20
198.4999999999999716
 30
0.0
 11
28.2447346536351844
 21
198.5000000000000568
 31
0.0
  0
LINE
  5
18B
100
AcDbEntity
100
AcDbLine
  8
0
 62
256
370
-1
 48
1.0
  6
BYLAYER
 10
83.2398460311076178
 20
161.9065528233553835
 30
0.0
 11
83.2398460311076178
 21
163.6565528233553835
 31
0.0
  0
LINE
  5
18C
100
AcDbEntity
100
AcDbLine
  8
0
 62
256
370
-1
 48
1.0
  6
BYLAYER
 10
192.2361059676115929
 20
173.9788006270765379
 30
0.0
 11
192.2361059676120476
 21
245.9788006270765379
 31
0.0
  0
LINE
  5
18D
100
AcDbEntity
100
AcDbLine
  8
0
 62
256
370
-1
 48
1.0
  6
BYLAYER
 10
67.2147708508130108
 20
13.6349847452014501
 30
0.0
 11
67.2147708508130108
 21
11.8849847452014501
 31
0.0
  0
LINE
  5
18E
100
AcDbEntity
100
AcDbLine
  8
0
 62
256
370
-1
 48
1.0
  6
BYLAYER
 10
58.8765007216610385
 20
40.3109289767115939
 30
0.0
 11
130.8765007216610456
 21
40.3109289767115939
 31
0.0
  0
LINE
  5
18F
100
AcDbEntity
100
AcDbLine
  8
0
 62
256
370
-1
 48
1.0
  6
BYLAYER
 10
85.9617900311076255
 20
244.5392101306254347
 30
0.0
 11
85.9617900311076255
 21
242.7892101306254347
 31
0.0
  0
LINE
  5
190
100
AcDbEntity
100
AcDbLine
  8
0
 62
256
370
-1
 48
1.0
  6
BYLAYER
 10
80.4693913774724479
 20
219.2477074769903993
 30
0.0
 11
82.2193913774724479
 21
219.2477074769903993
 31
0.0
  0
LINE
  5
191
100
AcDbEntity
100
AcDbLine
  8
0
 62
256
370
-1
 48
1.0
  6
BYLAYER
 10
192.2361059676109107
 20
279.9788006270765663
 30
0.0
 11
147.2361059676113655
 21
279.9788006270765663
 31
0.0
  0
LINE
  5
192
100
AcDbEntity
100
AcDbLine
  8
0
 62
256
370
-1
 48
1.0
  6
BYLAYER
 10
164.8765007216610456
 20
40.3109289767115939
 30
0.0
 11
164.8765007216610456
 21
85.3109289767116223
 31
0.0
  0
LINE
  5
193
100
AcDbEntity
100
AcDbLine
  8
0
 62
256
370
-1
 48
1.0
  6
BYLAYER
 10
76.0829897799657147
 20
12.0908489767115555
 30
0.0
 11
80.0829897799657147
 21
12.0908489767115555
 31
0.0
  0
LINE
  5
194
100
AcDbEntity
100
AcDbLine
  8
0
 62
256
370
-1
 48
1.0
  6
BYLAYER
 10
87.0829897799657147
 20
12.0908489767115555
 30
0.0
 11
91.0829897799657147
 21
12.0908489767115555
 31
0.0
  0
LINE
  5
195
100
AcDbEntity
100
AcDbLine
  8
0
 62
256
370
-1
 48
1.0
  6
BYLAYER
 10
105.2147708508130108
 20
10.8849847452014501
 30
0.0
 11
109.930888669397973
 21
10.8849847452014501
 31
0.0
  0
LINE
  5
196
100
AcDbEntity
100
AcDbLine
  8
0
 62
256
370
-1
 48
1.0
  6
BYLAYER
 10
115.498653032227935
 20
10.8849847452014501
 30
0.0
 11
120.2147708508130108
 21
10.8849847452014501
 31
0.0
  0
LINE
  5
197
100
AcDbEntity
100
AcDbLine
  8
0
 62
256
370
-1
 48
1.0
  6
BYLAYER
 10
120.2147708508130108
 20
10.8849847452014501
 30
0.0
 11
120.2147708508130108
 21
16.2849847452014274
 31
0.0
  0
LINE
  5
198
100
AcDbEntity
100
AcDbLine
  8
0
 62
256
370
-1
 48
1.0
  6
BYLAYER
 10
120.2147708508130108
 20
20.4849847452014444
 30
0.0
 11
120.2147708508130108
 21
25.8849847452014501
 31
0.0
  0
LINE
  5
199
100
AcDbEntity
100
AcDbLine
  8
0
 62
256
370
-1
 48
1.0
  6
BYLAYER
 10
91.0829897799657147
 20
12.0908489767115555
 30
0.0
 11
91.0829897799657147
 21
16.806966795296546
 31
0.0
  0
LINE
  5
19A
100
AcDbEntity
100
AcDbLine
  8
0
 62
256
370
-1
 48
1.0
  6
BYLAYER
 10
91.0829897799657147
 20
22.3747311581265649
 30
0.0
 11
91.0829897799657147
 21
27.0908489767115555
 31
0.0
  0
LINE
  5
19B
100
AcDbEntity
100
AcDbLine
  8
0
 62
256
370
-1
 48
1.0
  6
BYLAYER
 10
80.7991075985506768
 20
27.0908489767115555
 30
0.0
 11
76.0829897799657147
 21
27.0908489767115555
 31
0.0
  0
LINE
  5
19C
100
AcDbEntity
100
AcDbLine
  8
0
 62
256
370
-1
 48
1.0
  6
BYLAYER
 10
91.0829897799657147
 20
27.0908489767115555
 30
0.0
 11
86.3668719613807525
 21
27.0908489767115555
 31
0.0
  0
LINE
  5
19D
100
AcDbEntity
100
AcDbLine
  8
0
 62
256
370
-1
 48
1.0
  6
BYLAYER
 10
120.2147708508130108
 20
25.8849847452014501
 30
0.0
 11
115.498653032227935
 21
25.8849847452014501
 31
0.0
  0
LINE
  5
19E
100
AcDbEntity
100
AcDbLine
  8
0
 62
256
370
-1
 48
1.0
  6
BYLAYER
 10
109.930888669397973
 20
25.8849847452014501
 30
0.0
 11
105.2147708508130108
 21
25.8849847452014501
 31
0.0
  0
LINE
  5
19F
100
AcDbEntity
100
AcDbLine
  8
0
 62
256
370
-1
 48
1.0
  6
BYLAYER
 10
76.0829897799657147
 20
27.0908489767115555
 30
0.0
 11
76.0829897799657147
 21
22.3747311581265649
 31
0.0
  0
LINE
  5
1A0
100
AcDbEntity
100
AcDbLine
  8
0
 62
256
370
-1
 48
1.0
  6
BYLAYER
 10
105.2147708508130108
 20
25.8849847452014501
 30
0.0
 11
105.2147708508130108
 21
20.4849847452014444
 31
0.0
  0
LINE
  5
1A1
100
AcDbEntity
100
AcDbLine
  8
0
 62
256
370
-1
 48
1.0
  6
BYLAYER
 10
76.0829897799657147
 20
16.806966795296546
 30
0.0
 11
76.0829897799657147
 21
12.0908489767115555
 31
0.0
  0
LINE
  5
1A2
100
AcDbEntity
100
AcDbLine
  8
0
 62
256
370
-1
 48
1.0
  6
BYLAYER
 10
105.2147708508130108
 20
16.2849847452014274
 30
0.0
 11
105.2147708508130108
 21
10.8849847452014501
 31
0.0
  0
ARC
  5
1A3
100
AcDbEntity
  8
0
 62
256
370
-1
 48
1.0
  6
BYLAYER
100
AcDbCircle
 10
83.5829897799657147
 20
19.5908489767115555
 30
0.0
 40
8.0
100
AcDbArc
 50
339.6358651936822071
 51
20.3641348063178107
  0
ARC
  5
1A4
100
AcDbEntity
  8
0
 62
256
370
-1
 48
1.0
  6
BYLAYER
100
AcDbCircle
 10
112.7147708508130108
 20
18.3849847452014501
 30
0.0
 40
8.0
100
AcDbArc
 50
90.0
 51
110.3641348063178071
  0
ARC
  5
1A5
100
AcDbEntity
  8
0
 62
256
370
-1
 48
1.0
  6
BYLAYER
100
AcDbCircle
 10
83.5829897799657147
 20
19.5908489767115555
 30
0.0
 40
8.0
100
AcDbArc
 50
90.0
 51
110.3641348063178071
  0
ARC
  5
1A6
100
AcDbEntity
  8
0
 62
256
370
-1
 48
1.0
  6
BYLAYER
100
AcDbCircle
 10
112.7147708508130108
 20
18.3849847452014501
 30
0.0
 40
8.0
100
AcDbArc
 50
90.0
 51
110.3641348063178071
  0
ARC
  5
1A7
100
AcDbEntity
  8
0
 62
256
370
-1
 48
1.0
  6
BYLAYER
100
AcDbCircle
 10
83.5829897799657147
 20
19.5908489767115555
 30
0.0
 40
8.0
100
AcDbArc
 50
90.0
 51
110.3641348063178071
  0
ARC
  5
1A8
100
AcDbEntity
  8
0
 62
256
370
-1
 48
1.0
  6
BYLAYER
100
AcDbCircle
 10
83.5829897799657147
 20
19.5908489767115555
 30
0.0
 40
8.0
100
AcDbArc
 50
90.0
 51
110.3641348063178071
  0
ARC
  5
1A9
100
AcDbEntity
  8
0
 62
256
370
-1
 48
1.0
  6
BYLAYER
100
AcDbCircle
 10
83.5829897799657147
 20
19.5908489767115555
 30
0.0
 40
8.0
100
AcDbArc
 50
339.6358651936822071
 51
20.3641348063178107
  0
ARC
  5
1AA
100
AcDbEntity
  8
0
 62
256
370
-1
 48
1.0
  6
BYLAYER
100
AcDbCircle
 10
112.7147708508130108
 20
18.3849847452014501
 30
0.0
 40
8.0
100
AcDbArc
 50
69.6358651936821929
 51
90.0
  0
ARC
  5
1AB
100
AcDbEntity
  8
0
 62
256
370
-1
 48
1.0
  6
BYLAYER
100
AcDbCircle
 10
83.5829897799657147
 20
19.5908489767115555
 30
0.0
 40
8.0
100
AcDbArc
 50
159.6358651936822071
 51
200.3641348063177929
  0
ARC
  5
1AC
100
AcDbEntity
  8
0
 62
256
370
-1
 48
1.0
  6
BYLAYER
100
AcDbCircle
 10
83.5829897799657147
 20
19.5908489767115555
 30
0.0
 40
8.0
100
AcDbArc
 50
69.6358651936821929
 51
90.0
  0
ARC
  5
1AD
100
AcDbEntity
  8
0
 62
256
370
-1
 48
1.0
  6
BYLAYER
100
AcDbCircle
 10
112.7147708508130108
 20
18.3849847452014501
 30
0.0
 40
8.0
100
AcDbArc
 50
90.0
 51
110.3641348063178071
  0
ARC
  5
1AE
100
AcDbEntity
  8
0
 62
256
370
-1
 48
1.0
  6
BYLAYER
100
AcDbCircle
 10
112.7147708508130108
 20
18.3849847452014501
 30
0.0
 40
8.0
100
AcDbArc
 50
249.6358651936822071
 51
290.3641348063177929
  0
ARC
  5
1AF
100
AcDbEntity
  8
0
 62
256
370
-1
 48
1.0
  6
BYLAYER
100
AcDbCircle
 10
112.7147708508130108
 20
18.3849847452014501
 30
0.0
 40
8.0
100
AcDbArc
 50
249.6358651936822071
 51
290.3641348063177929
  0
ARC
  5
1B0
100
AcDbEntity
  8
0
 62
256
370
-1
 48
1.0
  6
BYLAYER
100
AcDbCircle
 10
83.5829897799657147
 20
19.5908489767115555
 30
0.0
 40
8.0
100
AcDbArc
 50
159.6358651936822071
 51
200.3641348063177929
  0
LINE
  5
1B1
100
AcDbEntity
100
AcDbLine
  8
0
 62
256
370
-1
 48
1.0
  6
BYLAYER
 10
147.2361059676113655
 20
245.9788006270765379
 30
0.0
 11
147.2361059676113655
 21
173.9788006270765379
 31
0.0
  0
LINE
  5
1B2
100
AcDbEntity
100
AcDbLine
  8
0
 62
256
370
-1
 48
1.0
  6
BYLAYER
 10
130.8765007216610456
 20
85.3109289767116223
 30
0.0
 11
58.8765007216610385
 21
85.3109289767116223
 31
0.0
  0
ARC
  5
1B3
100
AcDbEntity
  8
0
 62
256
370
-1
 48
1.0
  6
BYLAYER
100
AcDbCircle
 10
103.1147708508128744
 20
18.3849847452014501
 30
0.0
 40
2.1000000000000001
100
AcDbArc
 50
90.0
 51
270.0
  0
LINE
  5
1B4
100
AcDbEntity
100
AcDbLine
  8
0
 62
256
370
-1
 48
1.0
  6
BYLAYER
 10
105.2147708508130108
 20
20.4849847452014444
 30
0.0
 11
103.1147708508128744
 21
20.4849847452014444
 31
0.0
  0
LINE
  5
1B5
100
AcDbEntity
100
AcDbLine
  8
0
 62
256
370
-1
 48
1.0
  6
BYLAYER
 10
147.2361059676113655
 20
139.9788006270765379
 30
0.0
 11
192.2361059676115929
 21
139.9788006270765379
 31
0.0
  0
LINE
  5
1B6
100
AcDbEntity
100
AcDbLine
  8
0
 62
256
370
-1
 48
1.0
  6
BYLAYER
 10
24.8765007216610385
 20
85.3109289767116223
 30
0.0
 11
24.8765007216610385
 21
40.3109289767115939
 31
0.0
  0
LINE
  5
1B7
100
AcDbEntity
100
AcDbLine
  8
0
 62
256
370
-1
 48
1.0
  6
BYLAYER
 10
105.2147708508130108
 20
16.2849847452014274
 30
0.0
 11
103.1147708508128744
 21
16.2849847452014274
 31
0.0
  0
ARC
  5
1B8
100
AcDbEntity
  8
0
 62
256
370
-1
 48
1.0
  6
BYLAYER
100
AcDbCircle
 10
122.3147708508129199
 20
18.3849847452014501
 30
0.0
 40
2.1000000000000001
100
AcDbArc
 50
270.0
 51
90.0
  0
LINE
  5
1B9
100
AcDbEntity
100
AcDbLine
  8
0
 62
256
370
-1
 48
1.0
  6
BYLAYER
 10
120.2147708508130108
 20
20.4849847452014444
 30
0.0
 11
122.3147708508129199
 21
20.4849847452014444
 31
0.0
  0
LINE
  5
1BA
100
AcDbEntity
100
AcDbLine
  8
0
 62
256
370
-1
 48
1.0
  6
BYLAYER
 10
120.2147708508130108
 20
16.2849847452014274
 30
0.0
 11
122.3147708508129199
 21
16.2849847452014274
 31
0.0
  0
MTEXT
  5
1BB
100
AcDbEntity
100
AcDbMText
  8
0
 62
256
370
-1
 48
1.0
  6
BYLAYER
 10
81.3360492398387862
 20
290.4568775070035827
 30
0.0
 40
1.0
 41
0.0
 71
1
 72
1
  1
\H5;Normal Camera
  7
textstyle0
 50
0.0
 73
2
 44
1.0
  0
ARC
  5
1BC
100
AcDbEntity
  8
0
 62
256
370
-1
 48
1.0
  6
BYLAYER
100
AcDbCircle
 10
83.5829897799657147
 20
10.5908489767115555
 30
0.0
 40
3.5
100
AcDbArc
 50
309.5203911105841712
 51
0.0
  0
ARC
  5
1BD
100
AcDbEntity
  8
0
 62
256
370
-1
 48
1.0
  6
BYLAYER
100
AcDbCircle
 10
83.5829897799657147
 20
10.5908489767115555
 30
0.0
 40
3.5
100
AcDbArc
 50
180.0
 51
230.311982485789116
  0
LINE
  5
1BE
100
AcDbEntity
100
AcDbLine
  8
0
 62
256
370
-1
 48
1.0
  6
BYLAYER
 10
34.8765007216610385
 20
37.8109289767115939
 30
0.0
 11
154.8765007216610456
 21
37.8109289767115939
 31
0.0
  0
LINE
  5
1BF
100
AcDbEntity
100
AcDbLine
  8
0
 62
256
370
-1
 48
1.0
  6
BYLAYER
 10
194.7361059676113655
 20
149.9788006270765379
 30
0.0
 11
194.7361059676143213
 21
269.9788006270765663
 31
0.0
  0
LINE
  5
1C0
100
AcDbEntity
100
AcDbLine
  8
0
 62
256
370
-1
 48
1.0
  6
BYLAYER
 10
80.0829897799657147
 20
12.0908489767115555
 30
0.0
 11
80.0829897799657147
 21
10.5908489767115555
 31
0.0
  0
LINE
  5
1C1
100
AcDbEntity
100
AcDbLine
  8
0
 62
256
370
-1
 48
1.0
  6
BYLAYER
 10
87.0829897799657147
 20
12.0908489767115555
 30
0.0
 11
87.0829897799657147
 21
10.5908489767115555
 31
0.0
  0
LINE
  5
1C2
100
AcDbEntity
100
AcDbLine
  8
0
 62
256
370
-1
 48
1.0
  6
BYLAYER
 10
85.8829897799657829
 20
7.8908489767115668
 30
0.0
 11
81.3328178621513871
 21
7.8975050472370469
 31
0.0
  0
LINE
  5
1C3
100
AcDbEntity
100
AcDbLine
  8
0
 62
256
370
-1
 48
1.0
  6
BYLAYER
 10
188.2361059676111381
 20
269.9788006270765663
 30
0.0
 11
151.2361059676111381
 21
269.9788006270765663
 31
0.0
  0
LINE
  5
1C4
100
AcDbEntity
100
AcDbLine
  8
0
 62
256
370
-1
 48
1.0
  6
BYLAYER
 10
154.8765007216610456
 20
44.3109289767115939
 30
0.0
 11
154.8765007216610456
 21
81.3109289767116223
 31
0.0
  0
LINE
  5
1C5
100
AcDbEntity
100
AcDbLine
  8
0
 62
256
370
-1
 48
1.0
  6
BYLAYER
 10
154.8765007216610456
 20
87.8109289767116223
 30
0.0
 11
34.8765007216610385
 21
87.8109289767116223
 31
0.0
  0
LINE
  5
1C6
100
AcDbEntity
100
AcDbLine
  8
0
 62
256
370
-1
 48
1.0
  6
BYLAYER
 10
144.7361059676113655
 20
269.9788006270765663
 30
0.0
 11
144.7361059676113655
 21
149.9788006270765379
 31
0.0
  0
LINE
  5
1C7
100
AcDbEntity
100
AcDbLine
  8
0
 62
256
370
-1
 48
1.0
  6
BYLAYER
 10
148.7361059676113655
 20
149.9788006270765379
 30
0.0
 11
194.7361059676113655
 21
149.9788006270765379
 31
0.0
  0
LINE
  5
1C8
100
AcDbEntity
100
AcDbLine
  8
0
 62
256
370
-1
 48
1.0
  6
BYLAYER
 10
34.8765007216610385
 20
83.8109289767116223
 30
0.0
 11
34.8765007216610385
 21
37.8109289767115939
 31
0.0
  0
LINE
  5
1C9
100
AcDbEntity
100
AcDbLine
  8
0
 62
256
370
-1
 48
1.0
  6
BYLAYER
 10
58.8765007216610385
 20
37.8109289767115939
 30
0.0
 11
130.8765007216610456
 21
37.8109289767115939
 31
0.0
  0
LINE
  5
1CA
100
AcDbEntity
100
AcDbLine
  8
0
 62
256
370
-1
 48
1.0
  6
BYLAYER
 10
194.7361059676111381
 20
173.9788006270765379
 30
0.0
 11
194.7361059676120476
 21
245.9788006270765379
 31
0.0
  0
LINE
  5
1CB
100
AcDbEntity
100
AcDbLine
  8
0
 62
256
370
-1
 48
1.0
  6
BYLAYER
 10
188.2361059676106834
 20
259.9788006270765663
 30
0.0
 11
151.2361059676113655
 21
259.9788006270765663
 31
0.0
  0
LINE
  5
1CC
100
AcDbEntity
100
AcDbLine
  8
0
 62
256
370
-1
 48
1.0
  6
BYLAYER
 10
144.8765007216610456
 20
44.3109289767115939
 30
0.0
 11
144.8765007216610456
 21
81.3109289767116223
 31
0.0
  0
LINE
  5
1CD
100
AcDbEntity
100
AcDbLine
  8
0
 62
256
370
-1
 48
1.0
  6
BYLAYER
 10
144.7361059676113655
 20
245.9788006270765379
 30
0.0
 11
144.7361059676113655
 21
173.9788006270765379
 31
0.0
  0
LINE
  5
1CE
100
AcDbEntity
100
AcDbLine
  8
0
 62
256
370
-1
 48
1.0
  6
BYLAYER
 10
130.8765007216610456
 20
87.8109289767116223
 30
0.0
 11
58.8765007216610385
 21
87.8109289767116223
 31
0.0
  0
LINE
  5
1CF
100
AcDbEntity
100
AcDbLine
  8
0
 62
256
370
-1
 48
1.0
  6
BYLAYER
 10
151.2361059676113655
 20
159.9788006270765379
 30
0.0
 11
188.2361059676113655
 21
159.9788006270765379
 31
0.0
  0
LINE
  5
1D0
100
AcDbEntity
100
AcDbLine
  8
0
 62
256
370
-1
 48
1.0
  6
BYLAYER
 10
44.8765007216610385
 20
81.3109289767116223
 30
0.0
 11
44.8765007216610385
 21
44.3109289767115939
 31
0.0
  0
LINE
  5
1D1
100
AcDbEntity
100
AcDbLine
  8
0
 62
256
370
-1
 48
1.0
  6
BYLAYER
 10
34.8765007216610385
 20
37.8109289767115939
 30
0.0
 11
134.8765007216610456
 21
37.8109289767115939
 31
0.0
  0
LINE
  5
1D2
100
AcDbEntity
100
AcDbLine
  8
0
 62
256
370
-1
 48
1.0
  6
BYLAYER
 10
194.7361059676113655
 20
149.9788006270765379
 30
0.0
 11
194.7361059676109107
 21
249.9788006270765663
 31
0.0
  0
LINE
  5
1D3
100
AcDbEntity
100
AcDbLine
  8
0
 62
256
370
-1
 48
1.0
  6
BYLAYER
 10
194.7361059676109107
 20
249.9788006270765663
 30
0.0
 11
148.7361059676113655
 21
249.9788006270765663
 31
0.0
  0
LINE
  5
1D4
100
AcDbEntity
100
AcDbLine
  8
0
 62
256
370
-1
 48
1.0
  6
BYLAYER
 10
134.8765007216610456
 20
37.8109289767115939
 30
0.0
 11
134.8765007216610456
 21
83.8109289767116223
 31
0.0
  0
LINE
  5
1D5
100
AcDbEntity
100
AcDbLine
  8
0
 62
256
370
-1
 48
1.0
  6
BYLAYER
 10
134.8765007216610456
 20
87.8109289767116223
 30
0.0
 11
34.8765007216610385
 21
87.8109289767116223
 31
0.0
  0
LINE
  5
1D6
100
AcDbEntity
100
AcDbLine
  8
0
 62
256
370
-1
 48
1.0
  6
BYLAYER
 10
144.7361059676111381
 20
249.9788006270765663
 30
0.0
 11
144.7361059676113655
 21
149.9788006270765379
 31
0.0
  0
LINE
  5
1D7
100
AcDbEntity
100
AcDbLine
  8
0
 62
256
370
-1
 48
1.0
  6
BYLAYER
 10
151.2361059676113655
 20
149.9788006270765379
 30
0.0
 11
188.2361059676113655
 21
149.9788006270765379
 31
0.0
  0
LINE
  5
1D8
100
AcDbEntity
100
AcDbLine
  8
0
 62
256
370
-1
 48
1.0
  6
BYLAYER
 10
34.8765007216610385
 20
81.3109289767116223
 30
0.0
 11
34.8765007216610385
 21
44.3109289767115939
 31
0.0
  0
LINE
  5
1D9
100
AcDbEntity
100
AcDbLine
  8
0
 62
256
370
-1
 48
1.0
  6
BYLAYER
 10
34.8765007216610385
 20
37.8109289767115939
 30
0.0
 11
54.8765007216610385
 21
37.8109289767115939
 31
0.0
  0
LINE
  5
1DA
100
AcDbEntity
100
AcDbLine
  8
0
 62
256
370
-1
 48
1.0
  6
BYLAYER
 10
194.7361059676113655
 20
149.9788006270765379
 30
0.0
 11
194.7361059676120476
 21
169.9788006270765379
 31
0.0
  0
LINE
  5
1DB
100
AcDbEntity
100
AcDbLine
  8
0
 62
256
370
-1
 48
1.0
  6
BYLAYER
 10
194.7361059676120476
 20
169.9788006270765379
 30
0.0
 11
194.7361059676120476
 21
169.9788006270765379
 31
0.0
  0
LINE
  5
1DC
100
AcDbEntity
100
AcDbLine
  8
0
 62
256
370
-1
 48
1.0
  6
BYLAYER
 10
54.8765007216610385
 20
37.8109289767115939
 30
0.0
 11
54.8765007216610385
 21
37.8109289767115939
 31
0.0
  0
LINE
  5
1DD
100
AcDbEntity
100
AcDbLine
  8
0
 62
256
370
-1
 48
1.0
  6
BYLAYER
 10
194.7361059676120476
 20
169.9788006270765379
 30
0.0
 11
194.7361059676113655
 21
149.9788006270765379
 31
0.0
  0
LINE
  5
1DE
100
AcDbEntity
100
AcDbLine
  8
0
 62
256
370
-1
 48
1.0
  6
BYLAYER
 10
54.8765007216610385
 20
37.8109289767115939
 30
0.0
 11
34.8765007216610385
 21
37.8109289767115939
 31
0.0
  0
LINE
  5
1DF
100
AcDbEntity
100
AcDbLine
  8
0
 62
256
370
-1
 48
1.0
  6
BYLAYER
 10
194.7361059676113655
 20
149.9788006270765379
 30
0.0
 11
194.7361059676113655
 21
149.9788006270765379
 31
0.0
  0
LINE
  5
1E0
100
AcDbEntity
100
AcDbLine
  8
0
 62
256
370
-1
 48
1.0
  6
BYLAYER
 10
34.8765007216610385
 20
37.8109289767115939
 30
0.0
 11
34.8765007216610385
 21
37.8109289767115939
 31
0.0
  0
LINE
  5
1E1
100
AcDbEntity
100
AcDbLine
  8
0
 62
256
370
-1
 48
1.0
  6
BYLAYER
 10
134.8765007216610456
 20
87.8109289767116223
 30
0.0
 11
54.8765007216610385
 21
87.8109289767116223
 31
0.0
  0
LINE
  5
1E2
100
AcDbEntity
100
AcDbLine
  8
0
 62
256
370
-1
 48
1.0
  6
BYLAYER
 10
144.7361059676111381
 20
249.9788006270765663
 30
0.0
 11
144.7361059676113655
 21
169.9788006270765379
 31
0.0
  0
LINE
  5
1E3
100
AcDbEntity
100
AcDbLine
  8
0
 62
256
370
-1
 48
1.0
  6
BYLAYER
 10
153.7361059676113655
 20
169.9788006270765379
 30
0.0
 11
185.7361059676113655
 21
169.9788006270765379
 31
0.0
  0
LINE
  5
1E4
100
AcDbEntity
100
AcDbLine
  8
0
 62
256
370
-1
 48
1.0
  6
BYLAYER
 10
54.8765007216610385
 20
78.8109289767116223
 30
0.0
 11
54.8765007216610385
 21
46.8109289767116223
 31
0.0
  0
LINE
  5
1E5
100
AcDbEntity
100
AcDbLine
  8
0
 62
256
370
-1
 48
1.0
  6
BYLAYER
 10
54.8765007216610385
 20
37.8109289767115939
 30
0.0
 11
134.8765007216610456
 21
37.8109289767115939
 31
0.0
  0
LINE
  5
1E6
100
AcDbEntity
100
AcDbLine
  8
0
 62
256
370
-1
 48
1.0
  6
BYLAYER
 10
194.7361059676120476
 20
169.9788006270765379
 30
0.0
 11
194.7361059676109107
 21
249.9788006270765663
 31
0.0
  0
LINE
  5
1E7
100
AcDbEntity
100
AcDbLine
  8
0
 62
256
370
-1
 48
1.0
  6
BYLAYER
 10
188.2361059676113655
 20
249.9788006270765663
 30
0.0
 11
151.2361059676113655
 21
249.9788006270765663
 31
0.0
  0
LINE
  5
1E8
100
AcDbEntity
100
AcDbLine
  8
0
 62
256
370
-1
 48
1.0
  6
BYLAYER
 10
134.8765007216610456
 20
44.3109289767115939
 30
0.0
 11
134.8765007216610456
 21
81.3109289767116223
 31
0.0
  0
ARC
  5
1E9
100
AcDbEntity
  8
0
 62
256
370
-1
 48
1.0
  6
BYLAYER
100
AcDbCircle
 10
28.8765007216610385
 20
83.8109289767116223
 30
0.0
 40
4.0
100
AcDbArc
 50
90.0
 51
180.0
  0
ARC
  5
1EA
100
AcDbEntity
  8
0
 62
256
370
-1
 48
1.0
  6
BYLAYER
100
AcDbCircle
 10
148.7361059676113655
 20
143.9788006270765379
 30
0.0
 40
4.0
100
AcDbArc
 50
180.0
 51
270.0
  0
ARC
  5
1EB
100
AcDbEntity
  8
0
 62
256
370
-1
 48
1.0
  6
BYLAYER
100
AcDbCircle
 10
190.7361059676113655
 20
143.9788006270765379
 30
0.0
 40
4.0
100
AcDbArc
 50
270.0
 51
0.0
  0
ARC
  5
1EC
100
AcDbEntity
  8
0
 62
256
370
-1
 48
1.0
  6
BYLAYER
100
AcDbCircle
 10
28.8765007216610385
 20
41.8109289767115939
 30
0.0
 40
4.0
100
AcDbArc
 50
180.0
 51
270.0
  0
ARC
  5
1ED
100
AcDbEntity
  8
0
 62
256
370
-1
 48
1.0
  6
BYLAYER
100
AcDbCircle
 10
190.736105967612275
 20
275.9788006270765663
 30
0.0
 40
4.0
100
AcDbArc
 50
0.0
 51
90.0
  0
ARC
  5
1EE
100
AcDbEntity
  8
0
 62
256
370
-1
 48
1.0
  6
BYLAYER
100
AcDbCircle
 10
160.8765007216610456
 20
41.8109289767116223
 30
0.0
 40
4.0
100
AcDbArc
 50
270.0
 51
0.0
  0
ARC
  5
1EF
100
AcDbEntity
  8
0
 62
256
370
-1
 48
1.0
  6
BYLAYER
100
AcDbCircle
 10
148.7361059676113655
 20
275.9788006270765663
 30
0.0
 40
4.0
100
AcDbArc
 50
90.0
 51
180.0
  0
ARC
  5
1F0
100
AcDbEntity
  8
0
 62
256
370
-1
 48
1.0
  6
BYLAYER
100
AcDbCircle
 10
160.8765007216610456
 20
83.8109289767116223
 30
0.0
 40
4.0
100
AcDbArc
 50
0.0
 51
90.0
  0
ARC
  5
1F1
100
AcDbEntity
  8
0
 62
256
370
-1
 48
1.0
  6
BYLAYER
100
AcDbCircle
 10
160.876500721660932
 20
81.3109289767116223
 30
0.0
 40
4.0
100
AcDbArc
 50
0.0
 51
90.0
  0
ARC
  5
1F2
100
AcDbEntity
  8
0
 62
256
370
-1
 48
1.0
  6
BYLAYER
100
AcDbCircle
 10
151.2361059676111381
 20
275.9788006270764527
 30
0.0
 40
4.0
100
AcDbArc
 50
90.0
 51
180.0
  0
ARC
  5
1F3
100
AcDbEntity
  8
0
 62
256
370
-1
 48
1.0
  6
BYLAYER
100
AcDbCircle
 10
188.2361059676111381
 20
275.9788006270765663
 30
0.0
 40
4.0
100
AcDbArc
 50
0.0
 51
90.0
  0
ARC
  5
1F4
100
AcDbEntity
  8
0
 62
256
370
-1
 48
1.0
  6
BYLAYER
100
AcDbCircle
 10
160.8765007216610456
 20
44.3109289767115939
 30
0.0
 40
4.0
100
AcDbArc
 50
270.0
 51
0.0
  0
ARC
  5
1F5
100
AcDbEntity
  8
0
 62
256
370
-1
 48
1.0
  6
BYLAYER
100
AcDbCircle
 10
28.8765007216610385
 20
81.3109289767115655
 30
0.0
 40
4.0
100
AcDbArc
 50
90.0
 51
180.0
  0
ARC
  5
1F6
100
AcDbEntity
  8
0
 62
256
370
-1
 48
1.0
  6
BYLAYER
100
AcDbCircle
 10
151.2361059676113655
 20
143.9788006270765379
 30
0.0
 40
4.0
100
AcDbArc
 50
180.0
 51
270.0
  0
ARC
  5
1F7
100
AcDbEntity
  8
0
 62
256
370
-1
 48
1.0
  6
BYLAYER
100
AcDbCircle
 10
188.2361059676113655
 20
143.9788006270765379
 30
0.0
 40
4.0
100
AcDbArc
 50
270.0
 51
0.0
  0
ARC
  5
1F8
100
AcDbEntity
  8
0
 62
256
370
-1
 48
1.0
  6
BYLAYER
100
AcDbCircle
 10
28.8765007216610385
 20
44.3109289767115939
 30
0.0
 40
4.0
100
AcDbArc
 50
180.0
 51
270.0
  0
ARC
  5
1F9
100
AcDbEntity
  8
0
 62
256
370
-1
 48
1.0
  6
BYLAYER
100
AcDbCircle
 10
38.8765007216610385
 20
41.8109289767115939
 30
0.0
 40
4.0
100
AcDbArc
 50
180.0
 51
270.0
  0
ARC
  5
1FA
100
AcDbEntity
  8
0
 62
256
370
-1
 48
1.0
  6
BYLAYER
100
AcDbCircle
 10
190.7361059676113655
 20
153.9788006270765379
 30
0.0
 40
4.0
100
AcDbArc
 50
270.0
 51
0.0
  0
ARC
  5
1FB
100
AcDbEntity
  8
0
 62
256
370
-1
 48
1.0
  6
BYLAYER
100
AcDbCircle
 10
188.2361059676111381
 20
153.9788006270765379
 30
0.0
 40
4.0
100
AcDbArc
 50
270.0
 51
0.0
  0
ARC
  5
1FC
100
AcDbEntity
  8
0
 62
256
370
-1
 48
1.0
  6
BYLAYER
100
AcDbCircle
 10
38.8765007216610385
 20
44.3109289767115939
 30
0.0
 40
4.0
100
AcDbArc
 50
180.0
 51
270.0
  0
ARC
  5
1FD
100
AcDbEntity
  8
0
 62
256
370
-1
 48
1.0
  6
BYLAYER
100
AcDbCircle
 10
190.7361059676115929
 20
163.9788006270765379
 30
0.0
 40
4.0
100
AcDbArc
 50
270.0
 51
0.0
  0
ARC
  5
1FE
100
AcDbEntity
  8
0
 62
256
370
-1
 48
1.0
  6
BYLAYER
100
AcDbCircle
 10
48.8765007216610385
 20
41.8109289767115939
 30
0.0
 40
4.0
100
AcDbArc
 50
180.0
 51
270.0
  0
ARC
  5
1FF
100
AcDbEntity
  8
0
 62
256
370
-1
 48
1.0
  6
BYLAYER
100
AcDbCircle
 10
188.2361059676113655
 20
163.9788006270765379
 30
0.0
 40
4.0
100
AcDbArc
 50
270.0
 51
0.0
  0
ARC
  5
200
100
AcDbEntity
  8
0
 62
256
370
-1
 48
1.0
  6
BYLAYER
100
AcDbCircle
 10
48.8765007216610385
 20
44.3109289767115939
 30
0.0
 40
4.0
100
AcDbArc
 50
180.0
 51
270.0
  0
ARC
  5
201
100
AcDbEntity
  8
0
 62
256
370
-1
 48
1.0
  6
BYLAYER
100
AcDbCircle
 10
38.8765007216610385
 20
81.3109289767116223
 30
0.0
 40
4.0
100
AcDbArc
 50
90.0
 51
180.0
  0
ARC
  5
202
100
AcDbEntity
  8
0
 62
256
370
-1
 48
1.0
  6
BYLAYER
100
AcDbCircle
 10
151.2361059676113655
 20
153.9788006270765379
 30
0.0
 40
4.0
100
AcDbArc
 50
180.0
 51
270.0
  0
ARC
  5
203
100
AcDbEntity
  8
0
 62
256
370
-1
 48
1.0
  6
BYLAYER
100
AcDbCircle
 10
148.7361059676113655
 20
153.9788006270765379
 30
0.0
 40
4.0
100
AcDbArc
 50
180.0
 51
270.0
  0
ARC
  5
204
100
AcDbEntity
  8
0
 62
256
370
-1
 48
1.0
  6
BYLAYER
100
AcDbCircle
 10
38.8765007216610385
 20
83.8109289767116223
 30
0.0
 40
4.0
100
AcDbArc
 50
90.0
 51
180.0
  0
ARC
  5
205
100
AcDbEntity
  8
0
 62
256
370
-1
 48
1.0
  6
BYLAYER
100
AcDbCircle
 10
48.8765007216610385
 20
83.8109289767116223
 30
0.0
 40
4.0
100
AcDbArc
 50
90.0
 51
180.0
  0
ARC
  5
206
100
AcDbEntity
  8
0
 62
256
370
-1
 48
1.0
  6
BYLAYER
100
AcDbCircle
 10
148.7361059676113655
 20
163.9788006270765379
 30
0.0
 40
4.0
100
AcDbArc
 50
180.0
 51
270.0
  0
ARC
  5
207
100
AcDbEntity
  8
0
 62
256
370
-1
 48
1.0
  6
BYLAYER
100
AcDbCircle
 10
48.8765007216610385
 20
81.3109289767116223
 30
0.0
 40
4.0
100
AcDbArc
 50
89.9999999999996874
 51
180.0
  0
ARC
  5
208
100
AcDbEntity
  8
0
 62
256
370
-1
 48
1.0
  6
BYLAYER
100
AcDbCircle
 10
151.2361059676113655
 20
163.9788006270765379
 30
0.0
 40
4.0
100
AcDbArc
 50
179.9999999999996874
 51
270.0
  0
ARC
  5
209
100
AcDbEntity
  8
0
 62
256
370
-1
 48
1.0
  6
BYLAYER
100
AcDbCircle
 10
58.8765007216610385
 20
83.8109289767115655
 30
0.0
 40
4.0
100
AcDbArc
 50
90.0000000000000853
 51
180.0
  0
ARC
  5
20A
100
AcDbEntity
  8
0
 62
256
370
-1
 48
1.0
  6
BYLAYER
100
AcDbCircle
 10
148.7361059676113655
 20
173.9788006270765379
 30
0.0
 40
4.0
100
AcDbArc
 50
180.0000000000001137
 51
270.0
  0
ARC
  5
20B
100
AcDbEntity
  8
0
 62
256
370
-1
 48
1.0
  6
BYLAYER
100
AcDbCircle
 10
151.2361059676113655
 20
173.9788006270765379
 30
0.0
 40
4.0
100
AcDbArc
 50
180.0
 51
270.0
  0
ARC
  5
20C
100
AcDbEntity
  8
0
 62
256
370
-1
 48
1.0
  6
BYLAYER
100
AcDbCircle
 10
58.8765007216610385
 20
81.3109289767116223
 30
0.0
 40
4.0
100
AcDbArc
 50
90.0
 51
180.0
  0
ARC
  5
20D
100
AcDbEntity
  8
0
 62
256
370
-1
 48
1.0
  6
BYLAYER
100
AcDbCircle
 10
158.8928174868094629
 20
173.9734750774183851
 30
0.0
 40
4.0
100
AcDbArc
 50
180.0
 51
270.0
  0
ARC
  5
20E
100
AcDbEntity
  8
0
 62
256
370
-1
 48
1.0
  6
BYLAYER
100
AcDbCircle
 10
58.8765007216610385
 20
78.8109289767116223
 30
0.0
 40
4.0
100
AcDbArc
 50
90.0
 51
180.0
  0
ARC
  5
20F
100
AcDbEntity
  8
0
 62
256
370
-1
 48
1.0
  6
BYLAYER
100
AcDbCircle
 10
58.8711751720029426
 20
73.6542174575135675
 30
0.0
 40
4.0
100
AcDbArc
 50
90.0
 51
180.0
  0
ARC
  5
210
100
AcDbEntity
  8
0
 62
256
370
-1
 48
1.0
  6
BYLAYER
100
AcDbCircle
 10
153.7361059676113655
 20
173.9788006270765379
 30
0.0
 40
4.0
100
AcDbArc
 50
180.0
 51
270.0
  0
ARC
  5
211
100
AcDbEntity
  8
0
 62
256
370
-1
 48
1.0
  6
BYLAYER
100
AcDbCircle
 10
66.3234584417323276
 20
73.6438778557668883
 30
0.0
 40
4.0
100
AcDbArc
 50
90.0
 51
180.0
  0
ARC
  5
212
100
AcDbEntity
  8
0
 62
256
370
-1
 48
1.0
  6
BYLAYER
100
AcDbCircle
 10
158.9031570885560996
 20
181.4257583471478199
 30
0.0
 40
4.0
100
AcDbArc
 50
180.0
 51
270.0
  0
ARC
  5
213
100
AcDbEntity
  8
0
 62
256
370
-1
 48
1.0
  6
BYLAYER
100
AcDbCircle
 10
190.7361059676109107
 20
173.9788006270765379
 30
0.0
 40
4.0
100
AcDbArc
 50
270.0
 51
0.0
  0
ARC
  5
214
100
AcDbEntity
  8
0
 62
256
370
-1
 48
1.0
  6
BYLAYER
100
AcDbCircle
 10
58.8765007216610385
 20
41.8109289767115939
 30
0.0
 40
4.0
100
AcDbArc
 50
180.0
 51
270.0
  0
ARC
  5
215
100
AcDbEntity
  8
0
 62
256
370
-1
 48
1.0
  6
BYLAYER
100
AcDbCircle
 10
58.8841969023831027
 20
52.071803551066381
 30
0.0
 40
4.0
100
AcDbArc
 50
180.0
 51
270.0
  0
ARC
  5
216
100
AcDbEntity
  8
0
 62
256
370
-1
 48
1.0
  6
BYLAYER
100
AcDbCircle
 10
188.2361059676113655
 20
173.9788006270765379
 30
0.0
 40
4.0
100
AcDbArc
 50
270.0
 51
0.0
  0
ARC
  5
217
100
AcDbEntity
  8
0
 62
256
370
-1
 48
1.0
  6
BYLAYER
100
AcDbCircle
 10
180.4752313932563084
 20
181.4286740673627207
 30
0.0
 40
4.0
100
AcDbArc
 50
270.0
 51
0.0
  0
ARC
  5
218
100
AcDbEntity
  8
0
 62
256
370
-1
 48
1.0
  6
BYLAYER
100
AcDbCircle
 10
66.3263741619472285
 20
52.071803551066381
 30
0.0
 40
4.0
100
AcDbArc
 50
180.0
 51
270.0
  0
ARC
  5
219
100
AcDbEntity
  8
0
 62
256
370
-1
 48
1.0
  6
BYLAYER
100
AcDbCircle
 10
180.4752313932565357
 20
173.986496807798602
 30
0.0
 40
4.0
100
AcDbArc
 50
270.0
 51
0.0
  0
ARC
  5
21A
100
AcDbEntity
  8
0
 62
256
370
-1
 48
1.0
  6
BYLAYER
100
AcDbCircle
 10
58.8765007216610385
 20
44.3109289767115939
 30
0.0
 40
4.0
100
AcDbArc
 50
180.0
 51
270.0
  0
ARC
  5
21B
100
AcDbEntity
  8
0
 62
256
370
-1
 48
1.0
  6
BYLAYER
100
AcDbCircle
 10
185.7361059676113655
 20
173.9788006270765379
 30
0.0
 40
4.0
100
AcDbArc
 50
270.0
 51
0.0
  0
ARC
  5
21C
100
AcDbEntity
  8
0
 62
256
370
-1
 48
1.0
  6
BYLAYER
100
AcDbCircle
 10
58.8765007216610385
 20
46.8109289767116223
 30
0.0
 40
4.0
100
AcDbArc
 50
180.0
 51
270.0
  0
ARC
  5
21D
100
AcDbEntity
  8
0
 62
256
370
-1
 48
1.0
  6
BYLAYER
100
AcDbCircle
 10
190.7361059676111381
 20
265.9788006270765663
 30
0.0
 40
4.0
100
AcDbArc
 50
0.0
 51
90.0
  0
ARC
  5
21E
100
AcDbEntity
  8
0
 62
256
370
-1
 48
1.0
  6
BYLAYER
100
AcDbCircle
 10
150.8765007216610456
 20
41.8109289767115939
 30
0.0
 40
4.0
100
AcDbArc
 50
270.0
 51
0.0
  0
ARC
  5
21F
100
AcDbEntity
  8
0
 62
256
370
-1
 48
1.0
  6
BYLAYER
100
AcDbCircle
 10
188.2361059676118202
 20
265.9788006270764527
 30
0.0
 40
4.0
100
AcDbArc
 50
0.0
 51
90.0
  0
ARC
  5
220
100
AcDbEntity
  8
0
 62
256
370
-1
 48
1.0
  6
BYLAYER
100
AcDbCircle
 10
150.876500721660932
 20
44.3109289767115939
 30
0.0
 40
4.0
100
AcDbArc
 50
270.0
 51
0.0
  0
ARC
  5
221
100
AcDbEntity
  8
0
 62
256
370
-1
 48
1.0
  6
BYLAYER
100
AcDbCircle
 10
140.8765007216610456
 20
41.8109289767115939
 30
0.0
 40
4.0
100
AcDbArc
 50
270.0
 51
0.0
  0
ARC
  5
222
100
AcDbEntity
  8
0
 62
256
370
-1
 48
1.0
  6
BYLAYER
100
AcDbCircle
 10
190.7361059676109107
 20
255.9788006270765663
 30
0.0
 40
4.0
100
AcDbArc
 50
0.0
 51
90.0
  0
ARC
  5
223
100
AcDbEntity
  8
0
 62
256
370
-1
 48
1.0
  6
BYLAYER
100
AcDbCircle
 10
188.2361059676113655
 20
255.9788006270765663
 30
0.0
 40
4.0
100
AcDbArc
 50
0.0
 51
90.0
  0
ARC
  5
224
100
AcDbEntity
  8
0
 62
256
370
-1
 48
1.0
  6
BYLAYER
100
AcDbCircle
 10
140.8765007216610456
 20
44.3109289767115939
 30
0.0
 40
4.0
100
AcDbArc
 50
270.0
 51
0.0
  0
ARC
  5
225
100
AcDbEntity
  8
0
 62
256
370
-1
 48
1.0
  6
BYLAYER
100
AcDbCircle
 10
130.8765007216610456
 20
41.8109289767116223
 30
0.0
 40
4.0
100
AcDbArc
 50
270.0
 51
0.0
  0
ARC
  5
226
100
AcDbEntity
  8
0
 62
256
370
-1
 48
1.0
  6
BYLAYER
100
AcDbCircle
 10
190.7361059676120476
 20
245.9788006270765379
 30
0.0
 40
4.0
100
AcDbArc
 50
0.0
 51
90.0
  0
ARC
  5
227
100
AcDbEntity
  8
0
 62
256
370
-1
 48
1.0
  6
BYLAYER
100
AcDbCircle
 10
188.2361059676113655
 20
245.9788006270765379
 30
0.0
 40
4.0
100
AcDbArc
 50
0.0
 51
90.0
  0
ARC
  5
228
100
AcDbEntity
  8
0
 62
256
370
-1
 48
1.0
  6
BYLAYER
100
AcDbCircle
 10
130.8765007216610456
 20
44.3109289767115939
 30
0.0
 40
4.0
100
AcDbArc
 50
270.0
 51
0.0
  0
ARC
  5
229
100
AcDbEntity
  8
0
 62
256
370
-1
 48
1.0
  6
BYLAYER
100
AcDbCircle
 10
130.8765007216610456
 20
46.8109289767115939
 30
0.0
 40
4.0
100
AcDbArc
 50
270.0
 51
0.0
  0
ARC
  5
22A
100
AcDbEntity
  8
0
 62
256
370
-1
 48
1.0
  6
BYLAYER
100
AcDbCircle
 10
123.3253446470284871
 20
52.0811213288782255
 30
0.0
 40
4.0
100
AcDbArc
 50
270.0
 51
0.0
  0
ARC
  5
22B
100
AcDbEntity
  8
0
 62
256
370
-1
 48
1.0
  6
BYLAYER
100
AcDbCircle
 10
185.7361059676111381
 20
245.9788006270765379
 30
0.0
 40
4.0
100
AcDbArc
 50
0.0
 51
90.0
  0
ARC
  5
22C
100
AcDbEntity
  8
0
 62
256
370
-1
 48
1.0
  6
BYLAYER
100
AcDbCircle
 10
180.4659136154450607
 20
238.4276445524439794
 30
0.0
 40
4.0
100
AcDbArc
 50
0.0
 51
90.0
  0
ARC
  5
22D
100
AcDbEntity
  8
0
 62
256
370
-1
 48
1.0
  6
BYLAYER
100
AcDbCircle
 10
180.4659136154448333
 20
245.9667251617419481
 30
0.0
 40
4.0
100
AcDbArc
 50
0.0
 51
90.0
  0
ARC
  5
22E
100
AcDbEntity
  8
0
 62
256
370
-1
 48
1.0
  6
BYLAYER
100
AcDbCircle
 10
130.8644252563265127
 20
52.0811213288782255
 30
0.0
 40
4.0
100
AcDbArc
 50
270.0
 51
0.0
  0
ARC
  5
22F
100
AcDbEntity
  8
0
 62
256
370
-1
 48
1.0
  6
BYLAYER
100
AcDbCircle
 10
148.7361059676113655
 20
265.9788006270765663
 30
0.0
 40
4.0
100
AcDbArc
 50
90.0
 51
180.0
  0
ARC
  5
230
100
AcDbEntity
  8
0
 62
256
370
-1
 48
1.0
  6
BYLAYER
100
AcDbCircle
 10
150.8765007216610456
 20
83.8109289767116223
 30
0.0
 40
4.0
100
AcDbArc
 50
0.0
 51
90.0
  0
ARC
  5
231
100
AcDbEntity
  8
0
 62
256
370
-1
 48
1.0
  6
BYLAYER
100
AcDbCircle
 10
150.8765007216610456
 20
81.3109289767116223
 30
0.0
 40
4.0
100
AcDbArc
 50
0.0
 51
90.0
  0
ARC
  5
232
100
AcDbEntity
  8
0
 62
256
370
-1
 48
1.0
  6
BYLAYER
100
AcDbCircle
 10
151.2361059676113655
 20
265.9788006270765663
 30
0.0
 40
4.0
100
AcDbArc
 50
90.0
 51
180.0
  0
ARC
  5
233
100
AcDbEntity
  8
0
 62
256
370
-1
 48
1.0
  6
BYLAYER
100
AcDbCircle
 10
148.7361059676111381
 20
255.9788006270765663
 30
0.0
 40
4.0
100
AcDbArc
 50
90.0
 51
180.0
  0
ARC
  5
234
100
AcDbEntity
  8
0
 62
256
370
-1
 48
1.0
  6
BYLAYER
100
AcDbCircle
 10
140.8765007216610456
 20
83.8109289767116223
 30
0.0
 40
4.0
100
AcDbArc
 50
0.0
 51
90.0
  0
ARC
  5
235
100
AcDbEntity
  8
0
 62
256
370
-1
 48
1.0
  6
BYLAYER
100
AcDbCircle
 10
151.2361059676113655
 20
255.9788006270765663
 30
0.0
 40
4.0
100
AcDbArc
 50
90.0
 51
180.0
  0
ARC
  5
236
100
AcDbEntity
  8
0
 62
256
370
-1
 48
1.0
  6
BYLAYER
100
AcDbCircle
 10
140.8765007216610456
 20
81.3109289767116223
 30
0.0
 40
4.0
100
AcDbArc
 50
0.0
 51
90.0
  0
ARC
  5
237
100
AcDbEntity
  8
0
 62
256
370
-1
 48
1.0
  6
BYLAYER
100
AcDbCircle
 10
153.7361059676115929
 20
245.9788006270765379
 30
0.0
 40
4.0
100
AcDbArc
 50
90.0
 51
180.0
  0
ARC
  5
238
100
AcDbEntity
  8
0
 62
256
370
-1
 48
1.0
  6
BYLAYER
100
AcDbCircle
 10
158.9031570885560996
 20
238.4257583471478767
 30
0.0
 40
4.0
100
AcDbArc
 50
90.0
 51
180.0
  0
ARC
  5
239
100
AcDbEntity
  8
0
 62
256
370
-1
 48
1.0
  6
BYLAYER
100
AcDbCircle
 10
130.8765007216610456
 20
78.8109289767116223
 30
0.0
 40
4.0
100
AcDbArc
 50
0.0
 51
90.0
  0
ARC
  5
23A
100
AcDbEntity
  8
0
 62
256
370
-1
 48
1.0
  6
BYLAYER
100
AcDbCircle
 10
158.8930123734264725
 20
245.9783856974215439
 30
0.0
 40
4.0
100
AcDbArc
 50
90.0
 51
180.0
  0
ARC
  5
23B
100
AcDbEntity
  8
0
 62
256
370
-1
 48
1.0
  6
BYLAYER
100
AcDbCircle
 10
130.8760857920060516
 20
73.6540225708965579
 30
0.0
 40
4.0
100
AcDbArc
 50
0.0
 51
90.0
  0
ARC
  5
23C
100
AcDbEntity
  8
0
 62
256
370
-1
 48
1.0
  6
BYLAYER
100
AcDbCircle
 10
123.3234584417323276
 20
73.6438778557668883
 30
0.0
 40
4.0
100
AcDbArc
 50
0.0
 51
90.0
  0
ARC
  5
23D
100
AcDbEntity
  8
0
 62
256
370
-1
 48
1.0
  6
BYLAYER
100
AcDbCircle
 10
130.8765007216610456
 20
81.3109289767116223
 30
0.0
 40
4.0
100
AcDbArc
 50
0.0
 51
90.0
  0
ARC
  5
23E
100
AcDbEntity
  8
0
 62
256
370
-1
 48
1.0
  6
BYLAYER
100
AcDbCircle
 10
151.2361059676113655
 20
245.9788006270765379
 30
0.0
 40
4.0
100
AcDbArc
 50
90.0
 51
180.0
  0
ARC
  5
23F
100
AcDbEntity
  8
0
 62
256
370
-1
 48
1.0
  6
BYLAYER
100
AcDbCircle
 10
130.8765007216610456
 20
83.8109289767116223
 30
0.0
 40
4.0
100
AcDbArc
 50
0.0
 51
90.0
  0
ARC
  5
240
100
AcDbEntity
  8
0
 62
256
370
-1
 48
1.0
  6
BYLAYER
100
AcDbCircle
 10
148.7361059676113655
 20
245.9788006270765379
 30
0.0
 40
4.0
100
AcDbArc
 50
90.0
 51
180.0
  0
LINE
  5
241
100
AcDbEntity
100
AcDbLine
  8
0
 62
256
370
-1
 48
1.0
  6
BYLAYER
 10
192.2361059676118202
 20
143.9788006270765379
 30
0.0
 11
192.2361059676115929
 21
173.9788006270765379
 31
0.0
  0
LINE
  5
242
100
AcDbEntity
100
AcDbLine
  8
0
 62
256
370
-1
 48
1.0
  6
BYLAYER
 10
28.8765007216610385
 20
40.3109289767115939
 30
0.0
 11
58.8765007216610385
 21
40.3109289767115939
 31
0.0
  0
LINE
  5
243
100
AcDbEntity
100
AcDbLine
  8
0
 62
256
370
-1
 48
1.0
  6
BYLAYER
 10
28.8765007216610385
 20
37.8109289767115939
 30
0.0
 11
34.8765007216610385
 21
37.8109289767115939
 31
0.0
  0
LINE
  5
244
100
AcDbEntity
100
AcDbLine
  8
0
 62
256
370
-1
 48
1.0
  6
BYLAYER
 10
194.7361059676113655
 20
143.9788006270765379
 30
0.0
 11
194.7361059676113655
 21
149.9788006270765379
 31
0.0
  0
LINE
  5
245
100
AcDbEntity
100
AcDbLine
  8
0
 62
256
370
-1
 48
1.0
  6
BYLAYER
 10
147.2361059676113655
 20
143.9788006270765379
 30
0.0
 11
147.2361059676113655
 21
173.9788006270765379
 31
0.0
  0
LINE
  5
246
100
AcDbEntity
100
AcDbLine
  8
0
 62
256
370
-1
 48
1.0
  6
BYLAYER
 10
28.8765007216610385
 20
85.3109289767115655
 30
0.0
 11
58.8765007216610385
 21
85.3109289767116223
 31
0.0
  0
LINE
  5
247
100
AcDbEntity
100
AcDbLine
  8
0
 62
256
370
-1
 48
1.0
  6
BYLAYER
 10
54.8765007216610385
 20
81.3109289767116223
 30
0.0
 11
54.8765007216610385
 21
83.8109289767115655
 31
0.0
  0
LINE
  5
248
100
AcDbEntity
100
AcDbLine
  8
0
 62
256
370
-1
 48
1.0
  6
BYLAYER
 10
151.2361059676113655
 20
169.9788006270765379
 30
0.0
 11
148.7361059676113655
 21
169.9788006270765379
 31
0.0
  0
LINE
  5
249
100
AcDbEntity
100
AcDbLine
  8
0
 62
256
370
-1
 48
1.0
  6
BYLAYER
 10
188.2361059676113655
 20
159.9788006270765379
 30
0.0
 11
148.7361059676113655
 21
159.9788006270765379
 31
0.0
  0
LINE
  5
24A
100
AcDbEntity
100
AcDbLine
  8
0
 62
256
370
-1
 48
1.0
  6
BYLAYER
 10
44.8765007216610385
 20
44.3109289767115939
 30
0.0
 11
44.8765007216610385
 21
83.8109289767116223
 31
0.0
  0
LINE
  5
24B
100
AcDbEntity
100
AcDbLine
  8
0
 62
256
370
-1
 48
1.0
  6
BYLAYER
 10
44.8765007216610385
 20
83.8109289767116223
 30
0.0
 11
44.8765007216610385
 21
41.8109289767115939
 31
0.0
  0
LINE
  5
24C
100
AcDbEntity
100
AcDbLine
  8
0
 62
256
370
-1
 48
1.0
  6
BYLAYER
 10
148.7361059676113655
 20
159.9788006270765379
 30
0.0
 11
190.7361059676115929
 21
159.9788006270765379
 31
0.0
  0
LINE
  5
24D
100
AcDbEntity
100
AcDbLine
  8
0
 62
256
370
-1
 48
1.0
  6
BYLAYER
 10
28.8765007216610385
 20
87.8109289767116223
 30
0.0
 11
34.8765007216610385
 21
87.8109289767116223
 31
0.0
  0
LINE
  5
24E
100
AcDbEntity
100
AcDbLine
  8
0
 62
256
370
-1
 48
1.0
  6
BYLAYER
 10
144.7361059676113655
 20
143.9788006270765379
 30
0.0
 11
144.7361059676113655
 21
149.9788006270765379
 31
0.0
  0
LINE
  5
24F
100
AcDbEntity
100
AcDbLine
  8
0
 62
256
370
-1
 48
1.0
  6
BYLAYER
 10
34.8765007216610385
 20
83.8109289767116223
 30
0.0
 11
34.8765007216610385
 21
87.8109289767116223
 31
0.0
  0
LINE
  5
250
100
AcDbEntity
100
AcDbLine
  8
0
 62
256
370
-1
 48
1.0
  6
BYLAYER
 10
148.7361059676113655
 20
149.9788006270765379
 30
0.0
 11
144.7361059676113655
 21
149.9788006270765379
 31
0.0
  0
LINE
  5
251
100
AcDbEntity
100
AcDbLine
  8
0
 62
256
370
-1
 48
1.0
  6
BYLAYER
 10
190.7361059676115929
 20
159.9788006270765379
 30
0.0
 11
194.7361059676118202
 21
159.9788006270765379
 31
0.0
  0
LINE
  5
252
100
AcDbEntity
100
AcDbLine
  8
0
 62
256
370
-1
 48
1.0
  6
BYLAYER
 10
44.8765007216610385
 20
41.8109289767115939
 30
0.0
 11
44.8765007216610385
 21
37.8109289767115939
 31
0.0
  0
LINE
  5
253
100
AcDbEntity
100
AcDbLine
  8
0
 62
256
370
-1
 48
1.0
  6
BYLAYER
 10
44.8765007216610385
 20
83.8109289767116223
 30
0.0
 11
44.8765007216610385
 21
87.8109289767116223
 31
0.0
  0
LINE
  5
254
100
AcDbEntity
100
AcDbLine
  8
0
 62
256
370
-1
 48
1.0
  6
BYLAYER
 10
148.7361059676113655
 20
159.9788006270765379
 30
0.0
 11
144.7361059676113655
 21
159.9788006270765379
 31
0.0
  0
LINE
  5
255
100
AcDbEntity
100
AcDbLine
  8
0
 62
256
370
-1
 48
1.0
  6
BYLAYER
 10
148.7361059676113655
 20
169.9788006270765379
 30
0.0
 11
144.7361059676113655
 21
169.9788006270765379
 31
0.0
  0
LINE
  5
256
100
AcDbEntity
100
AcDbLine
  8
0
 62
256
370
-1
 48
1.0
  6
BYLAYER
 10
54.8765007216610385
 20
83.8109289767115655
 30
0.0
 11
54.8765007216610385
 21
87.8109289767116223
 31
0.0
  0
LINE
  5
257
100
AcDbEntity
100
AcDbLine
  8
0
 62
256
370
-1
 48
1.0
  6
BYLAYER
 10
54.8765007216610385
 20
42.8109289767115939
 30
0.0
 11
54.8765007216610385
 21
37.8109289767115939
 31
0.0
  0
LINE
  5
258
100
AcDbEntity
100
AcDbLine
  8
0
 62
256
370
-1
 48
1.0
  6
BYLAYER
 10
189.7361059676113655
 20
169.9788006270765379
 30
0.0
 11
194.7361059676120476
 21
169.9788006270765379
 31
0.0
  0
LINE
  5
259
100
AcDbEntity
100
AcDbLine
  8
0
 62
256
370
-1
 48
1.0
  6
BYLAYER
 10
144.7361059676113655
 20
255.9788006270765663
 30
0.0
 11
194.7361059676106834
 21
255.9788006270765663
 31
0.0
  0
LINE
  5
25A
100
AcDbEntity
100
AcDbLine
  8
0
 62
256
370
-1
 48
1.0
  6
BYLAYER
 10
140.8765007216610456
 20
87.8109289767116223
 30
0.0
 11
140.8765007216610456
 21
37.8109289767115939
 31
0.0
  0
LINE
  5
25B
100
AcDbEntity
100
AcDbLine
  8
0
 62
256
370
-1
 48
1.0
  6
BYLAYER
 10
140.8765007216610456
 20
37.8109289767115939
 30
0.0
 11
160.8765007216610456
 21
37.8109289767116223
 31
0.0
  0
LINE
  5
25C
100
AcDbEntity
100
AcDbLine
  8
0
 62
256
370
-1
 48
1.0
  6
BYLAYER
 10
194.7361059676106834
 20
255.9788006270765663
 30
0.0
 11
194.7361059676136392
 21
275.9788006270765663
 31
0.0
  0
LINE
  5
25D
100
AcDbEntity
100
AcDbLine
  8
0
 62
256
370
-1
 48
1.0
  6
BYLAYER
 10
160.8765007216610456
 20
37.8109289767116223
 30
0.0
 11
160.8765007216610456
 21
87.8109289767116223
 31
0.0
  0
LINE
  5
25E
100
AcDbEntity
100
AcDbLine
  8
0
 62
256
370
-1
 48
1.0
  6
BYLAYER
 10
194.7361059676136392
 20
275.9788006270765663
 30
0.0
 11
144.7361059676113655
 21
275.9788006270765663
 31
0.0
  0
LINE
  5
25F
100
AcDbEntity
100
AcDbLine
  8
0
 62
256
370
-1
 48
1.0
  6
BYLAYER
 10
160.8765007216610456
 20
87.8109289767116223
 30
0.0
 11
150.8765007216610456
 21
87.8109289767116223
 31
0.0
  0
LINE
  5
260
100
AcDbEntity
100
AcDbLine
  8
0
 62
256
370
-1
 48
1.0
  6
BYLAYER
 10
144.7361059676113655
 20
275.9788006270765663
 30
0.0
 11
144.7361059676113655
 21
265.9788006270765663
 31
0.0
  0
LINE
  5
261
100
AcDbEntity
100
AcDbLine
  8
0
 62
256
370
-1
 48
1.0
  6
BYLAYER
 10
144.7361059676113655
 20
265.9788006270765663
 30
0.0
 11
194.7361059676102286
 21
265.9788006270765663
 31
0.0
  0
LINE
  5
262
100
AcDbEntity
100
AcDbLine
  8
0
 62
256
370
-1
 48
1.0
  6
BYLAYER
 10
150.8765007216610456
 20
87.8109289767116223
 30
0.0
 11
150.8765007216610456
 21
37.8109289767116223
 31
0.0
  0
LINE
  5
263
100
AcDbEntity
100
AcDbLine
  8
0
 62
256
370
-1
 48
1.0
  6
BYLAYER
 10
144.8765007216610456
 20
41.8109289767115939
 30
0.0
 11
144.8765007216610456
 21
37.8109289767115939
 31
0.0
  0
LINE
  5
264
100
AcDbEntity
100
AcDbLine
  8
0
 62
256
370
-1
 48
1.0
  6
BYLAYER
 10
190.7361059676111381
 20
259.9788006270765663
 30
0.0
 11
194.7361059676097739
 21
259.9788006270765663
 31
0.0
  0
LINE
  5
265
100
AcDbEntity
100
AcDbLine
  8
0
 62
256
370
-1
 48
1.0
  6
BYLAYER
 10
194.7361059676097739
 20
259.9788006270765663
 30
0.0
 11
144.7361059676113655
 21
259.9788006270765663
 31
0.0
  0
LINE
  5
266
100
AcDbEntity
100
AcDbLine
  8
0
 62
256
370
-1
 48
1.0
  6
BYLAYER
 10
144.8765007216610456
 20
37.8109289767115939
 30
0.0
 11
144.8765007216610456
 21
87.8109289767116223
 31
0.0
  0
LINE
  5
267
100
AcDbEntity
100
AcDbLine
  8
0
 62
256
370
-1
 48
1.0
  6
BYLAYER
 10
130.8765007216610456
 20
85.3109289767116223
 30
0.0
 11
164.8765007216610456
 21
85.3109289767116223
 31
0.0
  0
LINE
  5
268
100
AcDbEntity
100
AcDbLine
  8
0
 62
256
370
-1
 48
1.0
  6
BYLAYER
 10
147.2361059676113655
 20
245.9788006270765379
 30
0.0
 11
147.2361059676113655
 21
279.9788006270765663
 31
0.0
  0
LINE
  5
269
100
AcDbEntity
100
AcDbLine
  8
0
 62
256
370
-1
 48
1.0
  6
BYLAYER
 10
192.2361059676120476
 20
245.9788006270765379
 30
0.0
 11
192.2361059676109107
 21
279.9788006270765663
 31
0.0
  0
LINE
  5
26A
100
AcDbEntity
100
AcDbLine
  8
0
 62
256
370
-1
 48
1.0
  6
BYLAYER
 10
130.8765007216610456
 20
40.3109289767115939
 30
0.0
 11
164.8765007216610456
 21
40.3109289767115939
 31
0.0
  0
LINE
  5
26B
100
AcDbEntity
100
AcDbLine
  8
0
 62
256
370
-1
 48
1.0
  6
BYLAYER
 10
54.8242965997576377
 20
77.6639946923100837
 30
0.0
 11
134.8765007216610456
 21
77.6639946923100837
 31
0.0
  0
LINE
  5
26C
100
AcDbEntity
100
AcDbLine
  8
0
 62
256
370
-1
 48
1.0
  6
BYLAYER
 10
154.883040252012961
 20
169.9265965051731939
 30
0.0
 11
154.883040252012961
 21
249.9788006270765663
 31
0.0
  0
LINE
  5
26D
100
AcDbEntity
100
AcDbLine
  8
0
 62
256
370
-1
 48
1.0
  6
BYLAYER
 10
54.8381211882351565
 20
48.0769319351084761
 30
0.0
 11
134.8765007216610456
 21
48.0769319351084761
 31
0.0
  0
LINE
  5
26E
100
AcDbEntity
100
AcDbLine
  8
0
 62
256
370
-1
 48
1.0
  6
BYLAYER
 10
184.4701030092141991
 20
169.9404210936507127
 30
0.0
 11
184.4701030092141991
 21
249.9788006270765663
 31
0.0
  0
LINE
  5
26F
100
AcDbEntity
100
AcDbLine
  8
0
 62
256
370
-1
 48
1.0
  6
BYLAYER
 10
62.3234584417323205
 20
77.6438778557668883
 30
0.0
 11
62.3234584417323205
 21
48.0769319351084761
 31
0.0
  0
LINE
  5
270
100
AcDbEntity
100
AcDbLine
  8
0
 62
256
370
-1
 48
1.0
  6
BYLAYER
 10
154.9031570885560996
 20
177.4257583471478199
 30
0.0
 11
184.4701030092144265
 21
177.4257583471478199
 31
0.0
  0
LINE
  5
271
100
AcDbEntity
100
AcDbLine
  8
0
 62
256
370
-1
 48
1.0
  6
BYLAYER
 10
154.9031570885560996
 20
242.4257583471478199
 30
0.0
 11
184.4701030092144265
 21
242.4257583471478199
 31
0.0
  0
LINE
  5
272
100
AcDbEntity
100
AcDbLine
  8
0
 62
256
370
-1
 48
1.0
  6
BYLAYER
 10
127.3234584417323276
 20
77.6438778557668883
 30
0.0
 11
127.3234584417323276
 21
48.0769319351084761
 31
0.0
  0
LINE
  5
273
100
AcDbEntity
100
AcDbLine
  8
0
 62
256
370
-1
 48
1.0
  6
BYLAYER
 10
-0.0000000000000071
 20
0.0
 30
0.0
 11
210.0
 21
0.0
 31
0.0
  0
LINE
  5
274
100
AcDbEntity
100
AcDbLine
  8
0
 62
256
370
-1
 48
1.0
  6
BYLAYER
 10
210.0
 20
0.0
 30
0.0
 11
210.0
 21
297.0
 31
0.0
  0
LINE
  5
275
100
AcDbEntity
100
AcDbLine
  8
0
 62
256
370
-1
 48
1.0
  6
BYLAYER
 10
210.0
 20
297.0
 30
0.0
 11
-0.0000000000000071
 21
297.0
 31
0.0
  0
LINE
  5
276
100
AcDbEntity
100
AcDbLine
  8
0
 62
256
370
-1
 48
1.0
  6
BYLAYER
 10
-0.0000000000000071
 20
297.0
 30
0.0
 11
-0.0000000000000071
 21
0.0
 31
0.0
  0
ENDSEC
  0
SECTION
  2
OBJECTS
  0
DICTIONARY
  5
C
100
AcDbDictionary
280
0
281
1
  3
ACAD_GROUP
350
D
  3
ACAD_LAYOUT
350
1A
  3
ACAD_MLINESTYLE
350
17
  3
ACAD_PLOTSETTINGS
350
19
  3
ACAD_PLOTSTYLENAME
350
E
  3
AcDbVariableDictionary
350
277
  3
QCAD_OBJECTS
350
278
  0
DICTIONARY
  5
D
100
AcDbDictionary
280
0
281
1
  0
ACDBDICTIONARYWDFLT
  5
E
100
AcDbDictionary
281
1
  3
Normal
350
F
100
AcDbDictionaryWithDefault
340
F
  0
ACDBPLACEHOLDER
  5
F
  0
DICTIONARY
  5
17
100
AcDbDictionary
280
0
281
1
  3
Standard
350
18
  0
MLINESTYLE
  5
18
100
AcDbMlineStyle
  2
STANDARD
 70
0
  3

 62
256
 51
90.0
 52
90.0
 71
2
 49
0.5
 62
256
  6
BYLAYER
 49
-0.5
 62
256
  6
BYLAYER
  0
DICTIONARY
  5
19
100
AcDbDictionary
280
0
281
1
  0
DICTIONARY
  5
1A
100
AcDbDictionary
281
1
  3
Layout1
350
1E
  3
Layout2
350
26
  3
Model
350
22
  0
LAYOUT
  5
1E
100
AcDbPlotSettings
  1

  2
none_device
  4

  6

 40
0.0
 41
0.0
 42
0.0
 43
0.0
 44
0.0
 45
0.0
 46
0.0
 47
0.0
 48
0.0
 49
0.0
140
0.0
141
0.0
142
1.0
143
1.0
 70
688
 72
0
 73
0
 74
5
  7

 75
16
147
1.0
148
0.0
149
0.0
100
AcDbLayout
  1
Layout1
 70
1
 71
1
 10
0.0
 20
0.0
 11
420.0
 21
297.0
 12
0.0
 22
0.0
 32
0.0
 14
100000000000000000000.0
 24
100000000000000000000.0
 34
100000000000000000000.0
 15
-100000000000000000000.0
 25
-100000000000000000000.0
 35
-100000000000000000000.0
146
0.0
 13
0.0
 23
0.0
 33
0.0
 16
1.0
 26
0.0
 36
0.0
 17
0.0
 27
1.0
 37
0.0
 76
0
330
1B
  0
LAYOUT
  5
22
100
AcDbPlotSettings
  1

  2
none_device
  4

  6

 40
0.0
 41
0.0
 42
0.0
 43
0.0
 44
0.0
 45
0.0
 46
0.0
 47
0.0
 48
0.0
 49
0.0
140
0.0
141
0.0
142
1.0
143
1.0
 70
1712
 72
0
 73
0
 74
0
  7

 75
0
147
1.0
148
0.0
149
0.0
100
AcDbLayout
  1
Model
 70
1
 71
0
 10
0.0
 20
0.0
 11
12.0
 21
9.0
 12
0.0
 22
0.0
 32
0.0
 14
0.0
 24
0.0
 34
0.0
 15
0.0
 25
0.0
 35
0.0
146
0.0
 13
0.0
 23
0.0
 33
0.0
 16
1.0
 26
0.0
 36
0.0
 17
0.0
 27
1.0
 37
0.0
 76
0
330
1F
  0
LAYOUT
  5
26
100
AcDbPlotSettings
  1

  2
none_device
  4

  6

 40
0.0
 41
0.0
 42
0.0
 43
0.0
 44
0.0
 45
0.0
 46
0.0
 47
0.0
 48
0.0
 49
0.0
140
0.0
141
0.0
142
1.0
143
1.0
 70
688
 72
0
 73
0
 74
5
  7

 75
16
147
1.0
148
0.0
149
0.0
100
AcDbLayout
  1
Layout2
 70
1
 71
2
 10
0.0
 20
0.0
 11
12.0
 21
9.0
 12
0.0
 22
0.0
 32
0.0
 14
0.0
 24
0.0
 34
0.0
 15
0.0
 25
0.0
 35
0.0
146
0.0
 13
0.0
 23
0.0
 33
0.0
 16
1.0
 26
0.0
 36
0.0
 17
0.0
 27
1.0
 37
0.0
 76
0
330
23
  0
DICTIONARY
  5
277
100
AcDbDictionary
281
1
  3
DIMASSOC
350
27A
  3
HIDETEXT
350
279
  0
DICTIONARYVAR
  5
279
100
DictionaryVariables
280
0
  1
2
  0
DICTIONARYVAR
  5
27A
100
DictionaryVariables
280
0
  1
1
  0
DICTIONARY
  5
278
100
AcDbDictionary
281
1
  3
ColorSettings/BackgroundColor
350
27B
  3
ColorSettings/ColorMode
350
27C
  3
Grid/DisplayGrid00
350
27D
  3
Grid/DisplayGrid01
350
27E
  3
Grid/DisplayGrid02
350
27F
  3
Grid/DisplayGrid03
350
280
  3
Grid/GridSpacingX00
350
281
  3
Grid/GridSpacingX01
350
282
  3
Grid/GridSpacingX02
350
283
  3
Grid/GridSpacingX03
350
284
  3
Grid/GridSpacingY00
350
285
  3
Grid/GridSpacingY01
350
286
  3
Grid/GridSpacingY02
350
287
  3
Grid/GridSpacingY03
350
288
  3
Grid/IsometricGrid00
350
289
  3
Grid/IsometricGrid01
350
28A
  3
Grid/IsometricGrid02
350
28B
  3
Grid/IsometricGrid03
350
28C
  3
Grid/IsometricProjection00
350
28D
  3
Grid/IsometricProjection01
350
28E
  3
Grid/IsometricProjection02
350
28F
  3
Grid/IsometricProjection03
350
290
  3
Grid/MetaGridSpacingX00
350
291
  3
Grid/MetaGridSpacingX01
350
292
  3
Grid/MetaGridSpacingX02
350
293
  3
Grid/MetaGridSpacingX03
350
294
  3
Grid/MetaGridSpacingY00
350
295
  3
Grid/MetaGridSpacingY01
350
296
  3
Grid/MetaGridSpacingY02
350
297
  3
Grid/MetaGridSpacingY03
350
298
  3
MultiPageSettings/Columns
350
299
  3
MultiPageSettings/GlueMarginsBottom
350
29A
  3
MultiPageSettings/GlueMarginsLeft
350
29B
  3
MultiPageSettings/GlueMarginsRight
350
29C
  3
MultiPageSettings/GlueMarginsTop
350
29D
  3
MultiPageSettings/PrintCropMarks
350
29E
  3
MultiPageSettings/Rows
350
29F
  3
PageSettings/OffsetX
350
2A0
  3
PageSettings/OffsetY
350
2A1
  3
PageSettings/PageOrientation
350
2A2
  3
PageSettings/PaperHeight
350
2A3
  3
PageSettings/PaperWidth
350
2A4
  3
PageSettings/Scale
350
2A5
  3
PageSettings/ShowPaperBorders
350
2A6
  3
UnitSettings/PaperUnit
350
2A7
  3
ViewportCenter
350
2A8
  3
ViewportHeight
350
2A9
  3
ViewportWidth
350
2AA
  0
XRECORD
  5
27B
330
278
100
AcDbXrecord
280
1
1000
White
  0
XRECORD
  5
27C
330
278
100
AcDbXrecord
280
1
1000
FullColor
  0
XRECORD
  5
27D
330
278
100
AcDbXrecord
280
1
290
1
  0
XRECORD
  5
27E
330
278
100
AcDbXrecord
280
1
290
1
  0
XRECORD
  5
27F
330
278
100
AcDbXrecord
280
1
290
1
  0
XRECORD
  5
280
330
278
100
AcDbXrecord
280
1
290
1
  0
XRECORD
  5
281
330
278
100
AcDbXrecord
280
1
1000
auto
  0
XRECORD
  5
282
330
278
100
AcDbXrecord
280
1
1000
auto
  0
XRECORD
  5
283
330
278
100
AcDbXrecord
280
1
1000
auto
  0
XRECORD
  5
284
330
278
100
AcDbXrecord
280
1
1000
auto
  0
XRECORD
  5
285
330
278
100
AcDbXrecord
280
1
1000
auto
  0
XRECORD
  5
286
330
278
100
AcDbXrecord
280
1
1000
auto
  0
XRECORD
  5
287
330
278
100
AcDbXrecord
280
1
1000
auto
  0
XRECORD
  5
288
330
278
100
AcDbXrecord
280
1
1000
auto
  0
XRECORD
  5
289
330
278
100
AcDbXrecord
280
1
290
0
  0
XRECORD
  5
28A
330
278
100
AcDbXrecord
280
1
290
0
  0
XRECORD
  5
28B
330
278
100
AcDbXrecord
280
1
290
0
  0
XRECORD
  5
28C
330
278
100
AcDbXrecord
280
1
290
0
  0
XRECORD
  5
28D
330
278
100
AcDbXrecord
280
1
 90
0
  0
XRECORD
  5
28E
330
278
100
AcDbXrecord
280
1
 90
0
  0
XRECORD
  5
28F
330
278
100
AcDbXrecord
280
1
 90
0
  0
XRECORD
  5
290
330
278
100
AcDbXrecord
280
1
 90
0
  0
XRECORD
  5
291
330
278
100
AcDbXrecord
280
1
1000
auto
  0
XRECORD
  5
292
330
278
100
AcDbXrecord
280
1
1000
auto
  0
XRECORD
  5
293
330
278
100
AcDbXrecord
280
1
1000
auto
  0
XRECORD
  5
294
330
278
100
AcDbXrecord
280
1
1000
auto
  0
XRECORD
  5
295
330
278
100
AcDbXrecord
280
1
1000
auto
  0
XRECORD
  5
296
330
278
100
AcDbXrecord
280
1
1000
auto
  0
XRECORD
  5
297
330
278
100
AcDbXrecord
280
1
1000
auto
  0
XRECORD
  5
298
330
278
100
AcDbXrecord
280
1
1000
auto
  0
XRECORD
  5
299
330
278
100
AcDbXrecord
280
1
 90
1
  0
XRECORD
  5
29A
330
278
100
AcDbXrecord
280
1
 40
10.0
  0
XRECORD
  5
29B
330
278
100
AcDbXrecord
280
1
 40
10.0
  0
XRECORD
  5
29C
330
278
100
AcDbXrecord
280
1
 40
10.0
  0
XRECORD
  5
29D
330
278
100
AcDbXrecord
280
1
 40
10.0
  0
XRECORD
  5
29E
330
278
100
AcDbXrecord
280
1
290
0
  0
XRECORD
  5
29F
330
278
100
AcDbXrecord
280
1
 90
1
  0
XRECORD
  5
2A0
330
278
100
AcDbXrecord
280
1
 40
0.0
  0
XRECORD
  5
2A1
330
278
100
AcDbXrecord
280
1
 40
0.0
  0
XRECORD
  5
2A2
330
278
100
AcDbXrecord
280
1
1000
Portrait
  0
XRECORD
  5
2A3
330
278
100
AcDbXrecord
280
1
 40
297.0
  0
XRECORD
  5
2A4
330
278
100
AcDbXrecord
280
1
 40
210.0
  0
XRECORD
  5
2A5
330
278
100
AcDbXrecord
280
1
1000
1:1
  0
XRECORD
  5
2A6
330
278
100
AcDbXrecord
280
1
290
1
  0
XRECORD
  5
2A7
330
278
100
AcDbXrecord
280
1
 90
4
  0
XRECORD
  5
2A9
330
278
100
AcDbXrecord
280
1
 40
271.2268799999998805
  0
XRECORD
  5
2AA
330
278
100
AcDbXrecord
280
1
 40
740.7728639999997995
  0
ENDSEC
  0
EOF
