999
dxflib 3.12.2.0
  0
SECTION
  2
HEADER
  9
$ACADVER
  1
AC1015
  9
$HANDSEED
  5
FFFF
  9
$DIMADEC
 70
0
  9
$DIMASZ
 40
2.5
  9
$DIMAUNIT
 70
0
  9
$DIMAZIN
 70
2
  9
$DIMDEC
 70
4
  9
$DIMEXE
 40
1.25
  9
$DIMEXO
 40
0.625
  9
$DIMGAP
 40
0.625
  9
$DIMLUNIT
 70
2
  9
$DIMSCALE
 40
1.0
  9
$DIMTSZ
 40
0.0
  9
$DIMTXT
 40
2.5
  9
$DIMZIN
 70
8
  9
$DWGCODEPAGE
  3
ANSI_1252
  9
$INSUNITS
 70
4
  9
$LTSCALE
 40
1.0
  9
$MEASUREMENT
 70
1
  9
$PDMODE
 70
0
  9
$PDSIZE
 40
0
  0
ENDSEC
  0
SECTION
  2
TABLES
  0
TABLE
  2
VPORT
  5
8
100
AcDbSymbolTable
 70
1
  0
VPORT
  5
30
100
AcDbSymbolTableRecord
100
AcDbViewportTableRecord
  2
*Active
 70
0
 10
0.0
 20
0.0
 11
1.0
 21
1.0
 12
286.3055555555554861
 22
148.5
 13
0.0
 23
0.0
 14
10.0
 24
10.0
 15
10.0
 25
10.0
 16
0.0
 26
0.0
 36
1.0
 17
0.0
 27
0.0
 37
0.0
 40
297.0
 41
1.92798353909465
 42
50.0
 43
0.0
 44
0.0
 50
0.0
 51
0.0
 71
0
 72
100
 73
1
 74
3
 75
1
 76
1
 77
0
 78
0
281
0
 65
1
110
0.0
120
0.0
130
0.0
111
1.0
121
0.0
131
0.0
112
0.0
122
1.0
132
0.0
 79
0
146
0.0
  0
ENDTAB
  0
TABLE
  2
LTYPE
  5
5
100
AcDbSymbolTable
 70
54
  0
LTYPE
  5
16
100
AcDbSymbolTableRecord
100
AcDbLinetypeTableRecord
  2
Continuous
 70
0
  3
Solid line
 72
65
 73
0
 40
0.0
  0
LTYPE
  5
31
100
AcDbSymbolTableRecord
100
AcDbLinetypeTableRecord
  2
HOT_WATER_SUPPLY
 70
0
  3
Hot water supply ---- HW ---- HW ---- HW ----
 72
65
 73
3
 40
22.8599999999999994
 49
12.6999999999999993
 74
0
 49
-5.0800000000000001
 74
0
 49
-5.0800000000000001
 74
0
  0
LTYPE
  5
32
100
AcDbSymbolTableRecord
100
AcDbLinetypeTableRecord
  2
ACAD_ISO05W100
 70
0
  3
ISO long-dash double-dot ____ .. ____ .. ____ . 
 72
65
 73
6
 40
33.0
 49
24.0
 74
0
 49
-3.0
 74
0
 49
0.0
 74
0
 49
-3.0
 74
0
 49
0.0
 74
0
 49
-3.0
 74
0
  0
LTYPE
  5
33
100
AcDbSymbolTableRecord
100
AcDbLinetypeTableRecord
  2
DOT2
 70
0
  3
Dot (.5x) ........................................
 72
65
 73
2
 40
3.1749999999999998
 49
0.0
 74
0
 49
-3.1749999999999998
 74
0
  0
LTYPE
  5
34
100
AcDbSymbolTableRecord
100
AcDbLinetypeTableRecord
  2
ACAD_ISO12W100
 70
0
  3
ISO dash double-dot __ . . __ . . __ . . __ . . 
 72
65
 73
6
 40
21.0
 49
12.0
 74
0
 49
-3.0
 74
0
 49
0.0
 74
0
 49
-3.0
 74
0
 49
0.0
 74
0
 49
-3.0
 74
0
  0
LTYPE
  5
35
100
AcDbSymbolTableRecord
100
AcDbLinetypeTableRecord
  2
DASHDOT
 70
0
  3
Dash dot __ . __ . __ . __ . __ . __ . __ . __
 72
65
 73
4
 40
25.3999999999999986
 49
12.6999999999999993
 74
0
 49
-6.3499999999999996
 74
0
 49
0.0
 74
0
 49
-6.3499999999999996
 74
0
  0
LTYPE
  5
36
100
AcDbSymbolTableRecord
100
AcDbLinetypeTableRecord
  2
ACAD_ISO04W100
 70
0
  3
ISO long-dash dot ____ . ____ . ____ . ____ . _
 72
65
 73
4
 40
30.0
 49
24.0
 74
0
 49
-3.0
 74
0
 49
0.0
 74
0
 49
-3.0
 74
0
  0
LTYPE
  5
37
100
AcDbSymbolTableRecord
100
AcDbLinetypeTableRecord
  2
HIDDEN
 70
0
  3
Hidden __ __ __ __ __ __ __ __ __ __ __ __ __ __
 72
65
 73
2
 40
9.5249999999999986
 49
6.3499999999999996
 74
0
 49
-3.1749999999999998
 74
0
  0
LTYPE
  5
38
100
AcDbSymbolTableRecord
100
AcDbLinetypeTableRecord
  2
DASHDOT2
 70
0
  3
Dash dot (.5x) _._._._._._._._._._._._._._._.
 72
65
 73
4
 40
12.6999999999999993
 49
6.3499999999999996
 74
0
 49
-3.1749999999999998
 74
0
 49
0.0
 74
0
 49
-3.1749999999999998
 74
0
  0
LTYPE
  5
39
100
AcDbSymbolTableRecord
100
AcDbLinetypeTableRecord
  2
FENCELINE1
 70
0
  3
Fenceline circle ----0-----0----0-----0----0-----0--
 72
65
 73
4
 40
36.8299999999999983
 49
6.3499999999999996
 74
0
 49
-2.54
 74
0
 49
-2.54
 74
0
 49
25.3999999999999986
 74
0
  0
LTYPE
  5
3A
100
AcDbSymbolTableRecord
100
AcDbLinetypeTableRecord
  2
FENCELINE2
 70
0
  3
Fenceline square ----[]-----[]----[]-----[]----[]---
 72
65
 73
4
 40
36.8299999999999983
 49
6.3499999999999996
 74
0
 49
-2.54
 74
0
 49
-2.54
 74
0
 49
25.3999999999999986
 74
0
  0
LTYPE
  5
3B
100
AcDbSymbolTableRecord
100
AcDbLinetypeTableRecord
  2
ACAD_ISO11W100
 70
0
  3
ISO double-dash dot __ __ . __ __ . __ __ . __ _
 72
65
 73
6
 40
33.0
 49
12.0
 74
0
 49
-3.0
 74
0
 49
12.0
 74
0
 49
-3.0
 74
0
 49
0.0
 74
0
 49
-3.0
 74
0
  0
LTYPE
  5
3C
100
AcDbSymbolTableRecord
100
AcDbLinetypeTableRecord
  2
PHANTOM2
 70
0
  3
Phantom (.5x) ___ _ _ ___ _ _ ___ _ _ ___ _ _
 72
65
 73
6
 40
31.7500000000000036
 49
15.875
 74
0
 49
-3.1749999999999998
 74
0
 49
3.1749999999999998
 74
0
 49
-3.1749999999999998
 74
0
 49
3.1749999999999998
 74
0
 49
-3.1749999999999998
 74
0
  0
LTYPE
  5
3D
100
AcDbSymbolTableRecord
100
AcDbLinetypeTableRecord
  2
DASHDOTX2
 70
0
  3
Dash dot (2x) ____  .  ____  .  ____  .  ___
 72
65
 73
4
 40
50.7999999999999972
 49
25.3999999999999986
 74
0
 49
-12.6999999999999993
 74
0
 49
0.0
 74
0
 49
-12.6999999999999993
 74
0
  0
LTYPE
  5
3E
100
AcDbSymbolTableRecord
100
AcDbLinetypeTableRecord
  2
ACAD_ISO03W100
 70
0
  3
ISO dash space __    __    __    __    __    __
 72
65
 73
2
 40
30.0
 49
12.0
 74
0
 49
-18.0
 74
0
  0
LTYPE
  5
3F
100
AcDbSymbolTableRecord
100
AcDbLinetypeTableRecord
  2
PHANTOM
 70
0
  3
Phantom ______  __  __  ______  __  __  ______ 
 72
65
 73
6
 40
63.5000000000000071
 49
31.75
 74
0
 49
-6.3499999999999996
 74
0
 49
6.3499999999999996
 74
0
 49
-6.3499999999999996
 74
0
 49
6.3499999999999996
 74
0
 49
-6.3499999999999996
 74
0
  0
LTYPE
  5
40
100
AcDbSymbolTableRecord
100
AcDbLinetypeTableRecord
  2
ACAD_ISO10W100
 70
0
  3
ISO dash dot __ . __ . __ . __ . __ . __ . __ . 
 72
65
 73
4
 40
18.0
 49
12.0
 74
0
 49
-3.0
 74
0
 49
0.0
 74
0
 49
-3.0
 74
0
  0
LTYPE
  5
41
100
AcDbSymbolTableRecord
100
AcDbLinetypeTableRecord
  2
HIDDENX2
 70
0
  3
Hidden (2x) ____ ____ ____ ____ ____ ____ ____ 
 72
65
 73
2
 40
19.0499999999999972
 49
12.6999999999999993
 74
0
 49
-6.3499999999999996
 74
0
  0
LTYPE
  5
42
100
AcDbSymbolTableRecord
100
AcDbLinetypeTableRecord
  2
BORDER2
 70
0
  3
Border (.5x) __.__.__.__.__.__.__.__.__.__.__.
 72
65
 73
6
 40
22.2249999999999979
 49
6.3499999999999996
 74
0
 49
-3.1749999999999998
 74
0
 49
6.3499999999999996
 74
0
 49
-3.1749999999999998
 74
0
 49
0.0
 74
0
 49
-3.1749999999999998
 74
0
  0
LTYPE
  5
43
100
AcDbSymbolTableRecord
100
AcDbLinetypeTableRecord
  2
ACAD_ISO02W100
 70
0
  3
ISO dash __ __ __ __ __ __ __ __ __ __ __ __ __
 72
65
 73
2
 40
15.0
 49
12.0
 74
0
 49
-3.0
 74
0
  0
LTYPE
  5
44
100
AcDbSymbolTableRecord
100
AcDbLinetypeTableRecord
  2
DRAINAGE2
 70
0
  3
Drainage reversed----<----<----<----
 72
65
 73
2
 40
10.1600000000000001
 49
5.0800000000000001
 74
0
 49
5.0800000000000001
 74
0
  0
LTYPE
  5
45
100
AcDbSymbolTableRecord
100
AcDbLinetypeTableRecord
  2
CUTLEFT
 70
0
  3
G41 ----\----\----\----
 72
65
 73
2
 40
10.1600000000000001
 49
5.0800000000000001
 74
0
 49
5.0800000000000001
 74
0
  0
LTYPE
  5
46
100
AcDbSymbolTableRecord
100
AcDbLinetypeTableRecord
  2
ZIGZAG
 70
0
  3
Zig zag /\/\/\/\/\/\/\/\/\/\/\/\/\/\/\/\/\/\/\/\/\/\/\/
 72
65
 73
4
 40
20.32254
 49
0.00254
 74
0
 49
-5.0800000000000001
 74
0
 49
-10.1600000000000001
 74
0
 49
-5.0800000000000001
 74
0
  0
LTYPE
  5
47
100
AcDbSymbolTableRecord
100
AcDbLinetypeTableRecord
  2
DIVIDE2
 70
0
  3
Divide (.5x) __..__..__..__..__..__..__..__.._
 72
65
 73
6
 40
15.875
 49
6.3499999999999996
 74
0
 49
-3.1749999999999998
 74
0
 49
0.0
 74
0
 49
-3.1749999999999998
 74
0
 49
0.0
 74
0
 49
-3.1749999999999998
 74
0
  0
LTYPE
  5
48
100
AcDbSymbolTableRecord
100
AcDbLinetypeTableRecord
  2
DRAINAGE
 70
0
  3
Drainage ---->---->---->----
 72
65
 73
2
 40
10.1600000000000001
 49
5.0800000000000001
 74
0
 49
5.0800000000000001
 74
0
  0
LTYPE
  5
49
100
AcDbSymbolTableRecord
100
AcDbLinetypeTableRecord
  2
HIDDEN2
 70
0
  3
Hidden (.5x) _ _ _ _ _ _ _ _ _ _ _ _ _ _ _ _ _ 
 72
65
 73
2
 40
4.7624999999999993
 49
3.1749999999999998
 74
0
 49
-1.5874999999999999
 74
0
  0
LTYPE
  5
4A
100
AcDbSymbolTableRecord
100
AcDbLinetypeTableRecord
  2
CUTLEFT2
 70
0
  3
G41 reversed----/----/----/----
 72
65
 73
2
 40
10.1600000000000001
 49
5.0800000000000001
 74
0
 49
5.0800000000000001
 74
0
  0
LTYPE
  5
4B
100
AcDbSymbolTableRecord
100
AcDbLinetypeTableRecord
  2
DIVIDEX2
 70
0
  3
Divide (2x) ________  .  .  ________  .  .  _
 72
65
 73
6
 40
63.5
 49
25.3999999999999986
 74
0
 49
-12.6999999999999993
 74
0
 49
0.0
 74
0
 49
-12.6999999999999993
 74
0
 49
0.0
 74
0
 49
-12.6999999999999993
 74
0
  0
LTYPE
  5
4C
100
AcDbSymbolTableRecord
100
AcDbLinetypeTableRecord
  2
BATTING
 70
0
  3
Batting SSSSSSSSSSSSSSSSSSSSSSSSSSSSSSSSSSSSSSSSSSSSSSS
 72
65
 73
4
 40
10.1625399999999999
 49
0.00254
 74
0
 49
-2.54
 74
0
 49
-5.0800000000000001
 74
0
 49
-2.54
 74
0
  0
LTYPE
  5
4D
100
AcDbSymbolTableRecord
100
AcDbLinetypeTableRecord
  2
BORDERX2
 70
0
  3
Border (2x) ____  ____  .  ____  ____  .  ___
 72
65
 73
6
 40
88.8999999999999915
 49
25.3999999999999986
 74
0
 49
-12.6999999999999993
 74
0
 49
25.3999999999999986
 74
0
 49
-12.6999999999999993
 74
0
 49
0.0
 74
0
 49
-12.6999999999999993
 74
0
  0
LTYPE
  5
4E
100
AcDbSymbolTableRecord
100
AcDbLinetypeTableRecord
  2
ACAD_ISO09W100
 70
0
  3
ISO long-dash double-short-dash ____ __ __ ____
 72
65
 73
6
 40
45.0
 49
24.0
 74
0
 49
-3.0
 74
0
 49
6.0
 74
0
 49
-3.0
 74
0
 49
6.0
 74
0
 49
-3.0
 74
0
  0
LTYPE
  5
14
100
AcDbSymbolTableRecord
100
AcDbLinetypeTableRecord
  2
BYBLOCK
 70
0
  3

 72
65
 73
0
 40
0.0
  0
LTYPE
  5
4F
100
AcDbSymbolTableRecord
100
AcDbLinetypeTableRecord
  2
CUTRIGHT2
 70
0
  3
G42 reversed----\----\----\----
 72
65
 73
2
 40
10.1600000000000001
 49
5.0800000000000001
 74
0
 49
5.0800000000000001
 74
0
  0
LTYPE
  5
50
100
AcDbSymbolTableRecord
100
AcDbLinetypeTableRecord
  2
CUTRIGHT
 70
0
  3
G42 ----/----/-----/---
 72
65
 73
2
 40
10.1600000000000001
 49
5.0800000000000001
 74
0
 49
5.0800000000000001
 74
0
  0
LTYPE
  5
51
100
AcDbSymbolTableRecord
100
AcDbLinetypeTableRecord
  2
ACAD_ISO08W100
 70
0
  3
ISO long-dash short-dash ____ __ ____ __ ____ _
 72
65
 73
4
 40
36.0
 49
24.0
 74
0
 49
-3.0
 74
0
 49
6.0
 74
0
 49
-3.0
 74
0
  0
LTYPE
  5
52
100
AcDbSymbolTableRecord
100
AcDbLinetypeTableRecord
  2
DOT
 70
0
  3
Dot . . . . . . . . . . . . . . . . . . . . . . . .
 72
65
 73
2
 40
6.3499999999999996
 49
0.0
 74
0
 49
-6.3499999999999996
 74
0
  0
LTYPE
  5
53
100
AcDbSymbolTableRecord
100
AcDbLinetypeTableRecord
  2
CENTER
 70
0
  3
Center ____ _ ____ _ ____ _ ____ _ ____ _ ____
 72
65
 73
4
 40
50.8000000000000043
 49
31.75
 74
0
 49
-6.3499999999999996
 74
0
 49
6.3499999999999996
 74
0
 49
-6.3499999999999996
 74
0
  0
LTYPE
  5
54
100
AcDbSymbolTableRecord
100
AcDbLinetypeTableRecord
  2
DOTX2
 70
0
  3
Dot (2x) .  .  .  .  .  .  .  .  .  .  .  .  .  .
 72
65
 73
2
 40
12.6999999999999993
 49
0.0
 74
0
 49
-12.6999999999999993
 74
0
  0
LTYPE
  5
55
100
AcDbSymbolTableRecord
100
AcDbLinetypeTableRecord
  2
DIVIDE
 70
0
  3
Divide ____ . . ____ . . ____ . . ____ . . ____
 72
65
 73
6
 40
31.75
 49
12.6999999999999993
 74
0
 49
-6.3499999999999996
 74
0
 49
0.0
 74
0
 49
-6.3499999999999996
 74
0
 49
0.0
 74
0
 49
-6.3499999999999996
 74
0
  0
LTYPE
  5
56
100
AcDbSymbolTableRecord
100
AcDbLinetypeTableRecord
  2
ACAD_ISO15W100
 70
0
  3
ISO double-dash triple-dot __ __ . . . __ __ . .
 72
65
 73
10
 40
39.0
 49
12.0
 74
0
 49
-3.0
 74
0
 49
12.0
 74
0
 49
-3.0
 74
0
 49
0.0
 74
0
 49
-3.0
 74
0
 49
0.0
 74
0
 49
-3.0
 74
0
 49
0.0
 74
0
 49
-3.0
 74
0
  0
LTYPE
  5
57
100
AcDbSymbolTableRecord
100
AcDbLinetypeTableRecord
  2
DASHED
 70
0
  3
Dashed __ __ __ __ __ __ __ __ __ __ __ __ __ _
 72
65
 73
2
 40
19.0499999999999972
 49
12.6999999999999993
 74
0
 49
-6.3499999999999996
 74
0
  0
LTYPE
  5
58
100
AcDbSymbolTableRecord
100
AcDbLinetypeTableRecord
  2
ACAD_ISO07W100
 70
0
  3
ISO dot . . . . . . . . . . . . . . . . . . . . 
 72
65
 73
2
 40
3.0
 49
0.0
 74
0
 49
-3.0
 74
0
  0
LTYPE
  5
59
100
AcDbSymbolTableRecord
100
AcDbLinetypeTableRecord
  2
DASHED2
 70
0
  3
Dashed (.5x) _ _ _ _ _ _ _ _ _ _ _ _ _ _ _ _ _ 
 72
65
 73
2
 40
9.5249999999999986
 49
6.3499999999999996
 74
0
 49
-3.1749999999999998
 74
0
  0
LTYPE
  5
5A
100
AcDbSymbolTableRecord
100
AcDbLinetypeTableRecord
  2
DASHEDX2
 70
0
  3
Dashed (2x) ____  ____  ____  ____  ____  ___
 72
65
 73
2
 40
38.0999999999999943
 49
25.3999999999999986
 74
0
 49
-12.6999999999999993
 74
0
  0
LTYPE
  5
5B
100
AcDbSymbolTableRecord
100
AcDbLinetypeTableRecord
  2
PHANTOMX2
 70
0
  3
Phantom (2x) ____________    ____    ____   _
 72
65
 73
6
 40
127.0000000000000142
 49
63.5
 74
0
 49
-12.6999999999999993
 74
0
 49
12.6999999999999993
 74
0
 49
-12.6999999999999993
 74
0
 49
12.6999999999999993
 74
0
 49
-12.6999999999999993
 74
0
  0
LTYPE
  5
5C
100
AcDbSymbolTableRecord
100
AcDbLinetypeTableRecord
  2
ACAD_ISO14W100
 70
0
  3
ISO dash triple-dot __ . . . __ . . . __ . . . _
 72
65
 73
8
 40
24.0
 49
12.0
 74
0
 49
-3.0
 74
0
 49
0.0
 74
0
 49
-3.0
 74
0
 49
0.0
 74
0
 49
-3.0
 74
0
 49
0.0
 74
0
 49
-3.0
 74
0
  0
LTYPE
  5
5D
100
AcDbSymbolTableRecord
100
AcDbLinetypeTableRecord
  2
ACAD_ISO06W100
 70
0
  3
ISO long-dash triple-dot ____ ... ____ ... ____
 72
65
 73
8
 40
36.0
 49
24.0
 74
0
 49
-3.0
 74
0
 49
0.0
 74
0
 49
-3.0
 74
0
 49
0.0
 74
0
 49
-3.0
 74
0
 49
0.0
 74
0
 49
-3.0
 74
0
  0
LTYPE
  5
5E
100
AcDbSymbolTableRecord
100
AcDbLinetypeTableRecord
  2
TRACKS
 70
0
  3
Tracks -|-|-|-|-|-|-|-|-|-|-|-|-|-|-|-|-|-|-|-|-|-|-|-|-
 72
65
 73
2
 40
7.6200000000000001
 49
3.8100000000000001
 74
0
 49
3.8100000000000001
 74
0
  0
LTYPE
  5
5F
100
AcDbSymbolTableRecord
100
AcDbLinetypeTableRecord
  2
CENTERX2
 70
0
  3
Center (2x) ________  __  ________  __  _____
 72
65
 73
4
 40
101.6000000000000085
 49
63.5
 74
0
 49
-12.6999999999999993
 74
0
 49
12.6999999999999993
 74
0
 49
-12.6999999999999993
 74
0
  0
LTYPE
  5
15
100
AcDbSymbolTableRecord
100
AcDbLinetypeTableRecord
  2
BYLAYER
 70
0
  3

 72
65
 73
0
 40
0.0
  0
LTYPE
  5
60
100
AcDbSymbolTableRecord
100
AcDbLinetypeTableRecord
  2
CENTER2
 70
0
  3
Center (.5x) ___ _ ___ _ ___ _ ___ _ ___ _ ___
 72
65
 73
4
 40
28.5750000000000028
 49
19.0500000000000007
 74
0
 49
-3.1749999999999998
 74
0
 49
3.1749999999999998
 74
0
 49
-3.1749999999999998
 74
0
  0
LTYPE
  5
61
100
AcDbSymbolTableRecord
100
AcDbLinetypeTableRecord
  2
BORDER
 70
0
  3
Border __ __ . __ __ . __ __ . __ __ . __ __ .
 72
65
 73
6
 40
44.4499999999999957
 49
12.6999999999999993
 74
0
 49
-6.3499999999999996
 74
0
 49
12.6999999999999993
 74
0
 49
-6.3499999999999996
 74
0
 49
0.0
 74
0
 49
-6.3499999999999996
 74
0
  0
LTYPE
  5
62
100
AcDbSymbolTableRecord
100
AcDbLinetypeTableRecord
  2
GAS_LINE
 70
0
  3
Gas line ----GAS----GAS----GAS----GAS----GAS----GAS--
 72
65
 73
3
 40
24.1300000000000026
 49
12.6999999999999993
 74
0
 49
-5.0800000000000001
 74
0
 49
-6.3499999999999996
 74
0
  0
LTYPE
  5
63
100
AcDbSymbolTableRecord
100
AcDbLinetypeTableRecord
  2
ACAD_ISO13W100
 70
0
  3
ISO double-dash double-dot __ __ . . __ __ . . _
 72
65
 73
8
 40
36.0
 49
12.0
 74
0
 49
-3.0
 74
0
 49
12.0
 74
0
 49
-3.0
 74
0
 49
0.0
 74
0
 49
-3.0
 74
0
 49
0.0
 74
0
 49
-3.0
 74
0
  0
ENDTAB
  0
TABLE
  2
LAYER
  5
2
100
AcDbSymbolTable
 70
1
  0
LAYER
  5
10
100
AcDbSymbolTableRecord
100
AcDbLayerTableRecord
  2
0
 70
0
 62
7
420
16777215
  6
Continuous
370
25
390
F
  0
ENDTAB
  0
TABLE
  2
STYLE
  5
3
100
AcDbSymbolTable
 70
2
  0
STYLE
  5
64
100
AcDbSymbolTableRecord
100
AcDbTextStyleTableRecord
  2
Standard
 70
0
 40
0.0
 41
1.0
 50
0.0
 71
0
 42
2.5
  3

  4

1001
ACAD
1000
txt
1071
0
  0
STYLE
  5
65
100
AcDbSymbolTableRecord
100
AcDbTextStyleTableRecord
  2
textstyle0
 70
0
 40
0.0
 41
1.0
 50
0.0
 71
0
 42
1.0
  3

  4

1001
ACAD
1000
Arial
1071
0
  0
ENDTAB
  0
TABLE
  2
VIEW
  5
6
100
AcDbSymbolTable
 70
0
  0
ENDTAB
  0
TABLE
  2
UCS
  5
7
100
AcDbSymbolTable
 70
0
  0
ENDTAB
  0
TABLE
  2
APPID
  5
9
100
AcDbSymbolTable
 70
1
  0
APPID
  5
12
100
AcDbSymbolTableRecord
100
AcDbRegAppTableRecord
  2
ACAD
 70
0
  0
APPID
  5
66
100
AcDbSymbolTableRecord
100
AcDbRegAppTableRecord
  2
QCAD
 70
0
  0
ENDTAB
  0
TABLE
  2
DIMSTYLE
  5
A
100
AcDbSymbolTable
 70
1
100
AcDbDimStyleTable
 71
0
  0
DIMSTYLE
105
27
100
AcDbSymbolTableRecord
100
AcDbDimStyleTableRecord
  2
Standard
 41
2.5
 42
0.625
 43
3.75
 44
1.25
 70
0
 73
0
 74
0
 77
1
 78
8
140
2.5
141
2.5
143
0.03937007874016
147
0.625
171
3
172
1
271
2
272
2
274
3
278
44
283
0
284
8
340
64
  0
ENDTAB
  0
TABLE
  2
BLOCK_RECORD
  5
1
100
AcDbSymbolTable
 70
1
  0
BLOCK_RECORD
  5
1F
100
AcDbSymbolTableRecord
100
AcDbBlockTableRecord
  2
*Model_Space
340
22
  0
BLOCK_RECORD
  5
1B
100
AcDbSymbolTableRecord
100
AcDbBlockTableRecord
  2
*Paper_Space
340
1E
  0
BLOCK_RECORD
  5
23
100
AcDbSymbolTableRecord
100
AcDbBlockTableRecord
  2
*Paper_Space0
340
26
  0
ENDTAB
  0
ENDSEC
  0
SECTION
  2
BLOCKS
  0
BLOCK
  5
20
100
AcDbEntity
  8
0
100
AcDbBlockBegin
  2
*Model_Space
 70
0
 10
0.0
 20
0.0
 30
0.0
  3
*Model_Space
  1

  0
ENDBLK
  5
21
100
AcDbEntity
  8
0
100
AcDbBlockEnd
  0
BLOCK
  5
1C
100
AcDbEntity
 67
1
  8
0
100
AcDbBlockBegin
  2
*Paper_Space
 70
0
 10
0.0
 20
0.0
 30
0.0
  3
*Paper_Space
  1

  0
ENDBLK
  5
1D
100
AcDbEntity
 67
1
  8
0
100
AcDbBlockEnd
  0
BLOCK
  5
24
100
AcDbEntity
  8
0
100
AcDbBlockBegin
  2
*Paper_Space0
 70
0
 10
0.0
 20
0.0
 30
0.0
  3
*Paper_Space0
  1

  0
ENDBLK
  5
25
100
AcDbEntity
  8
0
100
AcDbBlockEnd
  0
ENDSEC
  0
SECTION
  2
ENTITIES
  0
LINE
  5
67
100
AcDbEntity
100
AcDbLine
  8
0
 62
256
370
-1
 48
1.0
  6
BYLAYER
 10
13.1289330442223786
 20
261.5339434324172316
 30
0.0
 11
13.1289330442223786
 21
166.5339434324172601
 31
0.0
  0
LINE
  5
68
100
AcDbEntity
100
AcDbLine
  8
0
 62
256
370
-1
 48
1.0
  6
BYLAYER
 10
151.198182373374209
 20
132.4351492523823595
 30
0.0
 11
56.198182373374209
 21
132.4351492523823595
 31
0.0
  0
LINE
  5
69
100
AcDbEntity
100
AcDbLine
  8
0
 62
256
370
-1
 48
1.0
  6
BYLAYER
 10
28.1289330442223786
 20
151.5339434324171748
 30
0.0
 11
28.1289330442223786
 21
151.5339434324171748
 31
0.0
  0
LINE
  5
6A
100
AcDbEntity
100
AcDbLine
  8
0
 62
256
370
-1
 48
1.0
  6
BYLAYER
 10
41.1981823733741521
 20
117.4351492523823595
 30
0.0
 11
41.1981823733741521
 21
117.4351492523823595
 31
0.0
  0
CIRCLE
  5
6B
100
AcDbEntity
100
AcDbCircle
  8
0
 62
256
370
-1
 48
1.0
  6
BYLAYER
 10
184.4885382901728121
 20
240.2018150827821046
 30
0.0
 40
1.375
  0
CIRCLE
  5
6C
100
AcDbEntity
100
AcDbCircle
  8
0
 62
256
370
-1
 48
1.0
  6
BYLAYER
 10
127.1289330442223218
 20
52.5339434324171322
 30
0.0
 40
1.375
  0
LINE
  5
6D
100
AcDbEntity
100
AcDbLine
  8
0
 62
256
370
-1
 48
1.0
  6
BYLAYER
 10
43.1289330442223786
 20
166.5339434324171748
 30
0.0
 11
43.1289330442223786
 21
261.5339434324171748
 31
0.0
  0
LINE
  5
6E
100
AcDbEntity
100
AcDbLine
  8
0
 62
256
370
-1
 48
1.0
  6
BYLAYER
 10
56.1981823733741521
 20
102.4351492523823595
 30
0.0
 11
151.1981823733741521
 21
102.4351492523823595
 31
0.0
  0
LINE
  5
6F
100
AcDbEntity
100
AcDbLine
  8
0
 62
256
370
-1
 48
1.0
  6
BYLAYER
 10
129.4491841151987614
 20
168.4206945471995596
 30
0.0
 11
129.4491841151987614
 21
168.4206945471995596
 31
0.0
  0
CIRCLE
  5
70
100
AcDbEntity
100
AcDbCircle
  8
0
 62
256
370
-1
 48
1.0
  6
BYLAYER
 10
69.1289330442223218
 20
52.5339434324171322
 30
0.0
 40
1.375
  0
CIRCLE
  5
71
100
AcDbEntity
100
AcDbCircle
  8
0
 62
256
370
-1
 48
1.0
  6
BYLAYER
 10
184.4885382901726985
 20
182.2018150827821046
 30
0.0
 40
1.375
  0
LINE
  5
72
100
AcDbEntity
100
AcDbLine
  8
0
 62
256
370
-1
 48
1.0
  6
BYLAYER
 10
118.2542410150393266
 20
270.9155395814394751
 30
0.0
 11
118.2542410150393266
 21
270.9155395814394751
 31
0.0
  0
LINE
  5
73
100
AcDbEntity
100
AcDbLine
  8
0
 62
256
370
-1
 48
1.0
  6
BYLAYER
 10
28.1289330442223786
 20
276.5339434324171748
 30
0.0
 11
28.1289330442223786
 21
276.5339434324171748
 31
0.0
  0
LINE
  5
74
100
AcDbEntity
100
AcDbLine
  8
0
 62
256
370
-1
 48
1.0
  6
BYLAYER
 10
166.1981823733741521
 20
117.4351492523823595
 30
0.0
 11
166.1981823733741521
 21
117.4351492523823595
 31
0.0
  0
CIRCLE
  5
75
100
AcDbEntity
100
AcDbCircle
  8
0
 62
256
370
-1
 48
1.0
  6
BYLAYER
 10
16.6289330442223786
 20
185.0339434324171748
 30
0.0
 40
1.375
  0
CIRCLE
  5
76
100
AcDbEntity
100
AcDbCircle
  8
0
 62
256
370
-1
 48
1.0
  6
BYLAYER
 10
74.6981823733741521
 20
128.9351492523823595
 30
0.0
 40
1.375
  0
ARC
  5
77
100
AcDbEntity
  8
0
 62
256
370
-1
 48
1.0
  6
BYLAYER
100
AcDbCircle
 10
118.3489756686744272
 20
246.6155395814394922
 30
0.0
 40
1.0
100
AcDbArc
 50
270.0
 51
90.0
  0
ARC
  5
78
100
AcDbEntity
  8
0
 62
256
370
-1
 48
1.0
  6
BYLAYER
100
AcDbCircle
 10
116.5989756686746546
 20
246.6155395814394922
 30
0.0
 40
1.0
100
AcDbArc
 50
90.0
 51
270.0
  0
ARC
  5
79
100
AcDbEntity
  8
0
 62
256
370
-1
 48
1.0
  6
BYLAYER
100
AcDbCircle
 10
48.4672031733742301
 20
13.1079992009070168
 30
0.0
 40
1.0
100
AcDbArc
 50
180.0
 51
0.0
  0
ARC
  5
7A
100
AcDbEntity
  8
0
 62
256
370
-1
 48
1.0
  6
BYLAYER
100
AcDbCircle
 10
48.4672031733742301
 20
14.8579992009070168
 30
0.0
 40
1.0
100
AcDbArc
 50
0.0
 51
180.0
  0
ARC
  5
7B
100
AcDbEntity
  8
0
 62
256
370
-1
 48
1.0
  6
BYLAYER
100
AcDbCircle
 10
64.4583716351988869
 20
252.640721520834461
 30
0.0
 40
1.0
100
AcDbArc
 50
0.0
 51
180.0
  0
ARC
  5
7C
100
AcDbEntity
  8
0
 62
256
370
-1
 48
1.0
  6
BYLAYER
100
AcDbCircle
 10
64.4583716351988869
 20
250.890721520834461
 30
0.0
 40
1.0
100
AcDbArc
 50
180.0
 51
0.0
  0
ARC
  5
7D
100
AcDbEntity
  8
0
 62
256
370
-1
 48
1.0
  6
BYLAYER
100
AcDbCircle
 10
81.3286063614042405
 20
201.9713395814395653
 30
0.0
 40
1.0
100
AcDbArc
 50
90.0
 51
270.0
  0
ARC
  5
7E
100
AcDbEntity
  8
0
 62
256
370
-1
 48
1.0
  6
BYLAYER
100
AcDbCircle
 10
83.0786063614041268
 20
201.9713395814395653
 30
0.0
 40
1.0
100
AcDbArc
 50
270.0
 51
90.0
  0
ARC
  5
7F
100
AcDbEntity
  8
0
 62
256
370
-1
 48
1.0
  6
BYLAYER
100
AcDbCircle
 10
105.1491841151987501
 20
170.0759598935644021
 30
0.0
 40
1.0
100
AcDbArc
 50
0.0
 51
180.0
  0
ARC
  5
80
100
AcDbEntity
  8
0
 62
256
370
-1
 48
1.0
  6
BYLAYER
100
AcDbCircle
 10
105.1491841151987501
 20
168.3259598935644021
 30
0.0
 40
1.0
100
AcDbArc
 50
180.0
 51
0.0
  0
CIRCLE
  5
81
100
AcDbEntity
100
AcDbCircle
  8
0
 62
256
370
-1
 48
1.0
  6
BYLAYER
 10
106.8542410150393493
 20
207.1155395814394922
 30
0.0
 40
1.375
  0
CIRCLE
  5
82
100
AcDbEntity
100
AcDbCircle
  8
0
 62
256
370
-1
 48
1.0
  6
BYLAYER
 10
65.6491841151987501
 20
179.8206945471995368
 30
0.0
 40
1.375
  0
CIRCLE
  5
83
100
AcDbEntity
100
AcDbCircle
  8
0
 62
256
370
-1
 48
1.0
  6
BYLAYER
 10
127.1289330442223218
 20
75.533943432417189
 30
0.0
 40
1.375
  0
CIRCLE
  5
84
100
AcDbEntity
100
AcDbCircle
  8
0
 62
256
370
-1
 48
1.0
  6
BYLAYER
 10
161.4885382901725848
 20
240.2018150827821046
 30
0.0
 40
1.375
  0
CIRCLE
  5
85
100
AcDbEntity
100
AcDbCircle
  8
0
 62
256
370
-1
 48
1.0
  6
BYLAYER
 10
130.854241015039463
 20
246.6155395814394922
 30
0.0
 40
1.0
  0
CIRCLE
  5
86
100
AcDbEntity
100
AcDbCircle
  8
0
 62
256
370
-1
 48
1.0
  6
BYLAYER
 10
105.1491841151987501
 20
155.8206945471995368
 30
0.0
 40
1.0
  0
CIRCLE
  5
87
100
AcDbEntity
100
AcDbCircle
  8
0
 62
256
370
-1
 48
1.0
  6
BYLAYER
 10
64.4583716351988869
 20
265.1459868671993263
 30
0.0
 40
1.0
  0
CIRCLE
  5
88
100
AcDbEntity
100
AcDbCircle
  8
0
 62
256
370
-1
 48
1.0
  6
BYLAYER
 10
68.823341015039432
 20
201.9713395814395653
 30
0.0
 40
1.0
  0
CIRCLE
  5
89
100
AcDbEntity
100
AcDbCircle
  8
0
 62
256
370
-1
 48
1.0
  6
BYLAYER
 10
130.8489756686744272
 20
246.6155395814394922
 30
0.0
 40
1.0
  0
CIRCLE
  5
8A
100
AcDbEntity
100
AcDbCircle
  8
0
 62
256
370
-1
 48
1.0
  6
BYLAYER
 10
105.1491841151987501
 20
155.8259598935644021
 30
0.0
 40
1.0
  0
CIRCLE
  5
8B
100
AcDbEntity
100
AcDbCircle
  8
0
 62
256
370
-1
 48
1.0
  6
BYLAYER
 10
48.4672031733742301
 20
27.3579992009070168
 30
0.0
 40
1.0
  0
CIRCLE
  5
8C
100
AcDbEntity
100
AcDbCircle
  8
0
 62
256
370
-1
 48
1.0
  6
BYLAYER
 10
64.4583716351988869
 20
265.140721520834461
 30
0.0
 40
1.0
  0
CIRCLE
  5
8D
100
AcDbEntity
100
AcDbCircle
  8
0
 62
256
370
-1
 48
1.0
  6
BYLAYER
 10
68.8286063614043542
 20
201.9713395814395653
 30
0.0
 40
1.0
  0
CIRCLE
  5
8E
100
AcDbEntity
100
AcDbCircle
  8
0
 62
256
370
-1
 48
1.0
  6
BYLAYER
 10
16.6289330442223786
 20
243.0339434324171748
 30
0.0
 40
1.375
  0
CIRCLE
  5
8F
100
AcDbEntity
100
AcDbCircle
  8
0
 62
256
370
-1
 48
1.0
  6
BYLAYER
 10
132.6981823733741521
 20
128.9351492523823595
 30
0.0
 40
1.375
  0
CIRCLE
  5
90
100
AcDbEntity
100
AcDbCircle
  8
0
 62
256
370
-1
 48
1.0
  6
BYLAYER
 10
106.8542410150393493
 20
265.1155395814395206
 30
0.0
 40
1.375
  0
CIRCLE
  5
91
100
AcDbEntity
100
AcDbCircle
  8
0
 62
256
370
-1
 48
1.0
  6
BYLAYER
 10
123.6491841151987501
 20
179.8206945471995368
 30
0.0
 40
1.375
  0
ARC
  5
92
100
AcDbEntity
  8
0
 62
256
370
-1
 48
1.0
  6
BYLAYER
100
AcDbCircle
 10
69.4672031733742301
 20
14.8579992009070168
 30
0.0
 40
1.0
100
AcDbArc
 50
0.0
 51
185.00064459755896
  0
ARC
  5
93
100
AcDbEntity
  8
0
 62
256
370
-1
 48
1.0
  6
BYLAYER
100
AcDbCircle
 10
116.5989756686744272
 20
225.6155395814394922
 30
0.0
 40
1.0
100
AcDbArc
 50
89.868757808235074
 51
270.0
  0
ARC
  5
94
100
AcDbEntity
  8
0
 62
256
370
-1
 48
1.0
  6
BYLAYER
100
AcDbCircle
 10
118.3489756686745409
 20
225.6155395814394922
 30
0.0
 40
1.0
100
AcDbArc
 50
270.0
 51
95.0006445975589457
  0
ARC
  5
95
100
AcDbEntity
  8
0
 62
256
370
-1
 48
1.0
  6
BYLAYER
100
AcDbCircle
 10
84.1491841151987501
 20
170.0759598935644306
 30
0.0
 40
1.0
100
AcDbArc
 50
359.8687578082351024
 51
180.0
  0
ARC
  5
96
100
AcDbEntity
  8
0
 62
256
370
-1
 48
1.0
  6
BYLAYER
100
AcDbCircle
 10
81.3286063614042405
 20
222.9713395814395653
 30
0.0
 40
1.0
100
AcDbArc
 50
90.0
 51
275.00064459755896
  0
ARC
  5
97
100
AcDbEntity
  8
0
 62
256
370
-1
 48
1.0
  6
BYLAYER
100
AcDbCircle
 10
69.4672031733742301
 20
13.1079992009070168
 30
0.0
 40
1.0
100
AcDbArc
 50
179.868757808235074
 51
0.0
  0
ARC
  5
98
100
AcDbEntity
  8
0
 62
256
370
-1
 48
1.0
  6
BYLAYER
100
AcDbCircle
 10
84.1491841151987501
 20
168.3259598935644021
 30
0.0
 40
1.0
100
AcDbArc
 50
180.0
 51
5.0006445975589457
  0
ARC
  5
99
100
AcDbEntity
  8
0
 62
256
370
-1
 48
1.0
  6
BYLAYER
100
AcDbCircle
 10
85.4583716351988869
 20
252.640721520834461
 30
0.0
 40
1.0
100
AcDbArc
 50
0.0
 51
185.00064459755896
  0
ARC
  5
9A
100
AcDbEntity
  8
0
 62
256
370
-1
 48
1.0
  6
BYLAYER
100
AcDbCircle
 10
85.4583716351988869
 20
250.890721520834461
 30
0.0
 40
1.0
100
AcDbArc
 50
179.868757808235074
 51
0.0
  0
ARC
  5
9B
100
AcDbEntity
  8
0
 62
256
370
-1
 48
1.0
  6
BYLAYER
100
AcDbCircle
 10
83.0786063614040131
 20
222.9713395814395653
 30
0.0
 40
1.0
100
AcDbArc
 50
269.8687578082351024
 51
90.0
  0
CIRCLE
  5
9C
100
AcDbEntity
100
AcDbCircle
  8
0
 62
256
370
-1
 48
1.0
  6
BYLAYER
 10
69.1289330442223218
 20
75.5339434324171322
 30
0.0
 40
1.375
  0
CIRCLE
  5
9D
100
AcDbEntity
100
AcDbCircle
  8
0
 62
256
370
-1
 48
1.0
  6
BYLAYER
 10
161.4885382901726985
 20
182.2018150827821046
 30
0.0
 40
1.375
  0
CIRCLE
  5
9E
100
AcDbEntity
100
AcDbCircle
  8
0
 62
256
370
-1
 48
1.0
  6
BYLAYER
 10
39.6289330442223786
 20
185.0339434324171748
 30
0.0
 40
1.375
  0
CIRCLE
  5
9F
100
AcDbEntity
100
AcDbCircle
  8
0
 62
256
370
-1
 48
1.0
  6
BYLAYER
 10
74.6981823733741521
 20
105.9351492523823026
 30
0.0
 40
1.375
  0
CIRCLE
  5
A0
100
AcDbEntity
100
AcDbCircle
  8
0
 62
256
370
-1
 48
1.0
  6
BYLAYER
 10
129.8542410150393493
 20
207.1155395814394922
 30
0.0
 40
1.375
  0
CIRCLE
  5
A1
100
AcDbEntity
100
AcDbCircle
  8
0
 62
256
370
-1
 48
1.0
  6
BYLAYER
 10
65.6491841151987501
 20
156.82069454719948
 30
0.0
 40
1.375
  0
CIRCLE
  5
A2
100
AcDbEntity
100
AcDbCircle
  8
0
 62
256
370
-1
 48
1.0
  6
BYLAYER
 10
68.8286063614043542
 20
222.9713395814395653
 30
0.0
 40
1.0
  0
CIRCLE
  5
A3
100
AcDbEntity
100
AcDbCircle
  8
0
 62
256
370
-1
 48
1.0
  6
BYLAYER
 10
84.1491841151987501
 20
155.8259598935644021
 30
0.0
 40
1.0
  0
CIRCLE
  5
A4
100
AcDbEntity
100
AcDbCircle
  8
0
 62
256
370
-1
 48
1.0
  6
BYLAYER
 10
130.8489756686744272
 20
225.6155395814394922
 30
0.0
 40
1.0
  0
CIRCLE
  5
A5
100
AcDbEntity
100
AcDbCircle
  8
0
 62
256
370
-1
 48
1.0
  6
BYLAYER
 10
85.4583716351988869
 20
265.140721520834461
 30
0.0
 40
1.0
  0
CIRCLE
  5
A6
100
AcDbEntity
100
AcDbCircle
  8
0
 62
256
370
-1
 48
1.0
  6
BYLAYER
 10
69.4672031733742301
 20
27.3579992009070168
 30
0.0
 40
1.0
  0
CIRCLE
  5
A7
100
AcDbEntity
100
AcDbCircle
  8
0
 62
256
370
-1
 48
1.0
  6
BYLAYER
 10
39.6289330442223786
 20
243.0339434324171748
 30
0.0
 40
1.375
  0
CIRCLE
  5
A8
100
AcDbEntity
100
AcDbCircle
  8
0
 62
256
370
-1
 48
1.0
  6
BYLAYER
 10
132.6981823733741521
 20
105.9351492523823595
 30
0.0
 40
1.375
  0
CIRCLE
  5
A9
100
AcDbEntity
100
AcDbCircle
  8
0
 62
256
370
-1
 48
1.0
  6
BYLAYER
 10
129.8542410150393493
 20
265.1155395814395206
 30
0.0
 40
1.375
  0
CIRCLE
  5
AA
100
AcDbEntity
100
AcDbCircle
  8
0
 62
256
370
-1
 48
1.0
  6
BYLAYER
 10
123.6491841151987501
 20
156.8206945471995368
 30
0.0
 40
1.375
  0
CIRCLE
  5
AB
100
AcDbEntity
100
AcDbCircle
  8
0
 62
256
370
-1
 48
1.0
  6
BYLAYER
 10
130.8542410150393493
 20
225.6155395814394922
 30
0.0
 40
1.0
  0
CIRCLE
  5
AC
100
AcDbEntity
100
AcDbCircle
  8
0
 62
256
370
-1
 48
1.0
  6
BYLAYER
 10
84.1491841151987501
 20
155.8206945471995368
 30
0.0
 40
1.0
  0
CIRCLE
  5
AD
100
AcDbEntity
100
AcDbCircle
  8
0
 62
256
370
-1
 48
1.0
  6
BYLAYER
 10
85.4583716351988869
 20
265.1459868671993263
 30
0.0
 40
1.0
  0
CIRCLE
  5
AE
100
AcDbEntity
100
AcDbCircle
  8
0
 62
256
370
-1
 48
1.0
  6
BYLAYER
 10
68.8233410150392046
 20
222.9713395814395653
 30
0.0
 40
1.0
  0
LINE
  5
AF
100
AcDbEntity
100
AcDbLine
  8
0
 62
256
370
-1
 48
1.0
  6
BYLAYER
 10
62.4583716351988869
 20
243.1459868671993263
 30
0.0
 11
87.4583716351988869
 21
243.1459868671993263
 31
0.0
  0
LINE
  5
B0
100
AcDbEntity
100
AcDbLine
  8
0
 62
256
370
-1
 48
1.0
  6
BYLAYER
 10
90.823341015039432
 20
199.9713395814395653
 30
0.0
 11
90.8233410150395457
 21
224.9713395814395653
 31
0.0
  0
LINE
  5
B1
100
AcDbEntity
100
AcDbLine
  8
0
 62
256
370
-1
 48
1.0
  6
BYLAYER
 10
91.4583716351988869
 20
247.1459868671993263
 30
0.0
 11
91.4583716351988869
 21
271.1459868671993263
 31
0.0
  0
LINE
  5
B2
100
AcDbEntity
100
AcDbLine
  8
0
 62
256
370
-1
 48
1.0
  6
BYLAYER
 10
86.823341015039432
 20
228.9713395814395653
 30
0.0
 11
62.8233410150393183
 21
228.9713395814395653
 31
0.0
  0
LINE
  5
B3
100
AcDbEntity
100
AcDbLine
  8
0
 62
256
370
-1
 48
1.0
  6
BYLAYER
 10
87.4583716351988869
 20
275.1459868671993263
 30
0.0
 11
62.4583716351988869
 21
275.1459868671993263
 31
0.0
  0
LINE
  5
B4
100
AcDbEntity
100
AcDbLine
  8
0
 62
256
370
-1
 48
1.0
  6
BYLAYER
 10
58.8233410150395457
 20
224.9713395814395653
 30
0.0
 11
58.823341015039432
 21
199.9713395814395653
 31
0.0
  0
LINE
  5
B5
100
AcDbEntity
100
AcDbLine
  8
0
 62
256
370
-1
 48
1.0
  6
BYLAYER
 10
58.4583716351988869
 20
271.1459868671993263
 30
0.0
 11
58.4583716351988869
 21
247.1459868671993263
 31
0.0
  0
LINE
  5
B6
100
AcDbEntity
100
AcDbLine
  8
0
 62
256
370
-1
 48
1.0
  6
BYLAYER
 10
62.8233410150393183
 20
195.9713395814395653
 30
0.0
 11
86.8233410150392046
 21
195.9713395814395653
 31
0.0
  0
LINE
  5
B7
100
AcDbEntity
100
AcDbLine
  8
0
 62
256
370
-1
 48
1.0
  6
BYLAYER
 10
145.3880287733740602
 20
28.15825703241714
 30
0.0
 11
136.3880287733740602
 21
28.15825703241714
 31
0.0
  0
LINE
  5
B8
100
AcDbEntity
100
AcDbLine
  8
0
 62
256
370
-1
 48
1.0
  6
BYLAYER
 10
145.3880287733740602
 20
28.15825703241714
 30
0.0
 11
136.3880287733740602
 21
28.15825703241714
 31
0.0
  0
LINE
  5
B9
100
AcDbEntity
100
AcDbLine
  8
0
 62
256
370
-1
 48
1.0
  6
BYLAYER
 10
136.3880287733740602
 20
28.15825703241714
 30
0.0
 11
136.3880287733740602
 21
19.15825703241714
 31
0.0
  0
LINE
  5
BA
100
AcDbEntity
100
AcDbLine
  8
0
 62
256
370
-1
 48
1.0
  6
BYLAYER
 10
136.3880287733740602
 20
28.15825703241714
 30
0.0
 11
136.3555864457191547
 21
19.1582570324171684
 31
0.0
  0
CIRCLE
  5
BB
100
AcDbEntity
100
AcDbCircle
  8
0
 62
256
370
-1
 48
1.0
  6
BYLAYER
 10
130.8542410150393493
 20
225.6155395814394922
 30
0.0
 40
1.0
  0
CIRCLE
  5
BC
100
AcDbEntity
100
AcDbCircle
  8
0
 62
256
370
-1
 48
1.0
  6
BYLAYER
 10
84.1491841151987501
 20
155.8206945471995368
 30
0.0
 40
1.0
  0
LINE
  5
BD
100
AcDbEntity
100
AcDbLine
  8
0
 62
256
370
-1
 48
1.0
  6
BYLAYER
 10
145.3880287733740602
 20
19.15825703241714
 30
0.0
 11
145.3880287733740602
 21
28.15825703241714
 31
0.0
  0
LINE
  5
BE
100
AcDbEntity
100
AcDbLine
  8
0
 62
256
370
-1
 48
1.0
  6
BYLAYER
 10
145.3555864457191547
 20
19.1582570324171684
 30
0.0
 11
145.3880287733740602
 21
28.15825703241714
 31
0.0
  0
LINE
  5
BF
100
AcDbEntity
100
AcDbLine
  8
0
 62
256
370
-1
 48
1.0
  6
BYLAYER
 10
136.3555864457190978
 20
19.15825703241714
 30
0.0
 11
135.3880287733740602
 21
19.15825703241714
 31
0.0
  0
LINE
  5
C0
100
AcDbEntity
100
AcDbLine
  8
0
 62
256
370
-1
 48
1.0
  6
BYLAYER
 10
147.3880287733740602
 20
19.15825703241714
 30
0.0
 11
145.3555864457191547
 21
19.15825703241714
 31
0.0
  0
LINE
  5
C1
100
AcDbEntity
100
AcDbLine
  8
0
 62
256
370
-1
 48
1.0
  6
BYLAYER
 10
135.3880287733740602
 20
19.15825703241714
 30
0.0
 11
135.3880287733740602
 21
12.15825703241714
 31
0.0
  0
LINE
  5
C2
100
AcDbEntity
100
AcDbLine
  8
0
 62
256
370
-1
 48
1.0
  6
BYLAYER
 10
135.3880287733740602
 20
19.15825703241714
 30
0.0
 11
135.3880287733740602
 21
12.15825703241714
 31
0.0
  0
LINE
  5
C3
100
AcDbEntity
100
AcDbLine
  8
0
 62
256
370
-1
 48
1.0
  6
BYLAYER
 10
135.3880287733740602
 20
12.15825703241714
 30
0.0
 11
147.3880287733740602
 21
12.15825703241714
 31
0.0
  0
LINE
  5
C4
100
AcDbEntity
100
AcDbLine
  8
0
 62
256
370
-1
 48
1.0
  6
BYLAYER
 10
135.3880287733740602
 20
12.15825703241714
 30
0.0
 11
147.3880287733740602
 21
12.15825703241714
 31
0.0
  0
LINE
  5
C5
100
AcDbEntity
100
AcDbLine
  8
0
 62
256
370
-1
 48
1.0
  6
BYLAYER
 10
147.3880287733740602
 20
12.15825703241714
 30
0.0
 11
147.3880287733740602
 21
19.15825703241714
 31
0.0
  0
LINE
  5
C6
100
AcDbEntity
100
AcDbLine
  8
0
 62
256
370
-1
 48
1.0
  6
BYLAYER
 10
147.3880287733740602
 20
12.15825703241714
 30
0.0
 11
147.3880287733740602
 21
19.15825703241714
 31
0.0
  0
ARC
  5
C7
100
AcDbEntity
  8
0
 62
256
370
-1
 48
1.0
  6
BYLAYER
100
AcDbCircle
 10
28.1289330442222649
 20
261.5339434324171748
 30
0.0
 40
15.0
100
AcDbArc
 50
0.0
 51
90.0
  0
ARC
  5
C8
100
AcDbEntity
  8
0
 62
256
370
-1
 48
1.0
  6
BYLAYER
100
AcDbCircle
 10
151.1981823733741521
 20
117.4351492523823595
 30
0.0
 40
15.0
100
AcDbArc
 50
270.0
 51
0.0
  0
ARC
  5
C9
100
AcDbEntity
  8
0
 62
256
370
-1
 48
1.0
  6
BYLAYER
100
AcDbCircle
 10
28.1289330442222649
 20
261.5339434324171748
 30
0.0
 40
15.0
100
AcDbArc
 50
90.0
 51
180.0
  0
ARC
  5
CA
100
AcDbEntity
  8
0
 62
256
370
-1
 48
1.0
  6
BYLAYER
100
AcDbCircle
 10
151.1981823733741521
 20
117.4351492523823595
 30
0.0
 40
15.0
100
AcDbArc
 50
0.0
 51
90.0
  0
ARC
  5
CB
100
AcDbEntity
  8
0
 62
256
370
-1
 48
1.0
  6
BYLAYER
100
AcDbCircle
 10
28.1289330442223786
 20
166.5339434324171748
 30
0.0
 40
15.0
100
AcDbArc
 50
270.0
 51
0.0
  0
ARC
  5
CC
100
AcDbEntity
  8
0
 62
256
370
-1
 48
1.0
  6
BYLAYER
100
AcDbCircle
 10
56.1981823733741521
 20
117.4351492523823595
 30
0.0
 40
15.0
100
AcDbArc
 50
180.0
 51
270.0
  0
ARC
  5
CD
100
AcDbEntity
  8
0
 62
256
370
-1
 48
1.0
  6
BYLAYER
100
AcDbCircle
 10
28.1289330442223786
 20
166.5339434324171748
 30
0.0
 40
15.0
100
AcDbArc
 50
180.0
 51
270.0
  0
ARC
  5
CE
100
AcDbEntity
  8
0
 62
256
370
-1
 48
1.0
  6
BYLAYER
100
AcDbCircle
 10
56.1981823733741521
 20
117.4351492523823595
 30
0.0
 40
15.0
100
AcDbArc
 50
90.0
 51
180.0
  0
ARC
  5
CF
100
AcDbEntity
  8
0
 62
256
370
-1
 48
1.0
  6
BYLAYER
100
AcDbCircle
 10
28.1289330442222649
 20
261.5339434324171748
 30
0.0
 40
1.875
100
AcDbArc
 50
238.5760935141523191
 51
121.4239064858445687
  0
ARC
  5
D0
100
AcDbEntity
  8
0
 62
256
370
-1
 48
1.0
  6
BYLAYER
100
AcDbCircle
 10
151.1981823733741521
 20
117.4351492523823595
 30
0.0
 40
1.875
100
AcDbArc
 50
148.5760935141523191
 51
31.4239064858445616
  0
ARC
  5
D1
100
AcDbEntity
  8
0
 62
256
370
-1
 48
1.0
  6
BYLAYER
100
AcDbCircle
 10
28.1289330442223786
 20
166.5339434324171748
 30
0.0
 40
1.875
100
AcDbArc
 50
238.5760935141523191
 51
121.4239064858445687
  0
ARC
  5
D2
100
AcDbEntity
  8
0
 62
256
370
-1
 48
1.0
  6
BYLAYER
100
AcDbCircle
 10
56.1981823733741521
 20
117.4351492523823595
 30
0.0
 40
1.875
100
AcDbArc
 50
148.5760935141523191
 51
31.4239064858445616
  0
ARC
  5
D3
100
AcDbEntity
  8
0
 62
256
370
-1
 48
1.0
  6
BYLAYER
100
AcDbCircle
 10
20.8789330442223786
 20
261.5339434324171748
 30
0.0
 40
3.7000000000000002
100
AcDbArc
 50
25.6220277472430631
 51
334.377972252758866
  0
ARC
  5
D4
100
AcDbEntity
  8
0
 62
256
370
-1
 48
1.0
  6
BYLAYER
100
AcDbCircle
 10
151.1981823733741521
 20
124.6851492523823595
 30
0.0
 40
3.7000000000000002
100
AcDbArc
 50
295.6220277472430666
 51
244.377972252758866
  0
ARC
  5
D5
100
AcDbEntity
  8
0
 62
256
370
-1
 48
1.0
  6
BYLAYER
100
AcDbCircle
 10
20.8789330442223786
 20
166.5339434324172601
 30
0.0
 40
3.7000000000000002
100
AcDbArc
 50
25.6220277472411304
 51
334.3779722527568765
  0
ARC
  5
D6
100
AcDbEntity
  8
0
 62
256
370
-1
 48
1.0
  6
BYLAYER
100
AcDbCircle
 10
56.198182373374209
 20
124.6851492523823595
 30
0.0
 40
3.7000000000000002
100
AcDbArc
 50
295.622027747241134
 51
244.3779722527568765
  0
LINE
  5
D7
100
AcDbEntity
100
AcDbLine
  8
0
 62
256
370
-1
 48
1.0
  6
BYLAYER
 10
27.228933044222515
 20
263.1339434324171975
 30
0.0
 11
24.1289330442223786
 21
263.1339434324172544
 31
0.0
  0
LINE
  5
D8
100
AcDbEntity
100
AcDbLine
  8
0
 62
256
370
-1
 48
1.0
  6
BYLAYER
 10
152.7981823733741749
 20
118.3351492523823367
 30
0.0
 11
152.7981823733742317
 21
121.4351492523823595
 31
0.0
  0
LINE
  5
D9
100
AcDbEntity
100
AcDbLine
  8
0
 62
256
370
-1
 48
1.0
  6
BYLAYER
 10
27.2289330442224013
 20
168.1339434324171975
 30
0.0
 11
24.1289330442223786
 21
168.1339434324171975
 31
0.0
  0
LINE
  5
DA
100
AcDbEntity
100
AcDbLine
  8
0
 62
256
370
-1
 48
1.0
  6
BYLAYER
 10
57.7981823733741749
 20
118.3351492523823367
 30
0.0
 11
57.7981823733741749
 21
121.4351492523823595
 31
0.0
  0
LINE
  5
DB
100
AcDbEntity
100
AcDbLine
  8
0
 62
256
370
-1
 48
1.0
  6
BYLAYER
 10
62.1289330442223218
 20
84.033943432417189
 30
0.0
 11
134.1289330442223218
 21
84.033943432417189
 31
0.0
  0
LINE
  5
DC
100
AcDbEntity
100
AcDbLine
  8
0
 62
256
370
-1
 48
1.0
  6
BYLAYER
 10
152.9885382901726985
 20
175.2018150827821046
 30
0.0
 11
152.9885382901725848
 21
247.2018150827821046
 31
0.0
  0
LINE
  5
DD
100
AcDbEntity
100
AcDbLine
  8
0
 62
256
370
-1
 48
1.0
  6
BYLAYER
 10
138.1289330442223218
 20
80.033943432417189
 30
0.0
 11
138.1289330442223218
 21
48.0339434324171606
 31
0.0
  0
LINE
  5
DE
100
AcDbEntity
100
AcDbLine
  8
0
 62
256
370
-1
 48
1.0
  6
BYLAYER
 10
156.9885382901724711
 20
251.2018150827821046
 30
0.0
 11
188.9885382901726985
 21
251.2018150827821046
 31
0.0
  0
LINE
  5
DF
100
AcDbEntity
100
AcDbLine
  8
0
 62
256
370
-1
 48
1.0
  6
BYLAYER
 10
27.2289330442224013
 20
259.9339434324172089
 30
0.0
 11
24.1289330442223786
 21
259.9339434324172089
 31
0.0
  0
LINE
  5
E0
100
AcDbEntity
100
AcDbLine
  8
0
 62
256
370
-1
 48
1.0
  6
BYLAYER
 10
149.5981823733741862
 20
118.3351492523823367
 30
0.0
 11
149.5981823733741862
 21
121.4351492523823595
 31
0.0
  0
LINE
  5
E1
100
AcDbEntity
100
AcDbLine
  8
0
 62
256
370
-1
 48
1.0
  6
BYLAYER
 10
27.2289330442224013
 20
164.9339434324172373
 30
0.0
 11
24.1289330442223786
 21
164.9339434324171805
 31
0.0
  0
LINE
  5
E2
100
AcDbEntity
100
AcDbLine
  8
0
 62
256
370
-1
 48
1.0
  6
BYLAYER
 10
54.5981823733741862
 20
118.3351492523823367
 30
0.0
 11
54.5981823733741294
 21
121.4351492523823595
 31
0.0
  0
LINE
  5
E3
100
AcDbEntity
100
AcDbLine
  8
0
 62
256
370
-1
 48
1.0
  6
BYLAYER
 10
134.1289330442223218
 20
44.0339434324171606
 30
0.0
 11
62.1289330442223218
 21
44.0339434324171606
 31
0.0
  0
LINE
  5
E4
100
AcDbEntity
100
AcDbLine
  8
0
 62
256
370
-1
 48
1.0
  6
BYLAYER
 10
192.9885382901725848
 20
247.2018150827821046
 30
0.0
 11
192.9885382901722437
 21
175.2018150827821046
 31
0.0
  0
LINE
  5
E5
100
AcDbEntity
100
AcDbLine
  8
0
 62
256
370
-1
 48
1.0
  6
BYLAYER
 10
101.8542410150393493
 20
271.4905395814395206
 30
0.0
 11
101.8542410150393493
 21
201.4905395814394922
 31
0.0
  0
LINE
  5
E6
100
AcDbEntity
100
AcDbLine
  8
0
 62
256
370
-1
 48
1.0
  6
BYLAYER
 10
130.0241841151987501
 20
184.8206945471995368
 30
0.0
 11
60.0241841151987501
 21
184.8206945471995084
 31
0.0
  0
LINE
  5
E7
100
AcDbEntity
100
AcDbLine
  8
0
 62
256
370
-1
 48
1.0
  6
BYLAYER
 10
106.8542410150393493
 20
196.4905395814394922
 30
0.0
 11
130.229241015039463
 21
196.4905395814394922
 31
0.0
  0
LINE
  5
E8
100
AcDbEntity
100
AcDbLine
  8
0
 62
256
370
-1
 48
1.0
  6
BYLAYER
 10
55.0241841151987501
 20
179.8206945471995368
 30
0.0
 11
55.0241841151987501
 21
156.4456945471995368
 31
0.0
  0
LINE
  5
E9
100
AcDbEntity
100
AcDbLine
  8
0
 62
256
370
-1
 48
1.0
  6
BYLAYER
 10
58.1289330442223218
 20
44.0339434324171606
 30
0.0
 11
58.1289330442223218
 21
84.033943432417189
 31
0.0
  0
LINE
  5
EA
100
AcDbEntity
100
AcDbLine
  8
0
 62
256
370
-1
 48
1.0
  6
BYLAYER
 10
192.9885382901726985
 20
171.2018150827821046
 30
0.0
 11
152.9885382901725848
 21
171.2018150827821046
 31
0.0
  0
LINE
  5
EB
100
AcDbEntity
100
AcDbLine
  8
0
 62
256
370
-1
 48
1.0
  6
BYLAYER
 10
135.2292410150393493
 20
201.4905395814394922
 30
0.0
 11
135.2292410150393493
 21
271.4905395814395206
 31
0.0
  0
LINE
  5
EC
100
AcDbEntity
100
AcDbLine
  8
0
 62
256
370
-1
 48
1.0
  6
BYLAYER
 10
60.0241841151987501
 20
151.4456945471995368
 30
0.0
 11
130.0241841151987501
 21
151.4456945471995368
 31
0.0
  0
LINE
  5
ED
100
AcDbEntity
100
AcDbLine
  8
0
 62
256
370
-1
 48
1.0
  6
BYLAYER
 10
130.229241015039463
 20
276.4905395814395206
 30
0.0
 11
106.8542410150393493
 21
276.4905395814395206
 31
0.0
  0
LINE
  5
EE
100
AcDbEntity
100
AcDbLine
  8
0
 62
256
370
-1
 48
1.0
  6
BYLAYER
 10
135.0241841151987501
 20
156.4456945471995368
 30
0.0
 11
135.0241841151987501
 21
179.8206945471995368
 31
0.0
  0
LINE
  5
EF
100
AcDbEntity
100
AcDbLine
  8
0
 62
256
370
-1
 48
1.0
  6
BYLAYER
 10
138.1289330442223218
 20
84.033943432417189
 30
0.0
 11
58.1289330442223218
 21
84.033943432417189
 31
0.0
  0
LINE
  5
F0
100
AcDbEntity
100
AcDbLine
  8
0
 62
256
370
-1
 48
1.0
  6
BYLAYER
 10
152.9885382901724711
 20
251.2018150827821046
 30
0.0
 11
152.9885382901725848
 21
171.2018150827821046
 31
0.0
  0
ARC
  5
F1
100
AcDbEntity
  8
0
 62
256
370
-1
 48
1.0
  6
BYLAYER
100
AcDbCircle
 10
130.2292410150393493
 20
271.4905395814395206
 30
0.0
 40
5.0
100
AcDbArc
 50
0.0
 51
90.0
  0
ARC
  5
F2
100
AcDbEntity
  8
0
 62
256
370
-1
 48
1.0
  6
BYLAYER
100
AcDbCircle
 10
130.0241841151987501
 20
156.4456945471995368
 30
0.0
 40
5.0
100
AcDbArc
 50
270.0
 51
0.0
  0
ARC
  5
F3
100
AcDbEntity
  8
0
 62
256
370
-1
 48
1.0
  6
BYLAYER
100
AcDbCircle
 10
106.8542410150393493
 20
271.4905395814395206
 30
0.0
 40
5.0
100
AcDbArc
 50
90.0
 51
180.0
  0
ARC
  5
F4
100
AcDbEntity
  8
0
 62
256
370
-1
 48
1.0
  6
BYLAYER
100
AcDbCircle
 10
130.0241841151987501
 20
179.8206945471995368
 30
0.0
 40
5.0
100
AcDbArc
 50
0.0
 51
90.0
  0
ARC
  5
F5
100
AcDbEntity
  8
0
 62
256
370
-1
 48
1.0
  6
BYLAYER
100
AcDbCircle
 10
106.8542410150393493
 20
201.4905395814394922
 30
0.0
 40
5.0
100
AcDbArc
 50
180.0
 51
270.0
  0
ARC
  5
F6
100
AcDbEntity
  8
0
 62
256
370
-1
 48
1.0
  6
BYLAYER
100
AcDbCircle
 10
60.0241841151987501
 20
179.8206945471995368
 30
0.0
 40
5.0
100
AcDbArc
 50
90.0
 51
180.0
  0
ARC
  5
F7
100
AcDbEntity
  8
0
 62
256
370
-1
 48
1.0
  6
BYLAYER
100
AcDbCircle
 10
62.4583716351988869
 20
271.1459868671993263
 30
0.0
 40
4.0
100
AcDbArc
 50
90.0
 51
180.0
  0
ARC
  5
F8
100
AcDbEntity
  8
0
 62
256
370
-1
 48
1.0
  6
BYLAYER
100
AcDbCircle
 10
62.8233410150393183
 20
199.9713395814395653
 30
0.0
 40
4.0
100
AcDbArc
 50
180.0
 51
270.0
  0
ARC
  5
F9
100
AcDbEntity
  8
0
 62
256
370
-1
 48
1.0
  6
BYLAYER
100
AcDbCircle
 10
87.4583716351988869
 20
271.1459868671993263
 30
0.0
 40
4.0
100
AcDbArc
 50
0.0
 51
90.0
  0
LINE
  5
FA
100
AcDbEntity
100
AcDbLine
  8
0
 62
256
370
-1
 48
1.0
  6
BYLAYER
 10
42.1289330442223218
 20
39.0339434324171606
 30
0.0
 11
154.1289330442223218
 21
39.0339434324171606
 31
0.0
  0
LINE
  5
FB
100
AcDbEntity
100
AcDbLine
  8
0
 62
256
370
-1
 48
1.0
  6
BYLAYER
 10
197.9885382901722437
 20
155.2018150827821046
 30
0.0
 11
197.9885382901715616
 21
267.2018150827821046
 31
0.0
  0
ARC
  5
FC
100
AcDbEntity
  8
0
 62
256
370
-1
 48
1.0
  6
BYLAYER
100
AcDbCircle
 10
62.8233410150395457
 20
224.9713395814395653
 30
0.0
 40
4.0
100
AcDbArc
 50
90.0
 51
180.0
  0
ARC
  5
FD
100
AcDbEntity
  8
0
 62
256
370
-1
 48
1.0
  6
BYLAYER
100
AcDbCircle
 10
130.2292410150393493
 20
201.4905395814394922
 30
0.0
 40
5.0
100
AcDbArc
 50
270.0
 51
0.0
  0
ARC
  5
FE
100
AcDbEntity
  8
0
 62
256
370
-1
 48
1.0
  6
BYLAYER
100
AcDbCircle
 10
60.0241841151987501
 20
156.4456945471995368
 30
0.0
 40
5.0
100
AcDbArc
 50
180.0
 51
270.0
  0
ARC
  5
FF
100
AcDbEntity
  8
0
 62
256
370
-1
 48
1.0
  6
BYLAYER
100
AcDbCircle
 10
62.4583716351988869
 20
247.1459868671993263
 30
0.0
 40
4.0
100
AcDbArc
 50
180.0
 51
270.0
  0
ARC
  5
100
100
AcDbEntity
  8
0
 62
256
370
-1
 48
1.0
  6
BYLAYER
100
AcDbCircle
 10
86.823341015039432
 20
199.9713395814395653
 30
0.0
 40
4.0
100
AcDbArc
 50
270.0
 51
0.0
  0
ARC
  5
101
100
AcDbEntity
  8
0
 62
256
370
-1
 48
1.0
  6
BYLAYER
100
AcDbCircle
 10
87.4583716351988869
 20
247.1459868671993263
 30
0.0
 40
4.0
100
AcDbArc
 50
270.0
 51
0.0
  0
ARC
  5
102
100
AcDbEntity
  8
0
 62
256
370
-1
 48
1.0
  6
BYLAYER
100
AcDbCircle
 10
86.8233410150393183
 20
224.9713395814395653
 30
0.0
 40
4.0
100
AcDbArc
 50
0.0
 51
90.0
  0
LINE
  5
103
100
AcDbEntity
100
AcDbLine
  8
0
 62
256
370
-1
 48
1.0
  6
BYLAYER
 10
168.1289330442223218
 20
45.5339434324171606
 30
0.0
 11
168.1289330442223218
 21
82.533943432417189
 31
0.0
  0
LINE
  5
104
100
AcDbEntity
100
AcDbLine
  8
0
 62
256
370
-1
 48
1.0
  6
BYLAYER
 10
191.4885382901720163
 20
281.2018150827821046
 30
0.0
 11
154.4885382901724711
 21
281.2018150827821046
 31
0.0
  0
LINE
  5
105
100
AcDbEntity
100
AcDbLine
  8
0
 62
256
370
-1
 48
1.0
  6
BYLAYER
 10
154.1289330442223218
 20
89.033943432417189
 30
0.0
 11
42.1289330442223218
 21
89.033943432417189
 31
0.0
  0
LINE
  5
106
100
AcDbEntity
100
AcDbLine
  8
0
 62
256
370
-1
 48
1.0
  6
BYLAYER
 10
147.9885382901726985
 20
267.2018150827821046
 30
0.0
 11
147.9885382901725848
 21
155.2018150827821046
 31
0.0
  0
LINE
  5
107
100
AcDbEntity
100
AcDbLine
  8
0
 62
256
370
-1
 48
1.0
  6
BYLAYER
 10
28.1289330442223218
 20
82.5339434324171322
 30
0.0
 11
28.1289330442223218
 21
45.5339434324171606
 31
0.0
  0
LINE
  5
108
100
AcDbEntity
100
AcDbLine
  8
0
 62
256
370
-1
 48
1.0
  6
BYLAYER
 10
154.4885382901725848
 20
141.2018150827821046
 30
0.0
 11
191.4885382901728121
 21
141.2018150827821046
 31
0.0
  0
LINE
  5
109
100
AcDbEntity
100
AcDbLine
  8
0
 62
256
370
-1
 48
1.0
  6
BYLAYER
 10
118.3489756686744272
 20
247.6155395814394922
 30
0.0
 11
116.5989756686746546
 21
247.6155395814394922
 31
0.0
  0
LINE
  5
10A
100
AcDbEntity
100
AcDbLine
  8
0
 62
256
370
-1
 48
1.0
  6
BYLAYER
 10
106.1491841151987501
 20
168.3259598935644021
 30
0.0
 11
106.1491841151987501
 21
170.0759598935644306
 31
0.0
  0
LINE
  5
10B
100
AcDbEntity
100
AcDbLine
  8
0
 62
256
370
-1
 48
1.0
  6
BYLAYER
 10
63.4583716351988869
 20
252.640721520834461
 30
0.0
 11
63.4583716351988869
 21
250.890721520834461
 31
0.0
  0
LINE
  5
10C
100
AcDbEntity
100
AcDbLine
  8
0
 62
256
370
-1
 48
1.0
  6
BYLAYER
 10
47.4672031733742301
 20
14.8579992009070168
 30
0.0
 11
47.4672031733742301
 21
13.1079992009070168
 31
0.0
  0
LINE
  5
10D
100
AcDbEntity
100
AcDbLine
  8
0
 62
256
370
-1
 48
1.0
  6
BYLAYER
 10
81.3286063614040131
 20
200.9713395814395653
 30
0.0
 11
83.0786063614038994
 21
200.9713395814395653
 31
0.0
  0
LINE
  5
10E
100
AcDbEntity
100
AcDbLine
  8
0
 62
256
370
-1
 48
1.0
  6
BYLAYER
 10
81.3286063614042405
 20
202.9713395814395653
 30
0.0
 11
83.0786063614041268
 21
202.9713395814395653
 31
0.0
  0
LINE
  5
10F
100
AcDbEntity
100
AcDbLine
  8
0
 62
256
370
-1
 48
1.0
  6
BYLAYER
 10
104.1491841151987501
 20
168.3259598935643453
 30
0.0
 11
104.1491841151987501
 21
170.0759598935644021
 31
0.0
  0
LINE
  5
110
100
AcDbEntity
100
AcDbLine
  8
0
 62
256
370
-1
 48
1.0
  6
BYLAYER
 10
118.3489756686745409
 20
245.6155395814394922
 30
0.0
 11
116.5989756686744272
 21
245.6155395814394922
 31
0.0
  0
LINE
  5
111
100
AcDbEntity
100
AcDbLine
  8
0
 62
256
370
-1
 48
1.0
  6
BYLAYER
 10
49.4672031733742301
 20
14.8579992009070168
 30
0.0
 11
49.4672031733742301
 21
13.1079992009070168
 31
0.0
  0
LINE
  5
112
100
AcDbEntity
100
AcDbLine
  8
0
 62
256
370
-1
 48
1.0
  6
BYLAYER
 10
65.4583716351988869
 20
252.640721520834461
 30
0.0
 11
65.4583716351988869
 21
250.890721520834461
 31
0.0
  0
LINE
  5
113
100
AcDbEntity
100
AcDbLine
  8
0
 62
256
370
-1
 48
1.0
  6
BYLAYER
 10
84.4621779177027747
 20
252.5535545705535583
 30
0.0
 11
84.4583742586410722
 21
250.8930121271952203
 31
0.0
  0
LINE
  5
114
100
AcDbEntity
100
AcDbLine
  8
0
 62
256
370
-1
 48
1.0
  6
BYLAYER
 10
85.1453778326948623
 20
168.4131268438453048
 30
0.0
 11
85.1491814917565648
 21
170.0736692872036429
 31
0.0
  0
LINE
  5
115
100
AcDbEntity
100
AcDbLine
  8
0
 62
256
370
-1
 48
1.0
  6
BYLAYER
 10
81.4157733116850295
 20
221.9751458639434532
 30
0.0
 11
83.076315755043538
 21
221.9713422048817506
 31
0.0
  0
LINE
  5
116
100
AcDbEntity
100
AcDbLine
  8
0
 62
256
370
-1
 48
1.0
  6
BYLAYER
 10
68.4710094558781179
 20
14.7708322506260856
 30
0.0
 11
68.4672057968164154
 21
13.1102898072677476
 31
0.0
  0
LINE
  5
117
100
AcDbEntity
100
AcDbLine
  8
0
 62
256
370
-1
 48
1.0
  6
BYLAYER
 10
118.2618087183936382
 20
226.6117332989356044
 30
0.0
 11
116.601266275035357
 21
226.6155369579973069
 31
0.0
  0
LINE
  5
118
100
AcDbEntity
100
AcDbLine
  8
0
 62
256
370
-1
 48
1.0
  6
BYLAYER
 10
118.3489756686744272
 20
224.6155395814394922
 30
0.0
 11
116.5989756686744272
 21
224.6155395814394922
 31
0.0
  0
LINE
  5
119
100
AcDbEntity
100
AcDbLine
  8
0
 62
256
370
-1
 48
1.0
  6
BYLAYER
 10
83.1491841151987501
 20
168.3259598935644021
 30
0.0
 11
83.1491841151987501
 21
170.075959893564459
 31
0.0
  0
LINE
  5
11A
100
AcDbEntity
100
AcDbLine
  8
0
 62
256
370
-1
 48
1.0
  6
BYLAYER
 10
86.4583716351988869
 20
252.640721520834461
 30
0.0
 11
86.4583716351988869
 21
250.890721520834461
 31
0.0
  0
LINE
  5
11B
100
AcDbEntity
100
AcDbLine
  8
0
 62
256
370
-1
 48
1.0
  6
BYLAYER
 10
62.1289330442223218
 20
41.5339434324171606
 30
0.0
 11
134.1289330442223218
 21
41.5339434324171606
 31
0.0
  0
LINE
  5
11C
100
AcDbEntity
100
AcDbLine
  8
0
 62
256
370
-1
 48
1.0
  6
BYLAYER
 10
81.3286063614042405
 20
223.9713395814395653
 30
0.0
 11
83.0786063614038994
 21
223.9713395814395653
 31
0.0
  0
LINE
  5
11D
100
AcDbEntity
100
AcDbLine
  8
0
 62
256
370
-1
 48
1.0
  6
BYLAYER
 10
195.4885382901729258
 20
175.2018150827821046
 30
0.0
 11
195.4885382901733806
 21
247.2018150827821046
 31
0.0
  0
LINE
  5
11E
100
AcDbEntity
100
AcDbLine
  8
0
 62
256
370
-1
 48
1.0
  6
BYLAYER
 10
70.4672031733742301
 20
14.8579992009070168
 30
0.0
 11
70.4672031733742301
 21
13.1079992009070168
 31
0.0
  0
LINE
  5
11F
100
AcDbEntity
100
AcDbLine
  8
0
 62
256
370
-1
 48
1.0
  6
BYLAYER
 10
168.1289330442223218
 20
41.5339434324171606
 30
0.0
 11
168.1289330442223218
 21
86.533943432417189
 31
0.0
  0
LINE
  5
120
100
AcDbEntity
100
AcDbLine
  8
0
 62
256
370
-1
 48
1.0
  6
BYLAYER
 10
195.4885382901722437
 20
281.2018150827821046
 30
0.0
 11
150.4885382901726985
 21
281.2018150827821046
 31
0.0
  0
LINE
  5
121
100
AcDbEntity
100
AcDbLine
  8
0
 62
256
370
-1
 48
1.0
  6
BYLAYER
 10
117.3542410150392357
 20
243.6155395814394922
 30
0.0
 11
117.354241015039463
 21
238.8994217628544732
 31
0.0
  0
LINE
  5
122
100
AcDbEntity
100
AcDbLine
  8
0
 62
256
370
-1
 48
1.0
  6
BYLAYER
 10
117.3542410150393493
 20
233.3316574000244543
 30
0.0
 11
117.3542410150393493
 21
228.6155395814394922
 31
0.0
  0
LINE
  5
123
100
AcDbEntity
100
AcDbLine
  8
0
 62
256
370
-1
 48
1.0
  6
BYLAYER
 10
91.8653019337837122
 20
169.3206945471995368
 30
0.0
 11
87.1491841151987501
 21
169.3206945471995368
 31
0.0
  0
LINE
  5
124
100
AcDbEntity
100
AcDbLine
  8
0
 62
256
370
-1
 48
1.0
  6
BYLAYER
 10
102.1491841151987501
 20
169.3206945471995652
 30
0.0
 11
97.4330662966137311
 21
169.3206945471995368
 31
0.0
  0
LINE
  5
125
100
AcDbEntity
100
AcDbLine
  8
0
 62
256
370
-1
 48
1.0
  6
BYLAYER
 10
67.4583716351988869
 20
251.6459868671993263
 30
0.0
 11
72.1744894537839059
 21
251.6459868671993263
 31
0.0
  0
LINE
  5
126
100
AcDbEntity
100
AcDbLine
  8
0
 62
256
370
-1
 48
1.0
  6
BYLAYER
 10
77.7422538166139248
 20
251.6459868671993263
 30
0.0
 11
82.4583716351988869
 21
251.6459868671993263
 31
0.0
  0
LINE
  5
127
100
AcDbEntity
100
AcDbLine
  8
0
 62
256
370
-1
 48
1.0
  6
BYLAYER
 10
82.3233410150393183
 20
204.9713395814395653
 30
0.0
 11
82.3233410150393183
 21
209.6874574000245843
 31
0.0
  0
LINE
  5
128
100
AcDbEntity
100
AcDbLine
  8
0
 62
256
370
-1
 48
1.0
  6
BYLAYER
 10
82.3233410150393183
 20
215.2552217628546032
 30
0.0
 11
82.3233410150393183
 21
219.9713395814395653
 31
0.0
  0
LINE
  5
129
100
AcDbEntity
100
AcDbLine
  8
0
 62
256
370
-1
 48
1.0
  6
BYLAYER
 10
79.3354221025269908
 20
13.3138634324171221
 30
0.0
 11
83.3354221025269908
 21
13.3138634324171221
 31
0.0
  0
LINE
  5
12A
100
AcDbEntity
100
AcDbLine
  8
0
 62
256
370
-1
 48
1.0
  6
BYLAYER
 10
108.4672031733742301
 20
12.1079992009070168
 30
0.0
 11
113.1833209919591923
 21
12.1079992009070168
 31
0.0
  0
LINE
  5
12B
100
AcDbEntity
100
AcDbLine
  8
0
 62
256
370
-1
 48
1.0
  6
BYLAYER
 10
90.3354221025269908
 20
13.3138634324171221
 30
0.0
 11
94.3354221025269908
 21
13.3138634324171221
 31
0.0
  0
LINE
  5
12C
100
AcDbEntity
100
AcDbLine
  8
0
 62
256
370
-1
 48
1.0
  6
BYLAYER
 10
118.7510853547892111
 20
12.1079992009070168
 30
0.0
 11
123.4672031733742301
 21
12.1079992009070168
 31
0.0
  0
LINE
  5
12D
100
AcDbEntity
100
AcDbLine
  8
0
 62
256
370
-1
 48
1.0
  6
BYLAYER
 10
126.9542410150394858
 20
228.6155395814394922
 30
0.0
 11
132.3542410150393493
 21
228.6155395814394922
 31
0.0
  0
LINE
  5
12E
100
AcDbEntity
100
AcDbLine
  8
0
 62
256
370
-1
 48
1.0
  6
BYLAYER
 10
117.3542410150393493
 20
228.6155395814394922
 30
0.0
 11
122.7542410150392129
 21
228.6155395814394922
 31
0.0
  0
LINE
  5
12F
100
AcDbEntity
100
AcDbLine
  8
0
 62
256
370
-1
 48
1.0
  6
BYLAYER
 10
87.1491841151987501
 20
159.7206945471994857
 30
0.0
 11
87.1491841151987501
 21
154.3206945471995368
 31
0.0
  0
LINE
  5
130
100
AcDbEntity
100
AcDbLine
  8
0
 62
256
370
-1
 48
1.0
  6
BYLAYER
 10
87.1491841151987501
 20
169.3206945471995368
 30
0.0
 11
87.1491841151987501
 21
163.9206945471995596
 31
0.0
  0
LINE
  5
131
100
AcDbEntity
100
AcDbLine
  8
0
 62
256
370
-1
 48
1.0
  6
BYLAYER
 10
82.4583716351988869
 20
251.6459868671993263
 30
0.0
 11
82.4583716351988869
 21
257.0459868671993036
 31
0.0
  0
LINE
  5
132
100
AcDbEntity
100
AcDbLine
  8
0
 62
256
370
-1
 48
1.0
  6
BYLAYER
 10
82.4583716351988869
 20
261.245986867199349
 30
0.0
 11
82.4583716351988869
 21
266.6459868671993263
 31
0.0
  0
LINE
  5
133
100
AcDbEntity
100
AcDbLine
  8
0
 62
256
370
-1
 48
1.0
  6
BYLAYER
 10
72.7233410150392956
 20
219.9713395814395653
 30
0.0
 11
67.3233410150393183
 21
219.9713395814395653
 31
0.0
  0
LINE
  5
134
100
AcDbEntity
100
AcDbLine
  8
0
 62
256
370
-1
 48
1.0
  6
BYLAYER
 10
82.3233410150393183
 20
219.9713395814395653
 30
0.0
 11
76.9233410150394548
 21
219.9713395814395653
 31
0.0
  0
LINE
  5
135
100
AcDbEntity
100
AcDbLine
  8
0
 62
256
370
-1
 48
1.0
  6
BYLAYER
 10
123.4672031733742301
 20
12.1079992009070168
 30
0.0
 11
123.4672031733742301
 21
17.5079992009070224
 31
0.0
  0
LINE
  5
136
100
AcDbEntity
100
AcDbLine
  8
0
 62
256
370
-1
 48
1.0
  6
BYLAYER
 10
94.3354221025269908
 20
13.3138634324171221
 30
0.0
 11
94.3354221025269908
 21
18.0299812510021127
 31
0.0
  0
LINE
  5
137
100
AcDbEntity
100
AcDbLine
  8
0
 62
256
370
-1
 48
1.0
  6
BYLAYER
 10
123.4672031733742301
 20
21.7079992009070111
 30
0.0
 11
123.4672031733742301
 21
27.1079992009070168
 31
0.0
  0
LINE
  5
138
100
AcDbEntity
100
AcDbLine
  8
0
 62
256
370
-1
 48
1.0
  6
BYLAYER
 10
94.3354221025269908
 20
23.5977456138321315
 30
0.0
 11
94.3354221025269908
 21
28.3138634324171221
 31
0.0
  0
LINE
  5
139
100
AcDbEntity
100
AcDbLine
  8
0
 62
256
370
-1
 48
1.0
  6
BYLAYER
 10
113.1833209919591923
 20
27.1079992009070168
 30
0.0
 11
108.4672031733742301
 21
27.1079992009070168
 31
0.0
  0
LINE
  5
13A
100
AcDbEntity
100
AcDbLine
  8
0
 62
256
370
-1
 48
1.0
  6
BYLAYER
 10
132.3542410150393493
 20
228.6155395814394922
 30
0.0
 11
132.3542410150392357
 21
233.3316574000244543
 31
0.0
  0
LINE
  5
13B
100
AcDbEntity
100
AcDbLine
  8
0
 62
256
370
-1
 48
1.0
  6
BYLAYER
 10
94.3354221025269908
 20
28.3138634324171221
 30
0.0
 11
89.6193042839420286
 21
28.3138634324171221
 31
0.0
  0
LINE
  5
13C
100
AcDbEntity
100
AcDbLine
  8
0
 62
256
370
-1
 48
1.0
  6
BYLAYER
 10
132.354241015039463
 20
238.8994217628544732
 30
0.0
 11
132.354241015039122
 21
243.6155395814394922
 31
0.0
  0
LINE
  5
13D
100
AcDbEntity
100
AcDbLine
  8
0
 62
256
370
-1
 48
1.0
  6
BYLAYER
 10
82.4583716351988869
 20
266.6459868671993263
 30
0.0
 11
77.7422538166139248
 21
266.6459868671993263
 31
0.0
  0
LINE
  5
13E
100
AcDbEntity
100
AcDbLine
  8
0
 62
256
370
-1
 48
1.0
  6
BYLAYER
 10
72.1744894537839059
 20
266.6459868671993263
 30
0.0
 11
67.4583716351988869
 21
266.6459868671993263
 31
0.0
  0
LINE
  5
13F
100
AcDbEntity
100
AcDbLine
  8
0
 62
256
370
-1
 48
1.0
  6
BYLAYER
 10
84.0515399211119529
 20
28.3138634324171221
 30
0.0
 11
79.3354221025269908
 21
28.3138634324171221
 31
0.0
  0
LINE
  5
140
100
AcDbEntity
100
AcDbLine
  8
0
 62
256
370
-1
 48
1.0
  6
BYLAYER
 10
123.4672031733742301
 20
27.1079992009070168
 30
0.0
 11
118.7510853547892111
 21
27.1079992009070168
 31
0.0
  0
LINE
  5
141
100
AcDbEntity
100
AcDbLine
  8
0
 62
256
370
-1
 48
1.0
  6
BYLAYER
 10
67.3233410150393183
 20
209.6874574000245843
 30
0.0
 11
67.3233410150393183
 21
204.9713395814395653
 31
0.0
  0
LINE
  5
142
100
AcDbEntity
100
AcDbLine
  8
0
 62
256
370
-1
 48
1.0
  6
BYLAYER
 10
67.3233410150393183
 20
219.9713395814395653
 30
0.0
 11
67.3233410150393183
 21
215.2552217628546032
 31
0.0
  0
LINE
  5
143
100
AcDbEntity
100
AcDbLine
  8
0
 62
256
370
-1
 48
1.0
  6
BYLAYER
 10
87.1491841151987501
 20
154.3206945471995368
 30
0.0
 11
91.8653019337837122
 21
154.3206945471995368
 31
0.0
  0
LINE
  5
144
100
AcDbEntity
100
AcDbLine
  8
0
 62
256
370
-1
 48
1.0
  6
BYLAYER
 10
97.4330662966137311
 20
154.3206945471995084
 30
0.0
 11
102.1491841151987501
 21
154.3206945471995937
 31
0.0
  0
LINE
  5
145
100
AcDbEntity
100
AcDbLine
  8
0
 62
256
370
-1
 48
1.0
  6
BYLAYER
 10
79.3354221025269908
 20
18.0299812510021127
 30
0.0
 11
79.3354221025269908
 21
13.3138634324171221
 31
0.0
  0
LINE
  5
146
100
AcDbEntity
100
AcDbLine
  8
0
 62
256
370
-1
 48
1.0
  6
BYLAYER
 10
132.354241015039122
 20
243.6155395814394922
 30
0.0
 11
126.9542410150392584
 21
243.6155395814394922
 31
0.0
  0
LINE
  5
147
100
AcDbEntity
100
AcDbLine
  8
0
 62
256
370
-1
 48
1.0
  6
BYLAYER
 10
122.7542410150392129
 20
243.6155395814394922
 30
0.0
 11
117.3542410150392357
 21
243.6155395814394922
 31
0.0
  0
LINE
  5
148
100
AcDbEntity
100
AcDbLine
  8
0
 62
256
370
-1
 48
1.0
  6
BYLAYER
 10
108.4672031733742301
 20
27.1079992009070168
 30
0.0
 11
108.4672031733742301
 21
21.7079992009070111
 31
0.0
  0
LINE
  5
149
100
AcDbEntity
100
AcDbLine
  8
0
 62
256
370
-1
 48
1.0
  6
BYLAYER
 10
79.3354221025269908
 20
28.3138634324171221
 30
0.0
 11
79.3354221025269908
 21
23.5977456138321315
 31
0.0
  0
LINE
  5
14A
100
AcDbEntity
100
AcDbLine
  8
0
 62
256
370
-1
 48
1.0
  6
BYLAYER
 10
108.4672031733742301
 20
17.5079992009070224
 30
0.0
 11
108.4672031733742301
 21
12.1079992009070168
 31
0.0
  0
LINE
  5
14B
100
AcDbEntity
100
AcDbLine
  8
0
 62
256
370
-1
 48
1.0
  6
BYLAYER
 10
67.4583716351988869
 20
266.6459868671993263
 30
0.0
 11
67.4583716351988869
 21
261.245986867199349
 31
0.0
  0
LINE
  5
14C
100
AcDbEntity
100
AcDbLine
  8
0
 62
256
370
-1
 48
1.0
  6
BYLAYER
 10
67.4583716351988869
 20
257.0459868671993036
 30
0.0
 11
67.4583716351988869
 21
251.6459868671993263
 31
0.0
  0
LINE
  5
14D
100
AcDbEntity
100
AcDbLine
  8
0
 62
256
370
-1
 48
1.0
  6
BYLAYER
 10
67.3233410150393183
 20
204.9713395814395653
 30
0.0
 11
72.7233410150394093
 21
204.9713395814395653
 31
0.0
  0
LINE
  5
14E
100
AcDbEntity
100
AcDbLine
  8
0
 62
256
370
-1
 48
1.0
  6
BYLAYER
 10
76.9233410150391137
 20
204.9713395814395653
 30
0.0
 11
82.3233410150393183
 21
204.9713395814395653
 31
0.0
  0
LINE
  5
14F
100
AcDbEntity
100
AcDbLine
  8
0
 62
256
370
-1
 48
1.0
  6
BYLAYER
 10
102.1491841151987501
 20
154.3206945471995937
 30
0.0
 11
102.1491841151987501
 21
159.7206945471995141
 31
0.0
  0
LINE
  5
150
100
AcDbEntity
100
AcDbLine
  8
0
 62
256
370
-1
 48
1.0
  6
BYLAYER
 10
102.1491841151987501
 20
163.9206945471995596
 30
0.0
 11
102.1491841151987501
 21
169.3206945471995652
 31
0.0
  0
ARC
  5
151
100
AcDbEntity
  8
0
 62
256
370
-1
 48
1.0
  6
BYLAYER
100
AcDbCircle
 10
86.8354221025269908
 20
20.8138634324171221
 30
0.0
 40
8.0
100
AcDbArc
 50
90.0
 51
110.3641348063178071
  0
ARC
  5
152
100
AcDbEntity
  8
0
 62
256
370
-1
 48
1.0
  6
BYLAYER
100
AcDbCircle
 10
115.9672031733742301
 20
19.6079992009069883
 30
0.0
 40
8.0
100
AcDbArc
 50
90.0
 51
110.3641348063178071
  0
ARC
  5
153
100
AcDbEntity
  8
0
 62
256
370
-1
 48
1.0
  6
BYLAYER
100
AcDbCircle
 10
115.9672031733742301
 20
19.6079992009069883
 30
0.0
 40
8.0
100
AcDbArc
 50
249.6358651936822071
 51
290.3641348063177929
  0
ARC
  5
154
100
AcDbEntity
  8
0
 62
256
370
-1
 48
1.0
  6
BYLAYER
100
AcDbCircle
 10
115.9672031733742301
 20
19.6079992009069883
 30
0.0
 40
8.0
100
AcDbArc
 50
90.0
 51
110.3641348063178071
  0
ARC
  5
155
100
AcDbEntity
  8
0
 62
256
370
-1
 48
1.0
  6
BYLAYER
100
AcDbCircle
 10
124.8542410150393493
 20
236.1155395814394922
 30
0.0
 40
8.0
100
AcDbArc
 50
0.0
 51
20.3641348063178
  0
ARC
  5
156
100
AcDbEntity
  8
0
 62
256
370
-1
 48
1.0
  6
BYLAYER
100
AcDbCircle
 10
124.8542410150393493
 20
236.1155395814394922
 30
0.0
 40
8.0
100
AcDbArc
 50
159.6358651936822071
 51
200.3641348063177929
  0
ARC
  5
157
100
AcDbEntity
  8
0
 62
256
370
-1
 48
1.0
  6
BYLAYER
100
AcDbCircle
 10
86.8354221025269908
 20
20.8138634324171221
 30
0.0
 40
8.0
100
AcDbArc
 50
90.0
 51
110.3641348063178071
  0
ARC
  5
158
100
AcDbEntity
  8
0
 62
256
370
-1
 48
1.0
  6
BYLAYER
100
AcDbCircle
 10
86.8354221025269908
 20
20.8138634324171221
 30
0.0
 40
8.0
100
AcDbArc
 50
90.0
 51
110.3641348063178071
  0
ARC
  5
159
100
AcDbEntity
  8
0
 62
256
370
-1
 48
1.0
  6
BYLAYER
100
AcDbCircle
 10
124.8542410150393493
 20
236.1155395814394922
 30
0.0
 40
8.0
100
AcDbArc
 50
0.0
 51
20.3641348063178
  0
ARC
  5
15A
100
AcDbEntity
  8
0
 62
256
370
-1
 48
1.0
  6
BYLAYER
100
AcDbCircle
 10
86.8354221025269908
 20
20.8138634324171221
 30
0.0
 40
8.0
100
AcDbArc
 50
339.6358651936822071
 51
20.3641348063178107
  0
ARC
  5
15B
100
AcDbEntity
  8
0
 62
256
370
-1
 48
1.0
  6
BYLAYER
100
AcDbCircle
 10
115.9672031733742301
 20
19.6079992009069883
 30
0.0
 40
8.0
100
AcDbArc
 50
249.6358651936822071
 51
290.3641348063177929
  0
ARC
  5
15C
100
AcDbEntity
  8
0
 62
256
370
-1
 48
1.0
  6
BYLAYER
100
AcDbCircle
 10
124.8542410150393493
 20
236.1155395814394922
 30
0.0
 40
8.0
100
AcDbArc
 50
0.0
 51
20.3641348063178
  0
ARC
  5
15D
100
AcDbEntity
  8
0
 62
256
370
-1
 48
1.0
  6
BYLAYER
100
AcDbCircle
 10
86.8354221025269908
 20
20.8138634324171221
 30
0.0
 40
8.0
100
AcDbArc
 50
339.6358651936822071
 51
20.3641348063178107
  0
ARC
  5
15E
100
AcDbEntity
  8
0
 62
256
370
-1
 48
1.0
  6
BYLAYER
100
AcDbCircle
 10
115.9672031733742301
 20
19.6079992009069883
 30
0.0
 40
8.0
100
AcDbArc
 50
69.6358651936821929
 51
90.0
  0
ARC
  5
15F
100
AcDbEntity
  8
0
 62
256
370
-1
 48
1.0
  6
BYLAYER
100
AcDbCircle
 10
124.8542410150393493
 20
236.1155395814394922
 30
0.0
 40
8.0
100
AcDbArc
 50
339.6358651936822071
 51
0.0
  0
ARC
  5
160
100
AcDbEntity
  8
0
 62
256
370
-1
 48
1.0
  6
BYLAYER
100
AcDbCircle
 10
86.8354221025269908
 20
20.8138634324171221
 30
0.0
 40
8.0
100
AcDbArc
 50
159.6358651936822071
 51
200.3641348063177929
  0
ARC
  5
161
100
AcDbEntity
  8
0
 62
256
370
-1
 48
1.0
  6
BYLAYER
100
AcDbCircle
 10
124.8542410150393493
 20
236.1155395814394922
 30
0.0
 40
8.0
100
AcDbArc
 50
159.6358651936822071
 51
200.3641348063177929
  0
ARC
  5
162
100
AcDbEntity
  8
0
 62
256
370
-1
 48
1.0
  6
BYLAYER
100
AcDbCircle
 10
86.8354221025269908
 20
20.8138634324171221
 30
0.0
 40
8.0
100
AcDbArc
 50
159.6358651936822071
 51
200.3641348063177929
  0
ARC
  5
163
100
AcDbEntity
  8
0
 62
256
370
-1
 48
1.0
  6
BYLAYER
100
AcDbCircle
 10
115.9672031733742301
 20
19.6079992009069883
 30
0.0
 40
8.0
100
AcDbArc
 50
90.0
 51
110.3641348063178071
  0
ARC
  5
164
100
AcDbEntity
  8
0
 62
256
370
-1
 48
1.0
  6
BYLAYER
100
AcDbCircle
 10
86.8354221025269908
 20
20.8138634324171221
 30
0.0
 40
8.0
100
AcDbArc
 50
69.6358651936821929
 51
90.0
  0
ARC
  5
165
100
AcDbEntity
  8
0
 62
256
370
-1
 48
1.0
  6
BYLAYER
100
AcDbCircle
 10
94.6491841151987501
 20
161.8206945471995937
 30
0.0
 40
8.0
100
AcDbArc
 50
270.0
 51
290.3641348063177929
  0
ARC
  5
166
100
AcDbEntity
  8
0
 62
256
370
-1
 48
1.0
  6
BYLAYER
100
AcDbCircle
 10
94.6491841151987501
 20
161.8206945471995937
 30
0.0
 40
8.0
100
AcDbArc
 50
249.6358651936822071
 51
270.0
  0
ARC
  5
167
100
AcDbEntity
  8
0
 62
256
370
-1
 48
1.0
  6
BYLAYER
100
AcDbCircle
 10
94.6491841151987501
 20
161.8206945471995937
 30
0.0
 40
8.0
100
AcDbArc
 50
69.6358651936821929
 51
110.3641348063178071
  0
ARC
  5
168
100
AcDbEntity
  8
0
 62
256
370
-1
 48
1.0
  6
BYLAYER
100
AcDbCircle
 10
94.6491841151987501
 20
161.8206945471995937
 30
0.0
 40
8.0
100
AcDbArc
 50
270.0
 51
290.3641348063177929
  0
ARC
  5
169
100
AcDbEntity
  8
0
 62
256
370
-1
 48
1.0
  6
BYLAYER
100
AcDbCircle
 10
94.6491841151987501
 20
161.8206945471995937
 30
0.0
 40
8.0
100
AcDbArc
 50
69.6358651936821929
 51
110.3641348063178071
  0
ARC
  5
16A
100
AcDbEntity
  8
0
 62
256
370
-1
 48
1.0
  6
BYLAYER
100
AcDbCircle
 10
94.6491841151987501
 20
161.8206945471995937
 30
0.0
 40
8.0
100
AcDbArc
 50
270.0
 51
290.3641348063177929
  0
ARC
  5
16B
100
AcDbEntity
  8
0
 62
256
370
-1
 48
1.0
  6
BYLAYER
100
AcDbCircle
 10
74.9583716351988869
 20
259.1459868671993263
 30
0.0
 40
8.0
100
AcDbArc
 50
69.6358651936821929
 51
90.0
  0
ARC
  5
16C
100
AcDbEntity
  8
0
 62
256
370
-1
 48
1.0
  6
BYLAYER
100
AcDbCircle
 10
74.9583716351988869
 20
259.1459868671993263
 30
0.0
 40
8.0
100
AcDbArc
 50
249.6358651936822071
 51
290.3641348063177929
  0
ARC
  5
16D
100
AcDbEntity
  8
0
 62
256
370
-1
 48
1.0
  6
BYLAYER
100
AcDbCircle
 10
74.9583716351988869
 20
259.1459868671993263
 30
0.0
 40
8.0
100
AcDbArc
 50
90.0
 51
110.3641348063178071
  0
ARC
  5
16E
100
AcDbEntity
  8
0
 62
256
370
-1
 48
1.0
  6
BYLAYER
100
AcDbCircle
 10
74.9583716351988869
 20
259.1459868671993263
 30
0.0
 40
8.0
100
AcDbArc
 50
90.0
 51
110.3641348063178071
  0
ARC
  5
16F
100
AcDbEntity
  8
0
 62
256
370
-1
 48
1.0
  6
BYLAYER
100
AcDbCircle
 10
74.9583716351988869
 20
259.1459868671993263
 30
0.0
 40
8.0
100
AcDbArc
 50
249.6358651936822071
 51
290.3641348063177929
  0
ARC
  5
170
100
AcDbEntity
  8
0
 62
256
370
-1
 48
1.0
  6
BYLAYER
100
AcDbCircle
 10
74.9583716351988869
 20
259.1459868671993263
 30
0.0
 40
8.0
100
AcDbArc
 50
90.0
 51
110.3641348063178071
  0
ARC
  5
171
100
AcDbEntity
  8
0
 62
256
370
-1
 48
1.0
  6
BYLAYER
100
AcDbCircle
 10
74.8233410150393183
 20
212.4713395814395653
 30
0.0
 40
8.0
100
AcDbArc
 50
180.0
 51
200.3641348063177929
  0
ARC
  5
172
100
AcDbEntity
  8
0
 62
256
370
-1
 48
1.0
  6
BYLAYER
100
AcDbCircle
 10
74.8233410150393183
 20
212.4713395814395653
 30
0.0
 40
8.0
100
AcDbArc
 50
339.6358651936822071
 51
20.3641348063178
  0
ARC
  5
173
100
AcDbEntity
  8
0
 62
256
370
-1
 48
1.0
  6
BYLAYER
100
AcDbCircle
 10
74.8233410150393183
 20
212.4713395814395653
 30
0.0
 40
8.0
100
AcDbArc
 50
180.0
 51
200.3641348063177929
  0
ARC
  5
174
100
AcDbEntity
  8
0
 62
256
370
-1
 48
1.0
  6
BYLAYER
100
AcDbCircle
 10
74.8233410150393183
 20
212.4713395814395653
 30
0.0
 40
8.0
100
AcDbArc
 50
180.0
 51
200.3641348063177929
  0
ARC
  5
175
100
AcDbEntity
  8
0
 62
256
370
-1
 48
1.0
  6
BYLAYER
100
AcDbCircle
 10
74.8233410150393183
 20
212.4713395814395653
 30
0.0
 40
8.0
100
AcDbArc
 50
159.6358651936822071
 51
180.0
  0
ARC
  5
176
100
AcDbEntity
  8
0
 62
256
370
-1
 48
1.0
  6
BYLAYER
100
AcDbCircle
 10
74.8233410150393183
 20
212.4713395814395653
 30
0.0
 40
8.0
100
AcDbArc
 50
339.6358651936822071
 51
20.3641348063178
  0
LINE
  5
177
100
AcDbEntity
100
AcDbLine
  8
0
 62
256
370
-1
 48
1.0
  6
BYLAYER
 10
134.1289330442223218
 20
86.533943432417189
 30
0.0
 11
62.1289330442223218
 21
86.533943432417189
 31
0.0
  0
LINE
  5
178
100
AcDbEntity
100
AcDbLine
  8
0
 62
256
370
-1
 48
1.0
  6
BYLAYER
 10
150.4885382901725848
 20
247.2018150827821046
 30
0.0
 11
150.4885382901725848
 21
175.2018150827821046
 31
0.0
  0
ARC
  5
179
100
AcDbEntity
  8
0
 62
256
370
-1
 48
1.0
  6
BYLAYER
100
AcDbCircle
 10
124.8542410150393493
 20
245.7155395814395149
 30
0.0
 40
2.1000000000000001
100
AcDbArc
 50
0.0
 51
180.0
  0
ARC
  5
17A
100
AcDbEntity
  8
0
 62
256
370
-1
 48
1.0
  6
BYLAYER
100
AcDbCircle
 10
74.8233410150393183
 20
202.8713395814395426
 30
0.0
 40
2.1000000000000001
100
AcDbArc
 50
180.0
 51
0.0
  0
ARC
  5
17B
100
AcDbEntity
  8
0
 62
256
370
-1
 48
1.0
  6
BYLAYER
100
AcDbCircle
 10
106.3672031733742074
 20
19.6079992009069883
 30
0.0
 40
2.1000000000000001
100
AcDbArc
 50
90.0
 51
270.0
  0
ARC
  5
17C
100
AcDbEntity
  8
0
 62
256
370
-1
 48
1.0
  6
BYLAYER
100
AcDbCircle
 10
104.2491841151987728
 20
161.8206945471995368
 30
0.0
 40
2.1000000000000001
100
AcDbArc
 50
270.0
 51
90.0
  0
ARC
  5
17D
100
AcDbEntity
  8
0
 62
256
370
-1
 48
1.0
  6
BYLAYER
100
AcDbCircle
 10
65.3583716351988642
 20
259.1459868671993263
 30
0.0
 40
2.1000000000000001
100
AcDbArc
 50
90.0
 51
270.0
  0
LINE
  5
17E
100
AcDbEntity
100
AcDbLine
  8
0
 62
256
370
-1
 48
1.0
  6
BYLAYER
 10
108.4672031733742301
 20
21.7079992009070111
 30
0.0
 11
106.3672031733742074
 21
21.7079992009070111
 31
0.0
  0
LINE
  5
17F
100
AcDbEntity
100
AcDbLine
  8
0
 62
256
370
-1
 48
1.0
  6
BYLAYER
 10
28.1289330442223218
 20
86.533943432417189
 30
0.0
 11
28.1289330442223218
 21
41.5339434324171606
 31
0.0
  0
LINE
  5
180
100
AcDbEntity
100
AcDbLine
  8
0
 62
256
370
-1
 48
1.0
  6
BYLAYER
 10
150.4885382901725848
 20
141.2018150827821046
 30
0.0
 11
195.4885382901729258
 21
141.2018150827821046
 31
0.0
  0
LINE
  5
181
100
AcDbEntity
100
AcDbLine
  8
0
 62
256
370
-1
 48
1.0
  6
BYLAYER
 10
126.9542410150392584
 20
243.6155395814394922
 30
0.0
 11
126.9542410150392584
 21
245.7155395814395149
 31
0.0
  0
LINE
  5
182
100
AcDbEntity
100
AcDbLine
  8
0
 62
256
370
-1
 48
1.0
  6
BYLAYER
 10
102.1491841151987501
 20
159.7206945471995141
 30
0.0
 11
104.2491841151987728
 21
159.7206945471995425
 31
0.0
  0
LINE
  5
183
100
AcDbEntity
100
AcDbLine
  8
0
 62
256
370
-1
 48
1.0
  6
BYLAYER
 10
67.4583716351988869
 20
261.245986867199349
 30
0.0
 11
65.3583716351988642
 21
261.245986867199349
 31
0.0
  0
LINE
  5
184
100
AcDbEntity
100
AcDbLine
  8
0
 62
256
370
-1
 48
1.0
  6
BYLAYER
 10
72.7233410150394093
 20
204.9713395814395653
 30
0.0
 11
72.7233410150392956
 21
202.8713395814395426
 31
0.0
  0
LINE
  5
185
100
AcDbEntity
100
AcDbLine
  8
0
 62
256
370
-1
 48
1.0
  6
BYLAYER
 10
108.4672031733742301
 20
17.5079992009070224
 30
0.0
 11
106.3672031733742074
 21
17.5079992009070224
 31
0.0
  0
LINE
  5
186
100
AcDbEntity
100
AcDbLine
  8
0
 62
256
370
-1
 48
1.0
  6
BYLAYER
 10
122.7542410150392129
 20
243.6155395814394922
 30
0.0
 11
122.7542410150394403
 21
245.7155395814394581
 31
0.0
  0
LINE
  5
187
100
AcDbEntity
100
AcDbLine
  8
0
 62
256
370
-1
 48
1.0
  6
BYLAYER
 10
102.1491841151987501
 20
163.9206945471995596
 30
0.0
 11
104.249184115198716
 21
163.9206945471995596
 31
0.0
  0
LINE
  5
188
100
AcDbEntity
100
AcDbLine
  8
0
 62
256
370
-1
 48
1.0
  6
BYLAYER
 10
67.4583716351988869
 20
257.0459868671993036
 30
0.0
 11
65.3583716351988642
 21
257.0459868671993036
 31
0.0
  0
LINE
  5
189
100
AcDbEntity
100
AcDbLine
  8
0
 62
256
370
-1
 48
1.0
  6
BYLAYER
 10
76.9233410150391137
 20
204.9713395814395653
 30
0.0
 11
76.9233410150393411
 21
202.8713395814395426
 31
0.0
  0
ARC
  5
18A
100
AcDbEntity
  8
0
 62
256
370
-1
 48
1.0
  6
BYLAYER
100
AcDbCircle
 10
74.8233410150395457
 20
222.0713395814395881
 30
0.0
 40
2.1000000000000001
100
AcDbArc
 50
0.0
 51
180.0
  0
ARC
  5
18B
100
AcDbEntity
  8
0
 62
256
370
-1
 48
1.0
  6
BYLAYER
100
AcDbCircle
 10
124.8542410150392357
 20
226.5155395814394694
 30
0.0
 40
2.1000000000000001
100
AcDbArc
 50
180.0
 51
0.0
  0
ARC
  5
18C
100
AcDbEntity
  8
0
 62
256
370
-1
 48
1.0
  6
BYLAYER
100
AcDbCircle
 10
125.567203173374196
 20
19.6079992009069883
 30
0.0
 40
2.1000000000000001
100
AcDbArc
 50
270.0
 51
90.0
  0
ARC
  5
18D
100
AcDbEntity
  8
0
 62
256
370
-1
 48
1.0
  6
BYLAYER
100
AcDbCircle
 10
85.0491841151987273
 20
161.8206945471995937
 30
0.0
 40
2.1000000000000001
100
AcDbArc
 50
90.0
 51
270.0
  0
ARC
  5
18E
100
AcDbEntity
  8
0
 62
256
370
-1
 48
1.0
  6
BYLAYER
100
AcDbCircle
 10
84.5583716351989096
 20
259.1459868671993263
 30
0.0
 40
2.1000000000000001
100
AcDbArc
 50
270.0
 51
90.0
  0
LINE
  5
18F
100
AcDbEntity
100
AcDbLine
  8
0
 62
256
370
-1
 48
1.0
  6
BYLAYER
 10
82.4583716351988869
 20
261.245986867199349
 30
0.0
 11
84.5583716351989096
 21
261.245986867199349
 31
0.0
  0
LINE
  5
190
100
AcDbEntity
100
AcDbLine
  8
0
 62
256
370
-1
 48
1.0
  6
BYLAYER
 10
126.9542410150394858
 20
228.6155395814394922
 30
0.0
 11
126.9542410150392584
 21
226.5155395814394694
 31
0.0
  0
LINE
  5
191
100
AcDbEntity
100
AcDbLine
  8
0
 62
256
370
-1
 48
1.0
  6
BYLAYER
 10
72.7233410150392956
 20
219.9713395814395653
 30
0.0
 11
72.7233410150394093
 21
222.0713395814395881
 31
0.0
  0
LINE
  5
192
100
AcDbEntity
100
AcDbLine
  8
0
 62
256
370
-1
 48
1.0
  6
BYLAYER
 10
87.1491841151987501
 20
159.7206945471994857
 30
0.0
 11
85.0491841151987273
 21
159.7206945471995709
 31
0.0
  0
LINE
  5
193
100
AcDbEntity
100
AcDbLine
  8
0
 62
256
370
-1
 48
1.0
  6
BYLAYER
 10
123.4672031733742301
 20
21.7079992009070111
 30
0.0
 11
125.567203173374196
 21
21.7079992009070111
 31
0.0
  0
LINE
  5
194
100
AcDbEntity
100
AcDbLine
  8
0
 62
256
370
-1
 48
1.0
  6
BYLAYER
 10
122.7542410150392129
 20
228.6155395814394922
 30
0.0
 11
122.7542410150393266
 21
226.5155395814394694
 31
0.0
  0
LINE
  5
195
100
AcDbEntity
100
AcDbLine
  8
0
 62
256
370
-1
 48
1.0
  6
BYLAYER
 10
82.4583716351988869
 20
257.0459868671993036
 30
0.0
 11
84.5583716351989096
 21
257.0459868671993036
 31
0.0
  0
LINE
  5
196
100
AcDbEntity
100
AcDbLine
  8
0
 62
256
370
-1
 48
1.0
  6
BYLAYER
 10
76.9233410150394548
 20
219.9713395814395653
 30
0.0
 11
76.9233410150394548
 21
222.0713395814395881
 31
0.0
  0
LINE
  5
197
100
AcDbEntity
100
AcDbLine
  8
0
 62
256
370
-1
 48
1.0
  6
BYLAYER
 10
123.4672031733742301
 20
17.5079992009070224
 30
0.0
 11
125.567203173374196
 21
17.5079992009070224
 31
0.0
  0
LINE
  5
198
100
AcDbEntity
100
AcDbLine
  8
0
 62
256
370
-1
 48
1.0
  6
BYLAYER
 10
87.1491841151987501
 20
163.9206945471995596
 30
0.0
 11
85.0491841151987273
 21
163.9206945471995596
 31
0.0
  0
MTEXT
  5
199
100
AcDbEntity
100
AcDbMText
  8
0
 62
256
370
-1
 48
1.0
  6
BYLAYER
 10
73.3324010914052309
 20
292.5852660300139974
 30
0.0
 40
1.0
 41
0.0
 71
1
 72
1
  1
\H5;Camera with lens
  7
textstyle0
 50
0.0
 73
2
 44
1.0
  0
LINE
  5
19A
100
AcDbEntity
100
AcDbLine
  8
0
 62
256
370
-1
 48
1.0
  6
BYLAYER
 10
38.1289330442223218
 20
39.0339434324171606
 30
0.0
 11
158.1289330442223218
 21
39.0339434324171606
 31
0.0
  0
LINE
  5
19B
100
AcDbEntity
100
AcDbLine
  8
0
 62
256
370
-1
 48
1.0
  6
BYLAYER
 10
197.9885382901725848
 20
151.2018150827821046
 30
0.0
 11
197.9885382901755406
 21
271.2018150827821046
 31
0.0
  0
ARC
  5
19C
100
AcDbEntity
  8
0
 62
256
370
-1
 48
1.0
  6
BYLAYER
100
AcDbCircle
 10
86.8354221025269908
 20
11.8138634324171221
 30
0.0
 40
3.5
100
AcDbArc
 50
180.0
 51
230.311982485789116
  0
ARC
  5
19D
100
AcDbEntity
  8
0
 62
256
370
-1
 48
1.0
  6
BYLAYER
100
AcDbCircle
 10
86.8354221025269908
 20
11.8138634324171221
 30
0.0
 40
3.5
100
AcDbArc
 50
309.5203911105841712
 51
0.0
  0
LINE
  5
19E
100
AcDbEntity
100
AcDbLine
  8
0
 62
256
370
-1
 48
1.0
  6
BYLAYER
 10
83.3354221025269908
 20
13.3138634324171221
 30
0.0
 11
83.3354221025269908
 21
11.8138634324171221
 31
0.0
  0
LINE
  5
19F
100
AcDbEntity
100
AcDbLine
  8
0
 62
256
370
-1
 48
1.0
  6
BYLAYER
 10
90.3354221025269908
 20
13.3138634324171221
 30
0.0
 11
90.3354221025269908
 21
11.8138634324171221
 31
0.0
  0
LINE
  5
1A0
100
AcDbEntity
100
AcDbLine
  8
0
 62
256
370
-1
 48
1.0
  6
BYLAYER
 10
89.1354221025270022
 20
9.1138634324171335
 30
0.0
 11
84.5852501847126064
 21
9.1205195029426136
 31
0.0
  0
LINE
  5
1A1
100
AcDbEntity
100
AcDbLine
  8
0
 62
256
370
-1
 48
1.0
  6
BYLAYER
 10
158.1289330442223218
 20
45.5339434324171606
 30
0.0
 11
158.1289330442223218
 21
82.533943432417189
 31
0.0
  0
LINE
  5
1A2
100
AcDbEntity
100
AcDbLine
  8
0
 62
256
370
-1
 48
1.0
  6
BYLAYER
 10
191.4885382901724711
 20
271.2018150827821046
 30
0.0
 11
154.4885382901724711
 21
271.2018150827821046
 31
0.0
  0
LINE
  5
1A3
100
AcDbEntity
100
AcDbLine
  8
0
 62
256
370
-1
 48
1.0
  6
BYLAYER
 10
158.1289330442223218
 20
89.033943432417189
 30
0.0
 11
38.1289330442223218
 21
89.033943432417189
 31
0.0
  0
LINE
  5
1A4
100
AcDbEntity
100
AcDbLine
  8
0
 62
256
370
-1
 48
1.0
  6
BYLAYER
 10
147.9885382901726985
 20
271.2018150827821046
 30
0.0
 11
147.9885382901725848
 21
151.2018150827821046
 31
0.0
  0
LINE
  5
1A5
100
AcDbEntity
100
AcDbLine
  8
0
 62
256
370
-1
 48
1.0
  6
BYLAYER
 10
38.1289330442223218
 20
85.033943432417189
 30
0.0
 11
38.1289330442223218
 21
39.0339434324171606
 31
0.0
  0
LINE
  5
1A6
100
AcDbEntity
100
AcDbLine
  8
0
 62
256
370
-1
 48
1.0
  6
BYLAYER
 10
151.9885382901725848
 20
151.2018150827821046
 30
0.0
 11
197.9885382901725848
 21
151.2018150827821046
 31
0.0
  0
LINE
  5
1A7
100
AcDbEntity
100
AcDbLine
  8
0
 62
256
370
-1
 48
1.0
  6
BYLAYER
 10
62.1289330442223218
 20
39.0339434324171606
 30
0.0
 11
134.1289330442223218
 21
39.0339434324171606
 31
0.0
  0
LINE
  5
1A8
100
AcDbEntity
100
AcDbLine
  8
0
 62
256
370
-1
 48
1.0
  6
BYLAYER
 10
197.9885382901724711
 20
175.2018150827821046
 30
0.0
 11
197.9885382901733806
 21
247.2018150827821046
 31
0.0
  0
LINE
  5
1A9
100
AcDbEntity
100
AcDbLine
  8
0
 62
256
370
-1
 48
1.0
  6
BYLAYER
 10
148.1289330442223218
 20
45.5339434324171606
 30
0.0
 11
148.1289330442223218
 21
82.533943432417189
 31
0.0
  0
LINE
  5
1AA
100
AcDbEntity
100
AcDbLine
  8
0
 62
256
370
-1
 48
1.0
  6
BYLAYER
 10
191.4885382901720163
 20
261.2018150827821046
 30
0.0
 11
154.4885382901725848
 21
261.2018150827821046
 31
0.0
  0
LINE
  5
1AB
100
AcDbEntity
100
AcDbLine
  8
0
 62
256
370
-1
 48
1.0
  6
BYLAYER
 10
134.1289330442223218
 20
89.033943432417189
 30
0.0
 11
62.1289330442223218
 21
89.033943432417189
 31
0.0
  0
LINE
  5
1AC
100
AcDbEntity
100
AcDbLine
  8
0
 62
256
370
-1
 48
1.0
  6
BYLAYER
 10
147.9885382901726985
 20
247.2018150827821046
 30
0.0
 11
147.9885382901725848
 21
175.2018150827821046
 31
0.0
  0
LINE
  5
1AD
100
AcDbEntity
100
AcDbLine
  8
0
 62
256
370
-1
 48
1.0
  6
BYLAYER
 10
48.1289330442223218
 20
82.533943432417189
 30
0.0
 11
48.1289330442223218
 21
45.5339434324171606
 31
0.0
  0
LINE
  5
1AE
100
AcDbEntity
100
AcDbLine
  8
0
 62
256
370
-1
 48
1.0
  6
BYLAYER
 10
154.4885382901726985
 20
161.2018150827821046
 30
0.0
 11
191.4885382901725848
 21
161.2018150827821046
 31
0.0
  0
LINE
  5
1AF
100
AcDbEntity
100
AcDbLine
  8
0
 62
256
370
-1
 48
1.0
  6
BYLAYER
 10
38.1289330442223218
 20
39.0339434324171606
 30
0.0
 11
138.1289330442223218
 21
39.0339434324171606
 31
0.0
  0
LINE
  5
1B0
100
AcDbEntity
100
AcDbLine
  8
0
 62
256
370
-1
 48
1.0
  6
BYLAYER
 10
197.9885382901725848
 20
151.2018150827821046
 30
0.0
 11
197.98853829017213
 21
251.2018150827821046
 31
0.0
  0
LINE
  5
1B1
100
AcDbEntity
100
AcDbLine
  8
0
 62
256
370
-1
 48
1.0
  6
BYLAYER
 10
138.1289330442223218
 20
39.0339434324171606
 30
0.0
 11
138.1289330442223218
 21
85.033943432417189
 31
0.0
  0
LINE
  5
1B2
100
AcDbEntity
100
AcDbLine
  8
0
 62
256
370
-1
 48
1.0
  6
BYLAYER
 10
197.98853829017213
 20
251.2018150827821046
 30
0.0
 11
151.9885382901725848
 21
251.2018150827821046
 31
0.0
  0
LINE
  5
1B3
100
AcDbEntity
100
AcDbLine
  8
0
 62
256
370
-1
 48
1.0
  6
BYLAYER
 10
138.1289330442223218
 20
89.033943432417189
 30
0.0
 11
38.1289330442223218
 21
89.033943432417189
 31
0.0
  0
LINE
  5
1B4
100
AcDbEntity
100
AcDbLine
  8
0
 62
256
370
-1
 48
1.0
  6
BYLAYER
 10
147.9885382901724711
 20
251.2018150827821046
 30
0.0
 11
147.9885382901725848
 21
151.2018150827821046
 31
0.0
  0
LINE
  5
1B5
100
AcDbEntity
100
AcDbLine
  8
0
 62
256
370
-1
 48
1.0
  6
BYLAYER
 10
38.1289330442223218
 20
82.533943432417189
 30
0.0
 11
38.1289330442223218
 21
45.5339434324171606
 31
0.0
  0
LINE
  5
1B6
100
AcDbEntity
100
AcDbLine
  8
0
 62
256
370
-1
 48
1.0
  6
BYLAYER
 10
154.4885382901725848
 20
151.2018150827821046
 30
0.0
 11
191.4885382901726985
 21
151.2018150827821046
 31
0.0
  0
LINE
  5
1B7
100
AcDbEntity
100
AcDbLine
  8
0
 62
256
370
-1
 48
1.0
  6
BYLAYER
 10
38.1289330442223218
 20
39.0339434324171606
 30
0.0
 11
58.1289330442223218
 21
39.0339434324171606
 31
0.0
  0
LINE
  5
1B8
100
AcDbEntity
100
AcDbLine
  8
0
 62
256
370
-1
 48
1.0
  6
BYLAYER
 10
197.9885382901725848
 20
151.2018150827821046
 30
0.0
 11
197.9885382901733806
 21
171.2018150827821046
 31
0.0
  0
LINE
  5
1B9
100
AcDbEntity
100
AcDbLine
  8
0
 62
256
370
-1
 48
1.0
  6
BYLAYER
 10
58.1289330442223218
 20
39.0339434324171606
 30
0.0
 11
58.1289330442223218
 21
39.0339434324171606
 31
0.0
  0
LINE
  5
1BA
100
AcDbEntity
100
AcDbLine
  8
0
 62
256
370
-1
 48
1.0
  6
BYLAYER
 10
197.9885382901733806
 20
171.2018150827821046
 30
0.0
 11
197.9885382901733806
 21
171.2018150827821046
 31
0.0
  0
LINE
  5
1BB
100
AcDbEntity
100
AcDbLine
  8
0
 62
256
370
-1
 48
1.0
  6
BYLAYER
 10
58.1289330442223218
 20
39.0339434324171606
 30
0.0
 11
38.1289330442223218
 21
39.0339434324171606
 31
0.0
  0
LINE
  5
1BC
100
AcDbEntity
100
AcDbLine
  8
0
 62
256
370
-1
 48
1.0
  6
BYLAYER
 10
197.9885382901733806
 20
171.2018150827821046
 30
0.0
 11
197.9885382901725848
 21
151.2018150827821046
 31
0.0
  0
LINE
  5
1BD
100
AcDbEntity
100
AcDbLine
  8
0
 62
256
370
-1
 48
1.0
  6
BYLAYER
 10
38.1289330442223218
 20
39.0339434324171606
 30
0.0
 11
38.1289330442223218
 21
39.0339434324171606
 31
0.0
  0
LINE
  5
1BE
100
AcDbEntity
100
AcDbLine
  8
0
 62
256
370
-1
 48
1.0
  6
BYLAYER
 10
197.9885382901725848
 20
151.2018150827821046
 30
0.0
 11
197.9885382901725848
 21
151.2018150827821046
 31
0.0
  0
LINE
  5
1BF
100
AcDbEntity
100
AcDbLine
  8
0
 62
256
370
-1
 48
1.0
  6
BYLAYER
 10
138.1289330442223218
 20
89.033943432417189
 30
0.0
 11
58.1289330442223218
 21
89.033943432417189
 31
0.0
  0
LINE
  5
1C0
100
AcDbEntity
100
AcDbLine
  8
0
 62
256
370
-1
 48
1.0
  6
BYLAYER
 10
147.9885382901724711
 20
251.2018150827821046
 30
0.0
 11
147.9885382901725848
 21
171.2018150827821046
 31
0.0
  0
LINE
  5
1C1
100
AcDbEntity
100
AcDbLine
  8
0
 62
256
370
-1
 48
1.0
  6
BYLAYER
 10
58.1289330442223218
 20
80.033943432417189
 30
0.0
 11
58.1289330442223218
 21
48.033943432417189
 31
0.0
  0
LINE
  5
1C2
100
AcDbEntity
100
AcDbLine
  8
0
 62
256
370
-1
 48
1.0
  6
BYLAYER
 10
156.9885382901725848
 20
171.2018150827821046
 30
0.0
 11
188.9885382901726985
 21
171.2018150827821046
 31
0.0
  0
LINE
  5
1C3
100
AcDbEntity
100
AcDbLine
  8
0
 62
256
370
-1
 48
1.0
  6
BYLAYER
 10
58.1289330442223218
 20
39.0339434324171606
 30
0.0
 11
138.1289330442223218
 21
39.0339434324171606
 31
0.0
  0
LINE
  5
1C4
100
AcDbEntity
100
AcDbLine
  8
0
 62
256
370
-1
 48
1.0
  6
BYLAYER
 10
197.9885382901733806
 20
171.2018150827821046
 30
0.0
 11
197.98853829017213
 21
251.2018150827821046
 31
0.0
  0
LINE
  5
1C5
100
AcDbEntity
100
AcDbLine
  8
0
 62
256
370
-1
 48
1.0
  6
BYLAYER
 10
138.1289330442223218
 20
45.5339434324171606
 30
0.0
 11
138.1289330442223218
 21
82.533943432417189
 31
0.0
  0
LINE
  5
1C6
100
AcDbEntity
100
AcDbLine
  8
0
 62
256
370
-1
 48
1.0
  6
BYLAYER
 10
191.4885382901725848
 20
251.2018150827821046
 30
0.0
 11
154.4885382901725848
 21
251.2018150827821046
 31
0.0
  0
ARC
  5
1C7
100
AcDbEntity
  8
0
 62
256
370
-1
 48
1.0
  6
BYLAYER
100
AcDbCircle
 10
32.1289330442223218
 20
85.033943432417189
 30
0.0
 40
4.0
100
AcDbArc
 50
90.0
 51
180.0
  0
ARC
  5
1C8
100
AcDbEntity
  8
0
 62
256
370
-1
 48
1.0
  6
BYLAYER
100
AcDbCircle
 10
151.9885382901725848
 20
145.2018150827821046
 30
0.0
 40
4.0
100
AcDbArc
 50
180.0
 51
270.0
  0
ARC
  5
1C9
100
AcDbEntity
  8
0
 62
256
370
-1
 48
1.0
  6
BYLAYER
100
AcDbCircle
 10
32.1289330442223218
 20
43.0339434324171606
 30
0.0
 40
4.0
100
AcDbArc
 50
180.0
 51
270.0
  0
ARC
  5
1CA
100
AcDbEntity
  8
0
 62
256
370
-1
 48
1.0
  6
BYLAYER
100
AcDbCircle
 10
193.9885382901726985
 20
145.2018150827821046
 30
0.0
 40
4.0
100
AcDbArc
 50
270.0
 51
0.0
  0
ARC
  5
1CB
100
AcDbEntity
  8
0
 62
256
370
-1
 48
1.0
  6
BYLAYER
100
AcDbCircle
 10
164.1289330442223218
 20
43.033943432417189
 30
0.0
 40
4.0
100
AcDbArc
 50
270.0
 51
0.0
  0
ARC
  5
1CC
100
AcDbEntity
  8
0
 62
256
370
-1
 48
1.0
  6
BYLAYER
100
AcDbCircle
 10
193.9885382901736079
 20
277.2018150827821046
 30
0.0
 40
4.0
100
AcDbArc
 50
0.0
 51
90.0
  0
ARC
  5
1CD
100
AcDbEntity
  8
0
 62
256
370
-1
 48
1.0
  6
BYLAYER
100
AcDbCircle
 10
164.1289330442223218
 20
85.033943432417189
 30
0.0
 40
4.0
100
AcDbArc
 50
0.0
 51
90.0
  0
ARC
  5
1CE
100
AcDbEntity
  8
0
 62
256
370
-1
 48
1.0
  6
BYLAYER
100
AcDbCircle
 10
151.9885382901726985
 20
277.2018150827821046
 30
0.0
 40
4.0
100
AcDbArc
 50
90.0
 51
180.0
  0
ARC
  5
1CF
100
AcDbEntity
  8
0
 62
256
370
-1
 48
1.0
  6
BYLAYER
100
AcDbCircle
 10
164.1289330442222649
 20
82.533943432417189
 30
0.0
 40
4.0
100
AcDbArc
 50
0.0
 51
90.0
  0
ARC
  5
1D0
100
AcDbEntity
  8
0
 62
256
370
-1
 48
1.0
  6
BYLAYER
100
AcDbCircle
 10
154.4885382901724711
 20
277.2018150827820477
 30
0.0
 40
4.0
100
AcDbArc
 50
90.0
 51
180.0
  0
ARC
  5
1D1
100
AcDbEntity
  8
0
 62
256
370
-1
 48
1.0
  6
BYLAYER
100
AcDbCircle
 10
164.1289330442223218
 20
45.5339434324171606
 30
0.0
 40
4.0
100
AcDbArc
 50
270.0
 51
0.0
  0
ARC
  5
1D2
100
AcDbEntity
  8
0
 62
256
370
-1
 48
1.0
  6
BYLAYER
100
AcDbCircle
 10
191.4885382901723574
 20
277.2018150827821046
 30
0.0
 40
4.0
100
AcDbArc
 50
0.0
 51
90.0
  0
ARC
  5
1D3
100
AcDbEntity
  8
0
 62
256
370
-1
 48
1.0
  6
BYLAYER
100
AcDbCircle
 10
32.1289330442223218
 20
82.5339434324171322
 30
0.0
 40
4.0
100
AcDbArc
 50
90.0
 51
180.0
  0
ARC
  5
1D4
100
AcDbEntity
  8
0
 62
256
370
-1
 48
1.0
  6
BYLAYER
100
AcDbCircle
 10
154.4885382901726985
 20
145.2018150827821046
 30
0.0
 40
4.0
100
AcDbArc
 50
180.0
 51
270.0
  0
ARC
  5
1D5
100
AcDbEntity
  8
0
 62
256
370
-1
 48
1.0
  6
BYLAYER
100
AcDbCircle
 10
32.1289330442223218
 20
45.5339434324171606
 30
0.0
 40
4.0
100
AcDbArc
 50
180.0
 51
270.0
  0
ARC
  5
1D6
100
AcDbEntity
  8
0
 62
256
370
-1
 48
1.0
  6
BYLAYER
100
AcDbCircle
 10
191.4885382901725848
 20
145.2018150827821046
 30
0.0
 40
4.0
100
AcDbArc
 50
270.0
 51
0.0
  0
ARC
  5
1D7
100
AcDbEntity
  8
0
 62
256
370
-1
 48
1.0
  6
BYLAYER
100
AcDbCircle
 10
42.1289330442223218
 20
43.0339434324171606
 30
0.0
 40
4.0
100
AcDbArc
 50
180.0
 51
270.0
  0
ARC
  5
1D8
100
AcDbEntity
  8
0
 62
256
370
-1
 48
1.0
  6
BYLAYER
100
AcDbCircle
 10
193.9885382901725848
 20
155.2018150827821046
 30
0.0
 40
4.0
100
AcDbArc
 50
270.0
 51
0.0
  0
ARC
  5
1D9
100
AcDbEntity
  8
0
 62
256
370
-1
 48
1.0
  6
BYLAYER
100
AcDbCircle
 10
42.1289330442223218
 20
45.5339434324171606
 30
0.0
 40
4.0
100
AcDbArc
 50
180.0
 51
270.0
  0
ARC
  5
1DA
100
AcDbEntity
  8
0
 62
256
370
-1
 48
1.0
  6
BYLAYER
100
AcDbCircle
 10
191.4885382901723574
 20
155.2018150827821046
 30
0.0
 40
4.0
100
AcDbArc
 50
270.0
 51
0.0
  0
ARC
  5
1DB
100
AcDbEntity
  8
0
 62
256
370
-1
 48
1.0
  6
BYLAYER
100
AcDbCircle
 10
52.1289330442223218
 20
43.0339434324171606
 30
0.0
 40
4.0
100
AcDbArc
 50
180.0
 51
270.0
  0
ARC
  5
1DC
100
AcDbEntity
  8
0
 62
256
370
-1
 48
1.0
  6
BYLAYER
100
AcDbCircle
 10
193.9885382901728121
 20
165.2018150827821046
 30
0.0
 40
4.0
100
AcDbArc
 50
270.0
 51
0.0
  0
ARC
  5
1DD
100
AcDbEntity
  8
0
 62
256
370
-1
 48
1.0
  6
BYLAYER
100
AcDbCircle
 10
52.1289330442223218
 20
45.5339434324171606
 30
0.0
 40
4.0
100
AcDbArc
 50
180.0
 51
270.0
  0
ARC
  5
1DE
100
AcDbEntity
  8
0
 62
256
370
-1
 48
1.0
  6
BYLAYER
100
AcDbCircle
 10
191.4885382901725848
 20
165.2018150827821046
 30
0.0
 40
4.0
100
AcDbArc
 50
270.0
 51
0.0
  0
ARC
  5
1DF
100
AcDbEntity
  8
0
 62
256
370
-1
 48
1.0
  6
BYLAYER
100
AcDbCircle
 10
42.1289330442223218
 20
82.533943432417189
 30
0.0
 40
4.0
100
AcDbArc
 50
90.0
 51
180.0
  0
ARC
  5
1E0
100
AcDbEntity
  8
0
 62
256
370
-1
 48
1.0
  6
BYLAYER
100
AcDbCircle
 10
154.4885382901725848
 20
155.2018150827821046
 30
0.0
 40
4.0
100
AcDbArc
 50
180.0
 51
270.0
  0
ARC
  5
1E1
100
AcDbEntity
  8
0
 62
256
370
-1
 48
1.0
  6
BYLAYER
100
AcDbCircle
 10
42.1289330442223218
 20
85.033943432417189
 30
0.0
 40
4.0
100
AcDbArc
 50
90.0
 51
180.0
  0
ARC
  5
1E2
100
AcDbEntity
  8
0
 62
256
370
-1
 48
1.0
  6
BYLAYER
100
AcDbCircle
 10
151.9885382901725848
 20
155.2018150827821046
 30
0.0
 40
4.0
100
AcDbArc
 50
180.0
 51
270.0
  0
ARC
  5
1E3
100
AcDbEntity
  8
0
 62
256
370
-1
 48
1.0
  6
BYLAYER
100
AcDbCircle
 10
52.1289330442223218
 20
85.033943432417189
 30
0.0
 40
4.0
100
AcDbArc
 50
90.0
 51
180.0
  0
ARC
  5
1E4
100
AcDbEntity
  8
0
 62
256
370
-1
 48
1.0
  6
BYLAYER
100
AcDbCircle
 10
151.9885382901725848
 20
165.2018150827821046
 30
0.0
 40
4.0
100
AcDbArc
 50
180.0
 51
270.0
  0
ARC
  5
1E5
100
AcDbEntity
  8
0
 62
256
370
-1
 48
1.0
  6
BYLAYER
100
AcDbCircle
 10
154.4885382901725848
 20
165.2018150827821046
 30
0.0
 40
4.0
100
AcDbArc
 50
179.9999999999996874
 51
270.0
  0
ARC
  5
1E6
100
AcDbEntity
  8
0
 62
256
370
-1
 48
1.0
  6
BYLAYER
100
AcDbCircle
 10
52.1289330442223218
 20
82.533943432417189
 30
0.0
 40
4.0
100
AcDbArc
 50
89.9999999999996874
 51
180.0
  0
ARC
  5
1E7
100
AcDbEntity
  8
0
 62
256
370
-1
 48
1.0
  6
BYLAYER
100
AcDbCircle
 10
62.1289330442223218
 20
85.0339434324171322
 30
0.0
 40
4.0
100
AcDbArc
 50
90.0000000000000853
 51
180.0
  0
ARC
  5
1E8
100
AcDbEntity
  8
0
 62
256
370
-1
 48
1.0
  6
BYLAYER
100
AcDbCircle
 10
151.9885382901725848
 20
175.2018150827821046
 30
0.0
 40
4.0
100
AcDbArc
 50
180.0000000000001137
 51
270.0
  0
ARC
  5
1E9
100
AcDbEntity
  8
0
 62
256
370
-1
 48
1.0
  6
BYLAYER
100
AcDbCircle
 10
62.1289330442223218
 20
82.533943432417189
 30
0.0
 40
4.0
100
AcDbArc
 50
90.0
 51
180.0
  0
ARC
  5
1EA
100
AcDbEntity
  8
0
 62
256
370
-1
 48
1.0
  6
BYLAYER
100
AcDbCircle
 10
154.4885382901725848
 20
175.2018150827821046
 30
0.0
 40
4.0
100
AcDbArc
 50
180.0
 51
270.0
  0
ARC
  5
1EB
100
AcDbEntity
  8
0
 62
256
370
-1
 48
1.0
  6
BYLAYER
100
AcDbCircle
 10
69.5758907642936038
 20
74.8668923114724549
 30
0.0
 40
4.0
100
AcDbArc
 50
90.0
 51
180.0
  0
ARC
  5
1EC
100
AcDbEntity
  8
0
 62
256
370
-1
 48
1.0
  6
BYLAYER
100
AcDbCircle
 10
156.9885382901725848
 20
175.2018150827821046
 30
0.0
 40
4.0
100
AcDbArc
 50
180.0
 51
270.0
  0
ARC
  5
1ED
100
AcDbEntity
  8
0
 62
256
370
-1
 48
1.0
  6
BYLAYER
100
AcDbCircle
 10
162.1452498093706822
 20
175.1964895331239518
 30
0.0
 40
4.0
100
AcDbArc
 50
180.0
 51
270.0
  0
ARC
  5
1EE
100
AcDbEntity
  8
0
 62
256
370
-1
 48
1.0
  6
BYLAYER
100
AcDbCircle
 10
162.1555894111173188
 20
182.6487728028533866
 30
0.0
 40
4.0
100
AcDbArc
 50
180.0
 51
270.0
  0
ARC
  5
1EF
100
AcDbEntity
  8
0
 62
256
370
-1
 48
1.0
  6
BYLAYER
100
AcDbCircle
 10
62.123607494564169
 20
74.8772319132191342
 30
0.0
 40
4.0
100
AcDbArc
 50
90.0
 51
180.0
  0
ARC
  5
1F0
100
AcDbEntity
  8
0
 62
256
370
-1
 48
1.0
  6
BYLAYER
100
AcDbCircle
 10
62.1289330442223218
 20
80.033943432417189
 30
0.0
 40
4.0
100
AcDbArc
 50
90.0
 51
180.0
  0
ARC
  5
1F1
100
AcDbEntity
  8
0
 62
256
370
-1
 48
1.0
  6
BYLAYER
100
AcDbCircle
 10
62.1289330442223218
 20
43.0339434324171606
 30
0.0
 40
4.0
100
AcDbArc
 50
180.0
 51
270.0
  0
ARC
  5
1F2
100
AcDbEntity
  8
0
 62
256
370
-1
 48
1.0
  6
BYLAYER
100
AcDbCircle
 10
193.9885382901722437
 20
175.2018150827821046
 30
0.0
 40
4.0
100
AcDbArc
 50
270.0
 51
0.0
  0
ARC
  5
1F3
100
AcDbEntity
  8
0
 62
256
370
-1
 48
1.0
  6
BYLAYER
100
AcDbCircle
 10
183.7276637158178687
 20
175.2095112635041687
 30
0.0
 40
4.0
100
AcDbArc
 50
270.0
 51
0.0
  0
ARC
  5
1F4
100
AcDbEntity
  8
0
 62
256
370
-1
 48
1.0
  6
BYLAYER
100
AcDbCircle
 10
69.5788064845085046
 20
53.2948180067719477
 30
0.0
 40
4.0
100
AcDbArc
 50
180.0
 51
270.0
  0
ARC
  5
1F5
100
AcDbEntity
  8
0
 62
256
370
-1
 48
1.0
  6
BYLAYER
100
AcDbCircle
 10
62.1366292249443859
 20
53.2948180067719477
 30
0.0
 40
4.0
100
AcDbArc
 50
180.0
 51
270.0
  0
ARC
  5
1F6
100
AcDbEntity
  8
0
 62
256
370
-1
 48
1.0
  6
BYLAYER
100
AcDbCircle
 10
62.1289330442223218
 20
45.5339434324171606
 30
0.0
 40
4.0
100
AcDbArc
 50
180.0
 51
270.0
  0
ARC
  5
1F7
100
AcDbEntity
  8
0
 62
256
370
-1
 48
1.0
  6
BYLAYER
100
AcDbCircle
 10
183.7276637158176413
 20
182.6516885230682874
 30
0.0
 40
4.0
100
AcDbArc
 50
270.0
 51
0.0
  0
ARC
  5
1F8
100
AcDbEntity
  8
0
 62
256
370
-1
 48
1.0
  6
BYLAYER
100
AcDbCircle
 10
191.4885382901725848
 20
175.2018150827821046
 30
0.0
 40
4.0
100
AcDbArc
 50
270.0
 51
0.0
  0
ARC
  5
1F9
100
AcDbEntity
  8
0
 62
256
370
-1
 48
1.0
  6
BYLAYER
100
AcDbCircle
 10
62.1289330442223218
 20
48.033943432417189
 30
0.0
 40
4.0
100
AcDbArc
 50
180.0
 51
270.0
  0
ARC
  5
1FA
100
AcDbEntity
  8
0
 62
256
370
-1
 48
1.0
  6
BYLAYER
100
AcDbCircle
 10
188.9885382901725848
 20
175.2018150827821046
 30
0.0
 40
4.0
100
AcDbArc
 50
270.0
 51
0.0
  0
ARC
  5
1FB
100
AcDbEntity
  8
0
 62
256
370
-1
 48
1.0
  6
BYLAYER
100
AcDbCircle
 10
154.1289330442223218
 20
43.0339434324171606
 30
0.0
 40
4.0
100
AcDbArc
 50
270.0
 51
0.0
  0
ARC
  5
1FC
100
AcDbEntity
  8
0
 62
256
370
-1
 48
1.0
  6
BYLAYER
100
AcDbCircle
 10
193.9885382901724711
 20
267.2018150827821046
 30
0.0
 40
4.0
100
AcDbArc
 50
0.0
 51
90.0
  0
ARC
  5
1FD
100
AcDbEntity
  8
0
 62
256
370
-1
 48
1.0
  6
BYLAYER
100
AcDbCircle
 10
154.1289330442222649
 20
45.5339434324171606
 30
0.0
 40
4.0
100
AcDbArc
 50
270.0
 51
0.0
  0
ARC
  5
1FE
100
AcDbEntity
  8
0
 62
256
370
-1
 48
1.0
  6
BYLAYER
100
AcDbCircle
 10
191.4885382901730395
 20
267.2018150827820477
 30
0.0
 40
4.0
100
AcDbArc
 50
0.0
 51
90.0
  0
ARC
  5
1FF
100
AcDbEntity
  8
0
 62
256
370
-1
 48
1.0
  6
BYLAYER
100
AcDbCircle
 10
144.1289330442223218
 20
43.0339434324171606
 30
0.0
 40
4.0
100
AcDbArc
 50
270.0
 51
0.0
  0
ARC
  5
200
100
AcDbEntity
  8
0
 62
256
370
-1
 48
1.0
  6
BYLAYER
100
AcDbCircle
 10
193.98853829017213
 20
257.2018150827821046
 30
0.0
 40
4.0
100
AcDbArc
 50
0.0
 51
90.0
  0
ARC
  5
201
100
AcDbEntity
  8
0
 62
256
370
-1
 48
1.0
  6
BYLAYER
100
AcDbCircle
 10
144.1289330442223218
 20
45.5339434324171606
 30
0.0
 40
4.0
100
AcDbArc
 50
270.0
 51
0.0
  0
ARC
  5
202
100
AcDbEntity
  8
0
 62
256
370
-1
 48
1.0
  6
BYLAYER
100
AcDbCircle
 10
191.4885382901725848
 20
257.2018150827821046
 30
0.0
 40
4.0
100
AcDbArc
 50
0.0
 51
90.0
  0
ARC
  5
203
100
AcDbEntity
  8
0
 62
256
370
-1
 48
1.0
  6
BYLAYER
100
AcDbCircle
 10
134.1289330442223218
 20
43.033943432417189
 30
0.0
 40
4.0
100
AcDbArc
 50
270.0
 51
0.0
  0
ARC
  5
204
100
AcDbEntity
  8
0
 62
256
370
-1
 48
1.0
  6
BYLAYER
100
AcDbCircle
 10
193.9885382901733806
 20
247.2018150827821046
 30
0.0
 40
4.0
100
AcDbArc
 50
0.0
 51
90.0
  0
ARC
  5
205
100
AcDbEntity
  8
0
 62
256
370
-1
 48
1.0
  6
BYLAYER
100
AcDbCircle
 10
134.1289330442223218
 20
45.5339434324171606
 30
0.0
 40
4.0
100
AcDbArc
 50
270.0
 51
0.0
  0
ARC
  5
206
100
AcDbEntity
  8
0
 62
256
370
-1
 48
1.0
  6
BYLAYER
100
AcDbCircle
 10
191.4885382901725848
 20
247.2018150827821046
 30
0.0
 40
4.0
100
AcDbArc
 50
0.0
 51
90.0
  0
ARC
  5
207
100
AcDbEntity
  8
0
 62
256
370
-1
 48
1.0
  6
BYLAYER
100
AcDbCircle
 10
134.116857578887732
 20
53.3041357845837922
 30
0.0
 40
4.0
100
AcDbArc
 50
270.0
 51
0.0
  0
ARC
  5
208
100
AcDbEntity
  8
0
 62
256
370
-1
 48
1.0
  6
BYLAYER
100
AcDbCircle
 10
134.1289330442223218
 20
48.0339434324171606
 30
0.0
 40
4.0
100
AcDbArc
 50
270.0
 51
0.0
  0
ARC
  5
209
100
AcDbEntity
  8
0
 62
256
370
-1
 48
1.0
  6
BYLAYER
100
AcDbCircle
 10
126.5777769695897632
 20
53.3041357845837922
 30
0.0
 40
4.0
100
AcDbArc
 50
270.0
 51
0.0
  0
ARC
  5
20A
100
AcDbEntity
  8
0
 62
256
370
-1
 48
1.0
  6
BYLAYER
100
AcDbCircle
 10
188.9885382901723574
 20
247.2018150827821046
 30
0.0
 40
4.0
100
AcDbArc
 50
0.0
 51
90.0
  0
ARC
  5
20B
100
AcDbEntity
  8
0
 62
256
370
-1
 48
1.0
  6
BYLAYER
100
AcDbCircle
 10
183.71834593800628
 20
239.650659008149546
 30
0.0
 40
4.0
100
AcDbArc
 50
0.0
 51
90.0
  0
ARC
  5
20C
100
AcDbEntity
  8
0
 62
256
370
-1
 48
1.0
  6
BYLAYER
100
AcDbCircle
 10
183.7183459380060526
 20
247.1897396174475148
 30
0.0
 40
4.0
100
AcDbArc
 50
0.0
 51
90.0
  0
ARC
  5
20D
100
AcDbEntity
  8
0
 62
256
370
-1
 48
1.0
  6
BYLAYER
100
AcDbCircle
 10
154.1289330442223218
 20
85.033943432417189
 30
0.0
 40
4.0
100
AcDbArc
 50
0.0
 51
90.0
  0
ARC
  5
20E
100
AcDbEntity
  8
0
 62
256
370
-1
 48
1.0
  6
BYLAYER
100
AcDbCircle
 10
151.9885382901725848
 20
267.2018150827821046
 30
0.0
 40
4.0
100
AcDbArc
 50
90.0
 51
180.0
  0
ARC
  5
20F
100
AcDbEntity
  8
0
 62
256
370
-1
 48
1.0
  6
BYLAYER
100
AcDbCircle
 10
154.1289330442223218
 20
82.533943432417189
 30
0.0
 40
4.0
100
AcDbArc
 50
0.0
 51
90.0
  0
ARC
  5
210
100
AcDbEntity
  8
0
 62
256
370
-1
 48
1.0
  6
BYLAYER
100
AcDbCircle
 10
154.4885382901725848
 20
267.2018150827821046
 30
0.0
 40
4.0
100
AcDbArc
 50
90.0
 51
180.0
  0
ARC
  5
211
100
AcDbEntity
  8
0
 62
256
370
-1
 48
1.0
  6
BYLAYER
100
AcDbCircle
 10
144.1289330442223218
 20
85.033943432417189
 30
0.0
 40
4.0
100
AcDbArc
 50
0.0
 51
90.0
  0
ARC
  5
212
100
AcDbEntity
  8
0
 62
256
370
-1
 48
1.0
  6
BYLAYER
100
AcDbCircle
 10
151.9885382901724711
 20
257.2018150827821046
 30
0.0
 40
4.0
100
AcDbArc
 50
90.0
 51
180.0
  0
ARC
  5
213
100
AcDbEntity
  8
0
 62
256
370
-1
 48
1.0
  6
BYLAYER
100
AcDbCircle
 10
154.4885382901725848
 20
257.2018150827821046
 30
0.0
 40
4.0
100
AcDbArc
 50
90.0
 51
180.0
  0
ARC
  5
214
100
AcDbEntity
  8
0
 62
256
370
-1
 48
1.0
  6
BYLAYER
100
AcDbCircle
 10
144.1289330442223218
 20
82.533943432417189
 30
0.0
 40
4.0
100
AcDbArc
 50
0.0
 51
90.0
  0
ARC
  5
215
100
AcDbEntity
  8
0
 62
256
370
-1
 48
1.0
  6
BYLAYER
100
AcDbCircle
 10
126.5758907642936606
 20
74.8668923114724549
 30
0.0
 40
4.0
100
AcDbArc
 50
0.0
 51
90.0
  0
ARC
  5
216
100
AcDbEntity
  8
0
 62
256
370
-1
 48
1.0
  6
BYLAYER
100
AcDbCircle
 10
162.1555894111174325
 20
239.6487728028534434
 30
0.0
 40
4.0
100
AcDbArc
 50
90.0
 51
180.0
  0
ARC
  5
217
100
AcDbEntity
  8
0
 62
256
370
-1
 48
1.0
  6
BYLAYER
100
AcDbCircle
 10
156.9885382901728121
 20
247.2018150827821046
 30
0.0
 40
4.0
100
AcDbArc
 50
90.0
 51
180.0
  0
ARC
  5
218
100
AcDbEntity
  8
0
 62
256
370
-1
 48
1.0
  6
BYLAYER
100
AcDbCircle
 10
134.1289330442223218
 20
80.033943432417189
 30
0.0
 40
4.0
100
AcDbArc
 50
0.0
 51
90.0
  0
ARC
  5
219
100
AcDbEntity
  8
0
 62
256
370
-1
 48
1.0
  6
BYLAYER
100
AcDbCircle
 10
162.1454446959876918
 20
247.2014001531271106
 30
0.0
 40
4.0
100
AcDbArc
 50
90.0
 51
180.0
  0
ARC
  5
21A
100
AcDbEntity
  8
0
 62
256
370
-1
 48
1.0
  6
BYLAYER
100
AcDbCircle
 10
134.1285181145673278
 20
74.8770370266021246
 30
0.0
 40
4.0
100
AcDbArc
 50
0.0
 51
90.0
  0
ARC
  5
21B
100
AcDbEntity
  8
0
 62
256
370
-1
 48
1.0
  6
BYLAYER
100
AcDbCircle
 10
154.4885382901725848
 20
247.2018150827821046
 30
0.0
 40
4.0
100
AcDbArc
 50
90.0
 51
180.0
  0
ARC
  5
21C
100
AcDbEntity
  8
0
 62
256
370
-1
 48
1.0
  6
BYLAYER
100
AcDbCircle
 10
134.1289330442223218
 20
82.533943432417189
 30
0.0
 40
4.0
100
AcDbArc
 50
0.0
 51
90.0
  0
ARC
  5
21D
100
AcDbEntity
  8
0
 62
256
370
-1
 48
1.0
  6
BYLAYER
100
AcDbCircle
 10
151.9885382901725848
 20
247.2018150827821046
 30
0.0
 40
4.0
100
AcDbArc
 50
90.0
 51
180.0
  0
ARC
  5
21E
100
AcDbEntity
  8
0
 62
256
370
-1
 48
1.0
  6
BYLAYER
100
AcDbCircle
 10
134.1289330442223218
 20
85.033943432417189
 30
0.0
 40
4.0
100
AcDbArc
 50
0.0
 51
90.0
  0
LINE
  5
21F
100
AcDbEntity
100
AcDbLine
  8
0
 62
256
370
-1
 48
1.0
  6
BYLAYER
 10
195.4885382901730395
 20
145.2018150827821046
 30
0.0
 11
195.4885382901729258
 21
175.2018150827821046
 31
0.0
  0
LINE
  5
220
100
AcDbEntity
100
AcDbLine
  8
0
 62
256
370
-1
 48
1.0
  6
BYLAYER
 10
32.1289330442223218
 20
41.5339434324171606
 30
0.0
 11
62.1289330442223218
 21
41.5339434324171606
 31
0.0
  0
LINE
  5
221
100
AcDbEntity
100
AcDbLine
  8
0
 62
256
370
-1
 48
1.0
  6
BYLAYER
 10
197.9885382901725848
 20
145.2018150827821046
 30
0.0
 11
197.9885382901725848
 21
151.2018150827821046
 31
0.0
  0
LINE
  5
222
100
AcDbEntity
100
AcDbLine
  8
0
 62
256
370
-1
 48
1.0
  6
BYLAYER
 10
32.1289330442223218
 20
39.0339434324171606
 30
0.0
 11
38.1289330442223218
 21
39.0339434324171606
 31
0.0
  0
LINE
  5
223
100
AcDbEntity
100
AcDbLine
  8
0
 62
256
370
-1
 48
1.0
  6
BYLAYER
 10
150.4885382901725848
 20
145.2018150827821046
 30
0.0
 11
150.4885382901725848
 21
175.2018150827821046
 31
0.0
  0
LINE
  5
224
100
AcDbEntity
100
AcDbLine
  8
0
 62
256
370
-1
 48
1.0
  6
BYLAYER
 10
32.1289330442223218
 20
86.5339434324171322
 30
0.0
 11
62.1289330442223218
 21
86.533943432417189
 31
0.0
  0
LINE
  5
225
100
AcDbEntity
100
AcDbLine
  8
0
 62
256
370
-1
 48
1.0
  6
BYLAYER
 10
154.4885382901725848
 20
171.2018150827821046
 30
0.0
 11
151.9885382901725848
 21
171.2018150827821046
 31
0.0
  0
LINE
  5
226
100
AcDbEntity
100
AcDbLine
  8
0
 62
256
370
-1
 48
1.0
  6
BYLAYER
 10
58.1289330442223218
 20
82.533943432417189
 30
0.0
 11
58.1289330442223218
 21
85.0339434324171322
 31
0.0
  0
LINE
  5
227
100
AcDbEntity
100
AcDbLine
  8
0
 62
256
370
-1
 48
1.0
  6
BYLAYER
 10
191.4885382901725848
 20
161.2018150827821046
 30
0.0
 11
151.9885382901725848
 21
161.2018150827821046
 31
0.0
  0
LINE
  5
228
100
AcDbEntity
100
AcDbLine
  8
0
 62
256
370
-1
 48
1.0
  6
BYLAYER
 10
48.1289330442223218
 20
45.5339434324171606
 30
0.0
 11
48.1289330442223218
 21
85.033943432417189
 31
0.0
  0
LINE
  5
229
100
AcDbEntity
100
AcDbLine
  8
0
 62
256
370
-1
 48
1.0
  6
BYLAYER
 10
151.9885382901725848
 20
161.2018150827821046
 30
0.0
 11
193.9885382901728121
 21
161.2018150827821046
 31
0.0
  0
LINE
  5
22A
100
AcDbEntity
100
AcDbLine
  8
0
 62
256
370
-1
 48
1.0
  6
BYLAYER
 10
48.1289330442223218
 20
85.033943432417189
 30
0.0
 11
48.1289330442223218
 21
43.0339434324171606
 31
0.0
  0
LINE
  5
22B
100
AcDbEntity
100
AcDbLine
  8
0
 62
256
370
-1
 48
1.0
  6
BYLAYER
 10
147.9885382901725848
 20
145.2018150827821046
 30
0.0
 11
147.9885382901725848
 21
151.2018150827821046
 31
0.0
  0
LINE
  5
22C
100
AcDbEntity
100
AcDbLine
  8
0
 62
256
370
-1
 48
1.0
  6
BYLAYER
 10
32.1289330442223218
 20
89.033943432417189
 30
0.0
 11
38.1289330442223218
 21
89.033943432417189
 31
0.0
  0
LINE
  5
22D
100
AcDbEntity
100
AcDbLine
  8
0
 62
256
370
-1
 48
1.0
  6
BYLAYER
 10
151.9885382901725848
 20
151.2018150827821046
 30
0.0
 11
147.9885382901725848
 21
151.2018150827821046
 31
0.0
  0
LINE
  5
22E
100
AcDbEntity
100
AcDbLine
  8
0
 62
256
370
-1
 48
1.0
  6
BYLAYER
 10
38.1289330442223218
 20
85.033943432417189
 30
0.0
 11
38.1289330442223218
 21
89.033943432417189
 31
0.0
  0
LINE
  5
22F
100
AcDbEntity
100
AcDbLine
  8
0
 62
256
370
-1
 48
1.0
  6
BYLAYER
 10
193.9885382901728121
 20
161.2018150827821046
 30
0.0
 11
197.9885382901731532
 21
161.2018150827821046
 31
0.0
  0
LINE
  5
230
100
AcDbEntity
100
AcDbLine
  8
0
 62
256
370
-1
 48
1.0
  6
BYLAYER
 10
48.1289330442223218
 20
43.0339434324171606
 30
0.0
 11
48.1289330442223218
 21
39.0339434324171606
 31
0.0
  0
LINE
  5
231
100
AcDbEntity
100
AcDbLine
  8
0
 62
256
370
-1
 48
1.0
  6
BYLAYER
 10
151.9885382901725848
 20
161.2018150827821046
 30
0.0
 11
147.9885382901725848
 21
161.2018150827821046
 31
0.0
  0
LINE
  5
232
100
AcDbEntity
100
AcDbLine
  8
0
 62
256
370
-1
 48
1.0
  6
BYLAYER
 10
48.1289330442223218
 20
85.033943432417189
 30
0.0
 11
48.1289330442223218
 21
89.033943432417189
 31
0.0
  0
LINE
  5
233
100
AcDbEntity
100
AcDbLine
  8
0
 62
256
370
-1
 48
1.0
  6
BYLAYER
 10
151.9885382901725848
 20
171.2018150827821046
 30
0.0
 11
147.9885382901725848
 21
171.2018150827821046
 31
0.0
  0
LINE
  5
234
100
AcDbEntity
100
AcDbLine
  8
0
 62
256
370
-1
 48
1.0
  6
BYLAYER
 10
58.1289330442223218
 20
85.0339434324171322
 30
0.0
 11
58.1289330442223218
 21
89.033943432417189
 31
0.0
  0
LINE
  5
235
100
AcDbEntity
100
AcDbLine
  8
0
 62
256
370
-1
 48
1.0
  6
BYLAYER
 10
192.9885382901726985
 20
171.2018150827821046
 30
0.0
 11
197.9885382901733806
 21
171.2018150827821046
 31
0.0
  0
LINE
  5
236
100
AcDbEntity
100
AcDbLine
  8
0
 62
256
370
-1
 48
1.0
  6
BYLAYER
 10
58.1289330442223218
 20
44.0339434324171606
 30
0.0
 11
58.1289330442223218
 21
39.0339434324171606
 31
0.0
  0
LINE
  5
237
100
AcDbEntity
100
AcDbLine
  8
0
 62
256
370
-1
 48
1.0
  6
BYLAYER
 10
147.9885382901725848
 20
257.2018150827821046
 30
0.0
 11
197.9885382901719026
 21
257.2018150827821046
 31
0.0
  0
LINE
  5
238
100
AcDbEntity
100
AcDbLine
  8
0
 62
256
370
-1
 48
1.0
  6
BYLAYER
 10
144.1289330442223218
 20
89.033943432417189
 30
0.0
 11
144.1289330442223218
 21
39.0339434324171606
 31
0.0
  0
LINE
  5
239
100
AcDbEntity
100
AcDbLine
  8
0
 62
256
370
-1
 48
1.0
  6
BYLAYER
 10
197.9885382901719026
 20
257.2018150827821046
 30
0.0
 11
197.9885382901748585
 21
277.2018150827821046
 31
0.0
  0
LINE
  5
23A
100
AcDbEntity
100
AcDbLine
  8
0
 62
256
370
-1
 48
1.0
  6
BYLAYER
 10
144.1289330442223218
 20
39.0339434324171606
 30
0.0
 11
164.1289330442223218
 21
39.033943432417189
 31
0.0
  0
LINE
  5
23B
100
AcDbEntity
100
AcDbLine
  8
0
 62
256
370
-1
 48
1.0
  6
BYLAYER
 10
197.9885382901748585
 20
277.2018150827821046
 30
0.0
 11
147.9885382901726985
 21
277.2018150827821046
 31
0.0
  0
LINE
  5
23C
100
AcDbEntity
100
AcDbLine
  8
0
 62
256
370
-1
 48
1.0
  6
BYLAYER
 10
164.1289330442223218
 20
39.033943432417189
 30
0.0
 11
164.1289330442223218
 21
89.033943432417189
 31
0.0
  0
LINE
  5
23D
100
AcDbEntity
100
AcDbLine
  8
0
 62
256
370
-1
 48
1.0
  6
BYLAYER
 10
147.9885382901726985
 20
277.2018150827821046
 30
0.0
 11
147.9885382901726985
 21
267.2018150827821046
 31
0.0
  0
LINE
  5
23E
100
AcDbEntity
100
AcDbLine
  8
0
 62
256
370
-1
 48
1.0
  6
BYLAYER
 10
164.1289330442223218
 20
89.033943432417189
 30
0.0
 11
154.1289330442223218
 21
89.033943432417189
 31
0.0
  0
LINE
  5
23F
100
AcDbEntity
100
AcDbLine
  8
0
 62
256
370
-1
 48
1.0
  6
BYLAYER
 10
147.9885382901726985
 20
267.2018150827821046
 30
0.0
 11
197.9885382901715616
 21
267.2018150827821046
 31
0.0
  0
LINE
  5
240
100
AcDbEntity
100
AcDbLine
  8
0
 62
256
370
-1
 48
1.0
  6
BYLAYER
 10
154.1289330442223218
 20
89.033943432417189
 30
0.0
 11
154.1289330442223218
 21
39.033943432417189
 31
0.0
  0
LINE
  5
241
100
AcDbEntity
100
AcDbLine
  8
0
 62
256
370
-1
 48
1.0
  6
BYLAYER
 10
193.9885382901723574
 20
261.2018150827821046
 30
0.0
 11
197.9885382901711068
 21
261.2018150827821046
 31
0.0
  0
LINE
  5
242
100
AcDbEntity
100
AcDbLine
  8
0
 62
256
370
-1
 48
1.0
  6
BYLAYER
 10
148.1289330442223218
 20
43.0339434324171606
 30
0.0
 11
148.1289330442223218
 21
39.0339434324171606
 31
0.0
  0
LINE
  5
243
100
AcDbEntity
100
AcDbLine
  8
0
 62
256
370
-1
 48
1.0
  6
BYLAYER
 10
197.9885382901711068
 20
261.2018150827821046
 30
0.0
 11
147.9885382901725848
 21
261.2018150827821046
 31
0.0
  0
LINE
  5
244
100
AcDbEntity
100
AcDbLine
  8
0
 62
256
370
-1
 48
1.0
  6
BYLAYER
 10
148.1289330442223218
 20
39.0339434324171606
 30
0.0
 11
148.1289330442223218
 21
89.033943432417189
 31
0.0
  0
LINE
  5
245
100
AcDbEntity
100
AcDbLine
  8
0
 62
256
370
-1
 48
1.0
  6
BYLAYER
 10
150.4885382901725848
 20
247.2018150827821046
 30
0.0
 11
150.4885382901726985
 21
281.2018150827821046
 31
0.0
  0
LINE
  5
246
100
AcDbEntity
100
AcDbLine
  8
0
 62
256
370
-1
 48
1.0
  6
BYLAYER
 10
134.1289330442223218
 20
86.533943432417189
 30
0.0
 11
168.1289330442223218
 21
86.533943432417189
 31
0.0
  0
LINE
  5
247
100
AcDbEntity
100
AcDbLine
  8
0
 62
256
370
-1
 48
1.0
  6
BYLAYER
 10
195.4885382901733806
 20
247.2018150827821046
 30
0.0
 11
195.4885382901722437
 21
281.2018150827821046
 31
0.0
  0
LINE
  5
248
100
AcDbEntity
100
AcDbLine
  8
0
 62
256
370
-1
 48
1.0
  6
BYLAYER
 10
134.1289330442223218
 20
41.5339434324171606
 30
0.0
 11
168.1289330442223218
 21
41.5339434324171606
 31
0.0
  0
LINE
  5
249
100
AcDbEntity
100
AcDbLine
  8
0
 62
256
370
-1
 48
1.0
  6
BYLAYER
 10
158.1354725745741803
 20
171.1496109608787606
 30
0.0
 11
158.1354725745741803
 21
251.2018150827821046
 31
0.0
  0
LINE
  5
24A
100
AcDbEntity
100
AcDbLine
  8
0
 62
256
370
-1
 48
1.0
  6
BYLAYER
 10
58.0767289223189778
 20
78.8870091480156503
 30
0.0
 11
138.1289330442223218
 21
78.8870091480156503
 31
0.0
  0
LINE
  5
24B
100
AcDbEntity
100
AcDbLine
  8
0
 62
256
370
-1
 48
1.0
  6
BYLAYER
 10
187.7225353317755321
 20
171.1634355493562794
 30
0.0
 11
187.7225353317755321
 21
251.2018150827821046
 31
0.0
  0
LINE
  5
24C
100
AcDbEntity
100
AcDbLine
  8
0
 62
256
370
-1
 48
1.0
  6
BYLAYER
 10
58.0905535107964965
 20
49.2999463908140427
 30
0.0
 11
138.1289330442223218
 21
49.2999463908140427
 31
0.0
  0
LINE
  5
24D
100
AcDbEntity
100
AcDbLine
  8
0
 62
256
370
-1
 48
1.0
  6
BYLAYER
 10
158.1555894111173188
 20
178.6487728028533866
 30
0.0
 11
187.7225353317756458
 21
178.6487728028533866
 31
0.0
  0
LINE
  5
24E
100
AcDbEntity
100
AcDbLine
  8
0
 62
256
370
-1
 48
1.0
  6
BYLAYER
 10
65.5758907642936038
 20
78.8668923114724549
 30
0.0
 11
65.5758907642936038
 21
49.2999463908140427
 31
0.0
  0
LINE
  5
24F
100
AcDbEntity
100
AcDbLine
  8
0
 62
256
370
-1
 48
1.0
  6
BYLAYER
 10
158.1555894111173188
 20
243.6487728028533866
 30
0.0
 11
187.7225353317756458
 21
243.6487728028533866
 31
0.0
  0
LINE
  5
250
100
AcDbEntity
100
AcDbLine
  8
0
 62
256
370
-1
 48
1.0
  6
BYLAYER
 10
130.5758907642936038
 20
78.8668923114724549
 30
0.0
 11
130.5758907642936038
 21
49.2999463908140427
 31
0.0
  0
LINE
  5
251
100
AcDbEntity
100
AcDbLine
  8
0
 62
256
370
-1
 48
1.0
  6
BYLAYER
 10
0.0
 20
-0.0000000000000009
 30
0.0
 11
210.0
 21
-0.0000000000000009
 31
0.0
  0
LINE
  5
252
100
AcDbEntity
100
AcDbLine
  8
0
 62
256
370
-1
 48
1.0
  6
BYLAYER
 10
210.0
 20
-0.0000000000000009
 30
0.0
 11
210.0
 21
297.0
 31
0.0
  0
LINE
  5
253
100
AcDbEntity
100
AcDbLine
  8
0
 62
256
370
-1
 48
1.0
  6
BYLAYER
 10
210.0
 20
297.0
 30
0.0
 11
0.0
 21
297.0
 31
0.0
  0
LINE
  5
254
100
AcDbEntity
100
AcDbLine
  8
0
 62
256
370
-1
 48
1.0
  6
BYLAYER
 10
0.0
 20
297.0
 30
0.0
 11
0.0
 21
-0.0000000000000009
 31
0.0
  0
ENDSEC
  0
SECTION
  2
OBJECTS
  0
DICTIONARY
  5
C
100
AcDbDictionary
280
0
281
1
  3
ACAD_GROUP
350
D
  3
ACAD_LAYOUT
350
1A
  3
ACAD_MLINESTYLE
350
17
  3
ACAD_PLOTSETTINGS
350
19
  3
ACAD_PLOTSTYLENAME
350
E
  3
AcDbVariableDictionary
350
255
  3
QCAD_OBJECTS
350
256
  0
DICTIONARY
  5
D
100
AcDbDictionary
280
0
281
1
  0
ACDBDICTIONARYWDFLT
  5
E
100
AcDbDictionary
281
1
  3
Normal
350
F
100
AcDbDictionaryWithDefault
340
F
  0
ACDBPLACEHOLDER
  5
F
  0
DICTIONARY
  5
17
100
AcDbDictionary
280
0
281
1
  3
Standard
350
18
  0
MLINESTYLE
  5
18
100
AcDbMlineStyle
  2
STANDARD
 70
0
  3

 62
256
 51
90.0
 52
90.0
 71
2
 49
0.5
 62
256
  6
BYLAYER
 49
-0.5
 62
256
  6
BYLAYER
  0
DICTIONARY
  5
19
100
AcDbDictionary
280
0
281
1
  0
DICTIONARY
  5
1A
100
AcDbDictionary
281
1
  3
Layout1
350
1E
  3
Layout2
350
26
  3
Model
350
22
  0
LAYOUT
  5
1E
100
AcDbPlotSettings
  1

  2
none_device
  4

  6

 40
0.0
 41
0.0
 42
0.0
 43
0.0
 44
0.0
 45
0.0
 46
0.0
 47
0.0
 48
0.0
 49
0.0
140
0.0
141
0.0
142
1.0
143
1.0
 70
688
 72
0
 73
0
 74
5
  7

 75
16
147
1.0
148
0.0
149
0.0
100
AcDbLayout
  1
Layout1
 70
1
 71
1
 10
0.0
 20
0.0
 11
420.0
 21
297.0
 12
0.0
 22
0.0
 32
0.0
 14
100000000000000000000.0
 24
100000000000000000000.0
 34
100000000000000000000.0
 15
-100000000000000000000.0
 25
-100000000000000000000.0
 35
-100000000000000000000.0
146
0.0
 13
0.0
 23
0.0
 33
0.0
 16
1.0
 26
0.0
 36
0.0
 17
0.0
 27
1.0
 37
0.0
 76
0
330
1B
  0
LAYOUT
  5
22
100
AcDbPlotSettings
  1

  2
none_device
  4

  6

 40
0.0
 41
0.0
 42
0.0
 43
0.0
 44
0.0
 45
0.0
 46
0.0
 47
0.0
 48
0.0
 49
0.0
140
0.0
141
0.0
142
1.0
143
1.0
 70
1712
 72
0
 73
0
 74
0
  7

 75
0
147
1.0
148
0.0
149
0.0
100
AcDbLayout
  1
Model
 70
1
 71
0
 10
0.0
 20
0.0
 11
12.0
 21
9.0
 12
0.0
 22
0.0
 32
0.0
 14
0.0
 24
0.0
 34
0.0
 15
0.0
 25
0.0
 35
0.0
146
0.0
 13
0.0
 23
0.0
 33
0.0
 16
1.0
 26
0.0
 36
0.0
 17
0.0
 27
1.0
 37
0.0
 76
0
330
1F
  0
LAYOUT
  5
26
100
AcDbPlotSettings
  1

  2
none_device
  4

  6

 40
0.0
 41
0.0
 42
0.0
 43
0.0
 44
0.0
 45
0.0
 46
0.0
 47
0.0
 48
0.0
 49
0.0
140
0.0
141
0.0
142
1.0
143
1.0
 70
688
 72
0
 73
0
 74
5
  7

 75
16
147
1.0
148
0.0
149
0.0
100
AcDbLayout
  1
Layout2
 70
1
 71
2
 10
0.0
 20
0.0
 11
12.0
 21
9.0
 12
0.0
 22
0.0
 32
0.0
 14
0.0
 24
0.0
 34
0.0
 15
0.0
 25
0.0
 35
0.0
146
0.0
 13
0.0
 23
0.0
 33
0.0
 16
1.0
 26
0.0
 36
0.0
 17
0.0
 27
1.0
 37
0.0
 76
0
330
23
  0
DICTIONARY
  5
255
100
AcDbDictionary
281
1
  3
DIMASSOC
350
258
  3
HIDETEXT
350
257
  0
DICTIONARYVAR
  5
257
100
DictionaryVariables
280
0
  1
2
  0
DICTIONARYVAR
  5
258
100
DictionaryVariables
280
0
  1
1
  0
DICTIONARY
  5
256
100
AcDbDictionary
281
1
  3
ColorSettings/BackgroundColor
350
259
  3
ColorSettings/ColorMode
350
25A
  3
Grid/DisplayGrid00
350
25B
  3
Grid/DisplayGrid01
350
25C
  3
Grid/DisplayGrid02
350
25D
  3
Grid/DisplayGrid03
350
25E
  3
Grid/GridSpacingX00
350
25F
  3
Grid/GridSpacingX01
350
260
  3
Grid/GridSpacingX02
350
261
  3
Grid/GridSpacingX03
350
262
  3
Grid/GridSpacingY00
350
263
  3
Grid/GridSpacingY01
350
264
  3
Grid/GridSpacingY02
350
265
  3
Grid/GridSpacingY03
350
266
  3
Grid/IsometricGrid00
350
267
  3
Grid/IsometricGrid01
350
268
  3
Grid/IsometricGrid02
350
269
  3
Grid/IsometricGrid03
350
26A
  3
Grid/IsometricProjection00
350
26B
  3
Grid/IsometricProjection01
350
26C
  3
Grid/IsometricProjection02
350
26D
  3
Grid/IsometricProjection03
350
26E
  3
Grid/MetaGridSpacingX00
350
26F
  3
Grid/MetaGridSpacingX01
350
270
  3
Grid/MetaGridSpacingX02
350
271
  3
Grid/MetaGridSpacingX03
350
272
  3
Grid/MetaGridSpacingY00
350
273
  3
Grid/MetaGridSpacingY01
350
274
  3
Grid/MetaGridSpacingY02
350
275
  3
Grid/MetaGridSpacingY03
350
276
  3
MultiPageSettings/Columns
350
277
  3
MultiPageSettings/GlueMarginsBottom
350
278
  3
MultiPageSettings/GlueMarginsLeft
350
279
  3
MultiPageSettings/GlueMarginsRight
350
27A
  3
MultiPageSettings/GlueMarginsTop
350
27B
  3
MultiPageSettings/PrintCropMarks
350
27C
  3
MultiPageSettings/Rows
350
27D
  3
PageSettings/OffsetX
350
27E
  3
PageSettings/OffsetY
350
27F
  3
PageSettings/PageOrientation
350
280
  3
PageSettings/PaperHeight
350
281
  3
PageSettings/PaperWidth
350
282
  3
PageSettings/Scale
350
283
  3
PageSettings/ShowPaperBorders
350
284
  3
QCADVersion
350
285
  3
UnitSettings/PaperUnit
350
286
  3
ViewportCenter
350
287
  3
ViewportHeight
350
288
  3
ViewportWidth
350
289
  0
XRECORD
  5
259
330
256
100
AcDbXrecord
280
1
1000
White
  0
XRECORD
  5
25A
330
256
100
AcDbXrecord
280
1
1000
FullColor
  0
XRECORD
  5
25B
330
256
100
AcDbXrecord
280
1
290
1
  0
XRECORD
  5
25C
330
256
100
AcDbXrecord
280
1
290
1
  0
XRECORD
  5
25D
330
256
100
AcDbXrecord
280
1
290
1
  0
XRECORD
  5
25E
330
256
100
AcDbXrecord
280
1
290
1
  0
XRECORD
  5
25F
330
256
100
AcDbXrecord
280
1
1000
auto
  0
XRECORD
  5
260
330
256
100
AcDbXrecord
280
1
1000
auto
  0
XRECORD
  5
261
330
256
100
AcDbXrecord
280
1
1000
auto
  0
XRECORD
  5
262
330
256
100
AcDbXrecord
280
1
1000
auto
  0
XRECORD
  5
263
330
256
100
AcDbXrecord
280
1
1000
auto
  0
XRECORD
  5
264
330
256
100
AcDbXrecord
280
1
1000
auto
  0
XRECORD
  5
265
330
256
100
AcDbXrecord
280
1
1000
auto
  0
XRECORD
  5
266
330
256
100
AcDbXrecord
280
1
1000
auto
  0
XRECORD
  5
267
330
256
100
AcDbXrecord
280
1
290
0
  0
XRECORD
  5
268
330
256
100
AcDbXrecord
280
1
290
0
  0
XRECORD
  5
269
330
256
100
AcDbXrecord
280
1
290
0
  0
XRECORD
  5
26A
330
256
100
AcDbXrecord
280
1
290
0
  0
XRECORD
  5
26B
330
256
100
AcDbXrecord
280
1
 90
0
  0
XRECORD
  5
26C
330
256
100
AcDbXrecord
280
1
 90
0
  0
XRECORD
  5
26D
330
256
100
AcDbXrecord
280
1
 90
0
  0
XRECORD
  5
26E
330
256
100
AcDbXrecord
280
1
 90
0
  0
XRECORD
  5
26F
330
256
100
AcDbXrecord
280
1
1000
auto
  0
XRECORD
  5
270
330
256
100
AcDbXrecord
280
1
1000
auto
  0
XRECORD
  5
271
330
256
100
AcDbXrecord
280
1
1000
auto
  0
XRECORD
  5
272
330
256
100
AcDbXrecord
280
1
1000
auto
  0
XRECORD
  5
273
330
256
100
AcDbXrecord
280
1
1000
auto
  0
XRECORD
  5
274
330
256
100
AcDbXrecord
280
1
1000
auto
  0
XRECORD
  5
275
330
256
100
AcDbXrecord
280
1
1000
auto
  0
XRECORD
  5
276
330
256
100
AcDbXrecord
280
1
1000
auto
  0
XRECORD
  5
277
330
256
100
AcDbXrecord
280
1
 90
1
  0
XRECORD
  5
278
330
256
100
AcDbXrecord
280
1
 40
10.0
  0
XRECORD
  5
279
330
256
100
AcDbXrecord
280
1
 40
10.0
  0
XRECORD
  5
27A
330
256
100
AcDbXrecord
280
1
 40
10.0
  0
XRECORD
  5
27B
330
256
100
AcDbXrecord
280
1
 40
10.0
  0
XRECORD
  5
27C
330
256
100
AcDbXrecord
280
1
290
0
  0
XRECORD
  5
27D
330
256
100
AcDbXrecord
280
1
 90
1
  0
XRECORD
  5
27E
330
256
100
AcDbXrecord
280
1
 40
0.0
  0
XRECORD
  5
27F
330
256
100
AcDbXrecord
280
1
 40
0.0
  0
XRECORD
  5
280
330
256
100
AcDbXrecord
280
1
1000
Portrait
  0
XRECORD
  5
281
330
256
100
AcDbXrecord
280
1
 40
297.0
  0
XRECORD
  5
282
330
256
100
AcDbXrecord
280
1
 40
210.0
  0
XRECORD
  5
283
330
256
100
AcDbXrecord
280
1
1000
1:1
  0
XRECORD
  5
284
330
256
100
AcDbXrecord
280
1
290
1
  0
XRECORD
  5
285
330
256
100
AcDbXrecord
280
1
1000
3.15.4
  0
XRECORD
  5
286
330
256
100
AcDbXrecord
280
1
 90
4
  0
XRECORD
  5
288
330
256
100
AcDbXrecord
280
1
 40
325.4722559999998452
  0
XRECORD
  5
289
330
256
100
AcDbXrecord
280
1
 40
888.9274367999996684
  0
ENDSEC
  0
EOF
